<svg id="svg" version="1.1" xmlns="http://www.w3.org/2000/svg" xmlns:xlink="http://www.w3.org/1999/xlink" width="400" height="400" viewBox="0, 0, 400,400"><g id="svgg"><path id="path0" d="M181.716 13.755 C 141.045 21.100,108.307 54.132,101.177 95.017 C 93.763 137.530,118.851 208.730,177.946 312.891 C 191.585 336.931,192.100 337.500,200.236 337.500 C 208.141 337.500,208.595 336.930,227.624 303.125 C 274.126 220.517,300.000 152.301,300.000 112.307 C 300.000 49.618,243.554 2.588,181.716 13.755 M214.423 65.485 C 258.625 81.625,248.775 147.009,201.834 149.046 C 150.993 151.252,139.794 78.417,188.821 64.413 C 194.600 62.763,208.570 63.348,214.423 65.485 M129.753 293.362 C 83.002 312.618,81.156 353.338,126.106 373.823 C 169.912 393.786,244.778 391.717,282.158 369.510 C 314.676 350.191,314.630 318.531,282.055 299.179 C 276.981 296.164,264.580 290.668,262.787 290.639 C 262.300 290.631,259.173 295.635,255.836 301.758 C 226.862 354.932,220.429 361.857,200.000 361.857 C 179.354 361.857,172.117 353.846,141.827 297.461 C 137.602 289.597,138.310 289.837,129.753 293.362 " stroke="none" fill="#ffffff" fill-rule="evenodd"></path></g></svg>