<svg id="svg" version="1.1" xmlns="http://www.w3.org/2000/svg" xmlns:xlink="http://www.w3.org/1999/xlink" width="400" height="400" viewBox="0, 0, 400,400"><g id="svgg"><path id="path0" d="M142.578 67.957 C 138.066 70.196,19.223 189.240,17.609 193.139 C 16.069 196.858,16.069 203.142,17.609 206.861 C 19.513 211.459,137.411 329.248,142.578 331.714 C 157.311 338.746,172.245 323.196,164.783 308.594 C 164.015 307.090,143.498 285.996,119.190 261.719 L 74.995 217.578 223.240 217.188 L 371.484 216.797 374.965 214.844 C 386.393 208.432,386.393 191.568,374.965 185.156 L 371.484 183.203 223.240 182.813 L 74.995 182.422 119.608 137.891 C 166.483 91.102,167.138 90.351,167.170 83.373 C 167.228 70.787,153.820 62.382,142.578 67.957 " stroke="none" fill="#ffffff" fill-rule="evenodd"></path></g></svg>