<svg id="svg" xmlns="http://www.w3.org/2000/svg" xmlns:xlink="http://www.w3.org/1999/xlink" width="400" height="400" viewBox="0, 0, 400,400"><g id="svgg"><path id="path0" d="M357.031 30.887 C 303.112 33.674,305.306 33.331,301.771 39.522 C 297.691 46.666,299.609 50.917,312.840 64.056 L 322.666 73.815 252.559 143.925 L 182.452 214.035 149.625 181.370 C 128.561 160.412,115.677 148.168,113.672 147.204 C 109.405 145.154,99.205 145.135,95.313 147.169 C 90.430 149.721,4.033 236.499,1.879 241.016 C -4.691 254.787,6.716 272.897,22.679 274.039 C 32.064 274.711,31.463 275.185,69.937 236.704 L 104.273 202.361 137.097 235.076 C 172.103 269.964,172.568 270.347,180.660 270.926 C 190.996 271.666,184.294 277.622,274.377 187.645 L 355.395 106.724 366.268 117.360 C 380.305 131.091,384.376 132.355,392.100 125.377 C 396.497 121.404,396.836 119.295,398.476 85.665 C 401.476 24.177,404.689 28.424,357.031 30.887 M325.192 169.730 L 295.313 199.617 295.313 281.474 C 295.313 371.625,295.102 367.707,300.033 369.426 C 304.175 370.870,354.131 370.641,356.985 369.164 C 361.054 367.061,360.938 370.460,360.938 253.545 L 360.938 144.042 358.746 141.943 C 357.541 140.788,356.221 139.844,355.813 139.844 C 355.405 139.844,341.625 153.293,325.192 169.730 M241.016 253.923 C 224.688 270.265,210.188 284.417,208.794 285.372 L 206.261 287.109 206.255 326.622 L 206.250 366.134 208.265 368.028 L 210.280 369.922 237.545 370.146 C 266.697 370.386,268.279 370.207,270.294 366.442 C 270.838 365.425,271.037 341.943,270.903 294.571 L 270.703 224.211 241.016 253.923 M116.406 306.527 L 116.406 365.397 118.293 367.432 C 121.022 370.378,121.286 370.400,150.569 370.150 L 177.310 369.922 179.475 367.756 L 181.641 365.591 181.866 330.224 L 182.091 294.858 175.736 293.932 C 163.152 292.098,160.191 290.051,137.467 267.478 C 126.492 256.576,117.264 247.656,116.960 247.656 C 116.655 247.656,116.406 274.148,116.406 306.527 M70.313 268.985 C 46.164 292.914,44.499 294.045,28.711 297.250 L 26.563 297.686 26.563 330.561 C 26.563 374.874,22.735 370.313,59.921 370.313 C 88.778 370.313,89.704 370.171,91.322 365.532 C 92.317 362.677,92.590 248.426,91.602 248.454 C 91.279 248.463,81.699 257.702,70.313 268.985 " stroke="none" fill="#ffffff" fill-rule="evenodd"></path></g></svg>