<svg id="svg" version="1.1" xmlns="http://www.w3.org/2000/svg" xmlns:xlink="http://www.w3.org/1999/xlink" width="400" height="400" viewBox="0, 0, 400,400"><g id="svgg"><path id="path0" d="M60.274 1.157 C 52.859 4.492,18.915 25.734,15.373 29.255 C 4.304 40.260,0.010 54.299,0.003 79.497 C -0.013 139.298,39.546 208.648,118.058 286.459 C 202.682 370.327,278.229 408.600,339.844 398.815 C 362.973 395.142,368.759 390.483,386.145 361.529 C 400.056 338.364,400.246 337.944,399.864 331.195 C 399.343 321.968,400.718 323.127,350.879 289.916 C 290.350 249.581,296.804 249.992,269.744 284.751 C 253.015 306.241,249.994 307.436,233.984 298.899 C 187.993 274.376,127.359 214.247,102.450 168.462 C 92.219 149.656,92.983 147.532,116.535 129.267 C 140.982 110.307,142.729 107.977,140.475 97.340 C 139.249 91.557,81.953 5.692,77.238 2.572 C 73.231 -0.080,64.620 -0.798,60.274 1.157 M224.590 48.746 C 220.420 50.564,219.074 56.028,221.909 59.631 C 223.675 61.877,224.161 61.986,237.988 63.259 C 295.442 68.549,338.873 112.902,343.911 171.429 C 345.023 184.346,346.014 186.293,351.480 186.293 C 357.284 186.293,358.796 183.814,358.657 174.530 C 357.889 123.205,322.769 74.439,273.486 56.268 C 257.169 50.252,230.533 46.154,224.590 48.746 M224.590 90.153 C 215.546 94.094,219.827 102.935,231.289 103.988 C 271.488 107.677,299.871 135.957,302.839 175.278 C 303.491 183.915,305.053 186.293,310.073 186.293 C 317.386 186.293,319.082 179.477,315.968 162.614 C 308.705 123.284,276.527 94.000,236.050 89.885 C 226.442 88.908,227.505 88.883,224.590 90.153 M224.590 131.522 C 216.628 135.117,219.657 144.024,229.297 145.363 C 247.729 147.924,258.696 158.496,261.315 176.227 C 262.353 183.253,263.579 185.451,266.933 186.292 C 282.547 190.211,277.096 158.291,259.470 142.586 C 250.093 134.231,231.589 128.361,224.590 131.522 " stroke="none" fill="#ffffff" fill-rule="evenodd"></path></g></svg>