<svg id="svg" version="1.1" xmlns="http://www.w3.org/2000/svg" xmlns:xlink="http://www.w3.org/1999/xlink" width="400" height="400" viewBox="0, 0, 400,400"><g id="svgg"><path id="path0" d="M50.000 56.253 L 50.000 87.894 124.025 161.916 C 182.723 220.612,198.454 235.938,200.003 235.938 C 201.552 235.938,217.280 220.613,275.978 161.913 L 350.000 87.888 350.000 56.250 L 350.000 24.612 275.000 99.609 L 200.000 174.606 125.000 99.609 L 50.000 24.612 50.000 56.253 M50.000 193.753 L 50.000 225.394 124.025 299.416 C 182.723 358.112,198.454 373.438,200.003 373.438 C 201.552 373.438,217.280 358.113,275.978 299.413 L 350.000 225.388 350.000 193.750 L 350.000 162.112 275.000 237.109 L 200.000 312.106 125.000 237.109 L 50.000 162.112 50.000 193.753 " stroke="none" fill="#ffffff" fill-rule="evenodd"></path></g></svg>