<svg id="svg" version="1.1" xmlns="http://www.w3.org/2000/svg" xmlns:xlink="http://www.w3.org/1999/xlink" width="400" height="400" viewBox="0, 0, 400,400"><g id="svgg"><path id="path0" d="M23.651 60.941 C 13.206 64.654,5.126 72.845,1.494 83.403 C -0.861 90.248,-0.836 309.824,1.520 316.674 C 5.189 327.338,13.314 335.445,24.028 339.131 C 30.829 341.471,369.171 341.471,375.972 339.131 C 386.686 335.445,394.811 327.338,398.480 316.674 C 400.858 309.760,400.858 90.240,398.480 83.326 C 394.811 72.662,386.686 64.555,375.972 60.869 C 369.280 58.566,30.135 58.636,23.651 60.941 M290.066 151.539 C 224.607 216.754,220.862 220.341,215.456 222.992 C 205.193 228.027,194.807 228.027,184.544 222.992 C 179.138 220.341,175.393 216.754,109.934 151.539 L 41.016 82.876 200.000 82.876 L 358.984 82.876 290.066 151.539 M78.905 155.029 L 123.825 200.002 73.631 250.195 L 23.438 300.389 23.438 200.505 L 23.438 100.620 28.711 105.338 C 31.611 107.933,54.198 130.294,78.905 155.029 M376.563 200.585 L 376.563 300.389 326.367 250.178 L 276.172 199.966 325.852 150.374 C 353.177 123.098,375.765 100.781,376.048 100.781 C 376.331 100.781,376.563 145.693,376.563 200.585 M149.234 225.449 C 168.491 244.898,180.467 250.903,200.000 250.903 C 219.553 250.903,230.193 245.649,249.754 226.333 L 258.493 217.704 266.161 224.817 C 270.378 228.730,292.987 251.114,316.404 274.559 L 358.979 317.188 199.997 317.171 L 41.016 317.155 90.729 267.562 C 118.072 240.286,140.755 217.969,141.136 217.969 C 141.516 217.969,145.161 221.335,149.234 225.449 " stroke="none" fill="#ffffff" fill-rule="evenodd"></path></g></svg>