<svg id="svg" xmlns="http://www.w3.org/2000/svg" xmlns:xlink="http://www.w3.org/1999/xlink" width="400" height="400" viewBox="0, 0, 400,400"><g id="svgg"><path id="path0" d="M26.627 51.241 C 0.921 58.152,-8.885 91.661,9.129 111.036 C 14.130 116.415,181.162 227.939,187.544 230.160 C 193.476 232.225,206.524 232.225,212.456 230.160 C 218.838 227.939,385.870 116.415,390.871 111.036 C 409.099 91.431,399.133 57.999,373.035 51.202 C 366.242 49.432,33.213 49.470,26.627 51.241 M0.183 228.267 L 0.391 323.047 3.267 328.906 C 8.122 338.798,16.919 346.182,26.965 348.798 C 33.975 350.624,366.025 350.624,373.035 348.798 C 384.774 345.741,394.473 336.524,398.414 324.681 C 399.985 319.958,400.004 318.668,399.808 226.745 L 399.609 133.594 315.234 189.891 C 215.241 256.608,220.562 253.533,203.462 254.468 C 182.641 255.605,186.855 257.889,87.121 191.428 C 40.279 160.214,1.508 134.407,0.964 134.080 C 0.168 133.602,0.016 151.981,0.183 228.267 " stroke="none" fill="#ffffff" fill-rule="evenodd"></path></g></svg>