<svg id="svg" version="1.1" xmlns="http://www.w3.org/2000/svg" xmlns:xlink="http://www.w3.org/1999/xlink" width="400" height="400" viewBox="0, 0, 400,400"><g id="svgg"><path id="path0" d="M303.670 71.680 C 269.797 105.518,241.579 134.152,240.963 135.313 C 240.121 136.901,239.844 140.639,239.844 150.427 C 239.844 169.961,240.195 170.313,259.730 170.313 C 269.518 170.312,273.256 170.036,274.843 169.193 C 276.004 168.577,304.639 140.359,338.477 106.486 L 400.000 44.899 400.000 40.249 L 400.000 35.599 387.278 22.878 L 374.557 10.156 369.907 10.156 L 365.258 10.156 303.670 71.680 M37.002 51.548 C 19.315 56.185,4.530 71.471,0.869 88.906 C -0.625 96.020,-0.330 286.653,1.184 292.609 C 5.655 310.199,19.978 324.389,37.820 328.905 C 43.670 330.385,46.562 330.469,91.922 330.469 L 139.844 330.469 139.844 356.916 C 139.844 386.838,139.935 387.304,146.268 389.714 C 151.911 391.862,152.276 391.637,193.992 360.307 L 233.203 330.859 286.719 330.456 C 339.265 330.060,340.327 330.022,345.324 328.333 C 360.535 323.193,372.784 310.988,377.904 295.871 L 380.078 289.453 380.291 190.820 C 380.408 136.572,380.239 92.188,379.915 92.188 C 379.591 92.187,358.226 113.240,332.437 138.970 C 276.392 194.887,284.214 189.453,259.766 189.453 L 243.359 189.453 238.124 186.973 C 224.994 180.753,220.818 172.673,220.428 152.734 C 219.935 127.552,217.373 131.631,261.406 87.489 C 281.344 67.502,297.656 50.891,297.656 50.575 C 297.656 49.073,42.813 50.024,37.002 51.548 M174.748 112.173 C 180.756 116.603,180.912 123.986,175.080 127.904 L 172.425 129.687 120.002 129.685 C 68.799 129.682,67.518 129.645,64.992 128.105 C 57.834 123.741,59.797 112.927,68.113 110.916 C 74.793 109.300,172.412 110.450,174.748 112.173 M174.171 171.740 C 181.279 175.553,181.054 185.703,173.792 188.737 C 169.591 190.492,69.704 190.370,65.984 188.605 C 58.616 185.108,58.886 175.544,66.462 171.681 C 70.680 169.530,170.152 169.585,174.171 171.740 M313.680 231.594 C 321.185 234.730,321.185 245.739,313.680 248.875 C 309.133 250.775,70.203 250.539,66.462 248.632 C 58.948 244.800,58.609 235.312,65.858 231.738 C 69.488 229.948,309.407 229.808,313.680 231.594 " stroke="none" fill="#000000" fill-rule="evenodd"></path></g></svg>