<svg id="svg" xmlns="http://www.w3.org/2000/svg" xmlns:xlink="http://www.w3.org/1999/xlink" width="400" height="400" viewBox="0, 0, 400,400"><g id="svgg"><path id="path0" d="M98.047 67.691 C 43.458 76.498,2.038 150.128,0.227 241.581 C -1.081 307.609,11.238 334.603,41.781 332.643 C 56.136 331.722,78.201 314.293,109.327 279.288 C 126.827 259.606,118.133 261.328,200.000 261.328 C 251.255 261.328,267.545 261.556,270.010 262.306 C 274.591 263.700,281.079 268.286,285.066 272.948 C 332.938 328.929,360.407 343.719,382.068 325.178 C 402.916 307.333,406.658 227.529,389.328 170.343 C 360.478 75.138,300.900 42.371,234.885 85.402 C 221.850 93.899,218.222 94.774,197.656 94.385 C 179.768 94.047,177.601 93.476,166.139 86.070 C 144.359 71.998,117.045 64.626,98.047 67.691 M284.535 113.714 C 292.756 116.515,298.892 125.265,298.750 133.984 C 298.451 152.451,275.739 161.625,262.671 148.557 C 247.115 133.000,263.677 106.607,284.535 113.714 M117.188 128.163 C 119.121 128.592,121.670 129.329,122.852 129.801 L 125.000 130.658 125.000 144.235 L 125.000 157.813 138.224 157.813 L 151.448 157.813 153.560 162.129 C 156.042 167.203,155.976 175.164,153.402 181.047 L 151.953 184.359 138.086 184.367 L 124.219 184.375 124.219 197.638 C 124.219 212.973,124.603 212.214,115.673 214.502 C 109.870 215.989,104.056 215.248,99.519 212.444 L 96.875 210.810 96.875 197.593 L 96.875 184.375 83.658 184.375 L 70.442 184.375 69.010 180.664 C 67.090 175.687,67.090 166.500,69.010 161.523 L 70.442 157.813 84.440 157.813 L 98.438 157.813 98.438 143.811 L 98.438 129.809 100.977 129.018 C 106.774 127.212,111.729 126.951,117.188 128.163 M338.721 145.841 C 344.323 147.749,350.046 153.749,351.889 159.644 C 358.132 179.612,333.528 195.481,317.989 181.510 C 300.669 165.938,316.710 138.341,338.721 145.841 M286.398 174.184 C 297.050 178.847,301.771 192.000,296.591 202.586 C 288.918 218.270,266.819 218.587,259.018 203.125 C 249.963 185.178,267.988 166.125,286.398 174.184 " stroke="none" fill="#ffffff" fill-rule="evenodd"></path></g></svg>