<svg id="svg" xmlns="http://www.w3.org/2000/svg" xmlns:xlink="http://www.w3.org/1999/xlink" width="400" height="400" viewBox="0, 0, 400,400" version="1.1"><g id="svgg"><path id="path0" d="M189.600 8.000 C 189.600 8.243,187.677 8.414,184.700 8.435 C 179.854 8.469,175.826 8.789,170.000 9.603 C 168.350 9.833,166.100 10.124,165.000 10.248 C 163.900 10.372,162.829 10.637,162.620 10.837 C 162.411 11.037,161.376 11.200,160.320 11.200 C 159.264 11.200,158.400 11.362,158.400 11.560 C 158.400 11.758,157.635 12.022,156.700 12.147 C 152.611 12.694,151.582 12.906,151.374 13.242 C 151.252 13.439,150.544 13.600,149.800 13.600 C 149.056 13.600,148.336 13.780,148.200 14.000 C 148.064 14.220,147.434 14.400,146.800 14.400 C 146.166 14.400,145.536 14.580,145.400 14.800 C 145.264 15.020,144.623 15.200,143.976 15.200 C 143.329 15.200,142.800 15.380,142.800 15.600 C 142.800 15.820,142.408 16.000,141.928 16.000 C 141.008 16.000,138.672 16.660,137.505 17.249 C 137.123 17.442,136.358 17.600,135.805 17.600 C 135.252 17.600,134.800 17.780,134.800 18.000 C 134.800 18.220,134.361 18.400,133.824 18.400 C 133.287 18.400,132.736 18.580,132.600 18.800 C 132.464 19.020,131.913 19.200,131.376 19.200 C 130.839 19.200,130.400 19.380,130.400 19.600 C 130.400 19.820,129.950 20.000,129.400 20.000 C 128.850 20.000,128.400 20.180,128.400 20.400 C 128.400 20.620,127.950 20.800,127.400 20.800 C 126.850 20.800,126.400 20.980,126.400 21.200 C 126.400 21.420,126.040 21.600,125.600 21.600 C 125.160 21.600,124.800 21.780,124.800 22.000 C 124.800 22.220,124.260 22.400,123.600 22.400 C 122.940 22.400,122.400 22.580,122.400 22.800 C 122.400 23.020,122.040 23.200,121.600 23.200 C 121.160 23.200,120.800 23.380,120.800 23.600 C 120.800 23.820,120.260 24.000,119.600 24.000 C 118.940 24.000,118.400 24.180,118.400 24.400 C 118.400 24.620,118.129 24.800,117.798 24.800 C 117.467 24.800,116.263 25.250,115.123 25.800 C 113.983 26.350,112.829 26.800,112.558 26.800 C 112.288 26.800,112.007 26.944,111.933 27.120 C 111.860 27.296,110.495 28.048,108.900 28.791 C 107.305 29.534,106.000 30.290,106.000 30.471 C 106.000 30.652,105.640 30.800,105.200 30.800 C 104.760 30.800,104.400 30.980,104.400 31.200 C 104.400 31.420,104.040 31.600,103.600 31.600 C 103.160 31.600,102.800 31.780,102.800 32.000 C 102.800 32.220,102.440 32.400,102.000 32.400 C 101.560 32.400,101.200 32.580,101.200 32.800 C 101.200 33.020,100.964 33.200,100.675 33.200 C 100.387 33.200,99.764 33.560,99.292 34.000 C 98.820 34.440,98.156 34.800,97.817 34.800 C 97.478 34.800,97.200 34.980,97.200 35.200 C 97.200 35.420,96.840 35.600,96.400 35.600 C 95.960 35.600,95.600 35.780,95.600 36.000 C 95.600 36.220,95.330 36.400,95.000 36.400 C 94.670 36.400,94.400 36.580,94.400 36.800 C 94.400 37.020,94.130 37.200,93.800 37.200 C 93.470 37.200,93.200 37.380,93.200 37.600 C 93.200 37.820,92.970 38.000,92.688 38.000 C 92.407 38.000,91.917 38.360,91.600 38.800 C 91.283 39.240,90.786 39.600,90.495 39.600 C 90.204 39.600,89.580 39.960,89.108 40.400 C 88.636 40.840,88.013 41.200,87.725 41.200 C 87.436 41.200,87.200 41.345,87.200 41.523 C 87.200 41.701,86.480 42.164,85.600 42.552 C 84.720 42.940,84.000 43.425,84.000 43.629 C 84.000 43.833,83.775 44.000,83.500 44.001 C 83.225 44.001,82.370 44.541,81.600 45.200 C 80.830 45.859,80.068 46.399,79.907 46.399 C 79.625 46.400,78.811 47.074,75.676 49.900 C 74.882 50.615,74.091 51.200,73.917 51.200 C 73.743 51.200,72.859 51.920,71.952 52.800 C 71.045 53.680,70.141 54.400,69.943 54.400 C 69.745 54.400,68.593 55.390,67.383 56.600 C 66.173 57.810,65.006 58.800,64.790 58.800 C 64.285 58.800,49.600 73.446,49.600 73.950 C 49.600 74.158,49.105 74.755,48.500 75.277 C 47.297 76.312,45.274 78.582,43.400 80.996 C 42.740 81.846,41.975 82.767,41.700 83.042 C 41.425 83.318,41.200 83.736,41.200 83.971 C 41.200 84.206,40.480 85.141,39.600 86.048 C 38.720 86.955,38.000 87.905,38.000 88.160 C 38.000 88.415,37.640 88.883,37.200 89.200 C 36.760 89.517,36.400 90.025,36.400 90.328 C 36.400 90.631,35.860 91.383,35.200 92.000 C 34.540 92.617,34.000 93.319,34.000 93.560 C 34.000 93.802,33.850 94.000,33.668 94.000 C 33.485 94.000,33.080 94.495,32.768 95.100 C 32.455 95.705,31.885 96.549,31.500 96.975 C 31.115 97.402,30.800 97.987,30.800 98.275 C 30.800 98.564,30.642 98.800,30.449 98.800 C 30.255 98.800,29.873 99.340,29.600 100.000 C 29.327 100.660,28.966 101.200,28.798 101.200 C 28.630 101.200,28.393 101.515,28.271 101.900 C 28.054 102.585,26.796 104.804,26.400 105.200 C 26.290 105.310,25.660 106.480,25.000 107.800 C 24.340 109.120,23.665 110.260,23.500 110.333 C 23.335 110.407,23.200 110.797,23.200 111.200 C 23.200 111.603,23.065 111.993,22.900 112.067 C 22.524 112.234,21.225 114.364,20.929 115.300 C 20.807 115.685,20.548 116.000,20.353 116.000 C 20.159 116.000,20.000 116.360,20.000 116.800 C 20.000 117.240,19.820 117.600,19.600 117.600 C 19.380 117.600,19.200 117.960,19.200 118.400 C 19.200 118.840,19.020 119.200,18.800 119.200 C 18.580 119.200,18.400 119.639,18.400 120.176 C 18.400 120.713,18.220 121.264,18.000 121.400 C 17.780 121.536,17.600 121.997,17.600 122.424 C 17.600 122.851,17.420 123.200,17.200 123.200 C 16.980 123.200,16.800 123.545,16.800 123.967 C 16.800 124.388,16.665 124.793,16.500 124.867 C 16.001 125.088,14.400 128.422,14.400 129.238 C 14.400 129.657,14.220 130.000,14.000 130.000 C 13.780 130.000,13.600 130.360,13.600 130.800 C 13.600 131.240,13.420 131.600,13.200 131.600 C 12.980 131.600,12.800 132.140,12.800 132.800 C 12.800 133.460,12.620 134.000,12.400 134.000 C 12.180 134.000,12.000 134.349,12.000 134.776 C 12.000 135.203,11.820 135.664,11.600 135.800 C 11.380 135.936,11.200 136.487,11.200 137.024 C 11.200 137.561,11.020 138.000,10.800 138.000 C 10.580 138.000,10.400 138.540,10.400 139.200 C 10.400 139.860,10.220 140.400,10.000 140.400 C 9.780 140.400,9.600 140.839,9.600 141.376 C 9.600 141.913,9.433 142.456,9.228 142.583 C 9.023 142.709,8.733 143.800,8.582 145.006 C 8.431 146.213,8.149 147.200,7.954 147.200 C 7.759 147.200,7.600 147.740,7.600 148.400 C 7.600 149.060,7.420 149.600,7.200 149.600 C 6.980 149.600,6.800 150.320,6.800 151.200 C 6.800 152.080,6.620 152.800,6.400 152.800 C 6.180 152.800,6.000 153.340,6.000 154.000 C 6.000 154.660,5.820 155.200,5.600 155.200 C 5.380 155.200,5.200 155.920,5.200 156.800 C 5.200 157.680,5.020 158.400,4.800 158.400 C 4.580 158.400,4.400 159.210,4.400 160.200 C 4.400 161.190,4.220 162.000,4.000 162.000 C 3.780 162.000,3.600 162.709,3.600 163.576 C 3.600 164.443,3.420 165.264,3.200 165.400 C 2.980 165.536,2.800 166.436,2.800 167.400 C 2.800 168.364,2.620 169.264,2.400 169.400 C 2.180 169.536,2.000 170.627,2.000 171.824 C 2.000 173.021,1.820 174.000,1.600 174.000 C 1.373 174.000,1.200 175.173,1.200 176.720 C 1.200 178.363,1.002 179.638,0.700 179.940 C 0.311 180.329,0.200 185.903,0.200 205.087 C 0.200 224.448,0.307 229.769,0.700 229.900 C 1.030 230.010,1.200 230.931,1.200 232.610 C 1.200 234.008,1.380 235.264,1.600 235.400 C 1.820 235.536,2.000 236.627,2.000 237.824 C 2.000 239.021,2.180 240.000,2.400 240.000 C 2.620 240.000,2.800 240.900,2.800 242.000 C 2.800 243.100,2.980 244.000,3.200 244.000 C 3.420 244.000,3.600 244.900,3.600 246.000 C 3.600 247.100,3.780 248.000,4.000 248.000 C 4.220 248.000,4.400 248.720,4.400 249.600 C 4.400 250.480,4.580 251.200,4.800 251.200 C 5.020 251.200,5.200 251.920,5.200 252.800 C 5.200 253.680,5.380 254.400,5.600 254.400 C 5.820 254.400,6.000 255.030,6.000 255.800 C 6.000 256.570,6.180 257.200,6.400 257.200 C 6.620 257.200,6.800 257.740,6.800 258.400 C 6.800 259.060,6.980 259.600,7.200 259.600 C 7.420 259.600,7.600 260.219,7.600 260.976 C 7.600 261.733,7.780 262.464,8.000 262.600 C 8.220 262.736,8.400 263.280,8.400 263.810 C 8.400 265.121,9.647 268.937,10.847 271.295 C 11.041 271.677,11.200 272.341,11.200 272.771 C 11.200 273.201,11.380 273.664,11.600 273.800 C 11.820 273.936,12.000 274.487,12.000 275.024 C 12.000 275.561,12.180 276.000,12.400 276.000 C 12.620 276.000,12.800 276.360,12.800 276.800 C 12.800 277.240,12.980 277.600,13.200 277.600 C 13.420 277.600,13.600 278.039,13.600 278.576 C 13.600 279.113,13.780 279.664,14.000 279.800 C 14.220 279.936,14.400 280.397,14.400 280.824 C 14.400 281.251,14.580 281.600,14.800 281.600 C 15.020 281.600,15.200 281.960,15.200 282.400 C 15.200 282.840,15.380 283.200,15.600 283.200 C 15.820 283.200,16.000 283.555,16.000 283.988 C 16.000 284.421,16.360 285.417,16.800 286.200 C 17.240 286.983,17.600 287.889,17.600 288.212 C 17.600 288.535,17.746 288.800,17.925 288.800 C 18.104 288.800,18.498 289.430,18.800 290.200 C 19.102 290.970,19.496 291.600,19.675 291.600 C 19.854 291.600,20.000 291.960,20.000 292.400 C 20.000 292.840,20.180 293.200,20.400 293.200 C 20.620 293.200,20.800 293.560,20.800 294.000 C 20.800 294.440,20.980 294.800,21.200 294.800 C 21.420 294.800,21.600 295.160,21.600 295.600 C 21.600 296.040,21.780 296.400,22.000 296.400 C 22.220 296.400,22.400 296.760,22.400 297.200 C 22.400 297.640,22.580 298.000,22.800 298.000 C 23.020 298.000,23.200 298.236,23.200 298.525 C 23.200 298.813,23.560 299.436,24.000 299.908 C 24.440 300.380,24.800 300.999,24.801 301.283 C 24.802 301.567,25.432 302.844,26.201 304.120 C 26.970 305.396,27.600 306.611,27.600 306.820 C 27.600 307.029,27.758 307.200,27.951 307.200 C 28.145 307.200,28.527 307.740,28.800 308.400 C 29.073 309.060,29.455 309.600,29.649 309.600 C 29.842 309.600,30.000 309.836,30.000 310.125 C 30.000 310.413,30.315 310.998,30.700 311.425 C 31.085 311.851,31.655 312.695,31.968 313.300 C 32.280 313.905,32.685 314.400,32.868 314.400 C 33.050 314.400,33.200 314.643,33.200 314.941 C 33.200 315.238,33.740 316.046,34.400 316.737 C 35.060 317.428,35.600 318.225,35.600 318.508 C 35.600 318.791,35.960 319.283,36.400 319.600 C 36.840 319.917,37.200 320.372,37.200 320.610 C 37.200 320.849,37.834 321.754,38.608 322.622 C 39.383 323.490,40.456 324.691,40.993 325.291 C 41.530 325.891,42.229 326.881,42.546 327.491 C 42.863 328.101,43.950 329.474,44.961 330.542 C 45.973 331.610,46.800 332.643,46.800 332.837 C 46.800 333.116,50.239 336.628,55.634 341.859 C 55.828 342.046,58.331 344.585,61.197 347.500 C 64.063 350.415,66.586 352.800,66.802 352.800 C 67.019 352.800,68.126 353.710,69.262 354.823 C 70.398 355.935,71.881 357.132,72.559 357.482 C 73.236 357.832,74.269 358.632,74.855 359.259 C 75.442 359.887,76.079 360.400,76.272 360.400 C 76.465 360.400,76.883 360.760,77.200 361.200 C 77.517 361.640,78.007 362.000,78.288 362.000 C 78.570 362.000,78.800 362.180,78.800 362.400 C 78.800 362.620,79.030 362.800,79.312 362.800 C 79.593 362.800,80.083 363.160,80.400 363.600 C 80.717 364.040,81.209 364.400,81.492 364.400 C 81.775 364.400,82.572 364.940,83.263 365.600 C 83.954 366.260,84.722 366.800,84.971 366.800 C 85.220 366.800,85.683 367.160,86.000 367.600 C 86.317 368.040,86.814 368.400,87.105 368.400 C 87.396 368.400,88.020 368.760,88.492 369.200 C 88.964 369.640,89.587 370.000,89.875 370.000 C 90.164 370.000,90.400 370.180,90.400 370.400 C 90.400 370.620,90.636 370.800,90.925 370.800 C 91.213 370.800,91.806 371.115,92.242 371.500 C 93.305 372.440,94.900 373.389,97.900 374.868 C 99.275 375.546,100.400 376.258,100.400 376.451 C 100.400 376.643,100.760 376.800,101.200 376.800 C 101.640 376.800,102.000 376.980,102.000 377.200 C 102.000 377.420,102.360 377.600,102.800 377.600 C 103.240 377.600,103.600 377.780,103.600 378.000 C 103.600 378.220,103.960 378.400,104.400 378.400 C 104.840 378.400,105.200 378.580,105.200 378.800 C 105.200 379.020,105.560 379.200,106.000 379.200 C 106.440 379.200,106.800 379.380,106.800 379.600 C 106.800 379.820,107.160 380.000,107.600 380.000 C 108.040 380.000,108.400 380.146,108.400 380.325 C 108.400 380.504,109.030 380.898,109.800 381.200 C 110.570 381.502,111.200 381.896,111.200 382.075 C 111.200 382.254,111.560 382.400,112.000 382.400 C 112.440 382.400,112.800 382.580,112.800 382.800 C 112.800 383.020,113.160 383.200,113.600 383.200 C 114.040 383.200,114.400 383.380,114.400 383.600 C 114.400 383.820,114.760 384.000,115.200 384.000 C 115.640 384.000,116.000 384.180,116.000 384.400 C 116.000 384.620,116.439 384.800,116.976 384.800 C 117.513 384.800,118.064 384.980,118.200 385.200 C 118.336 385.420,118.797 385.600,119.224 385.600 C 119.651 385.600,120.000 385.780,120.000 386.000 C 120.000 386.220,120.360 386.400,120.800 386.400 C 121.240 386.400,121.600 386.580,121.600 386.800 C 121.600 387.020,122.140 387.200,122.800 387.200 C 123.460 387.200,124.000 387.380,124.000 387.600 C 124.000 387.820,124.360 388.000,124.800 388.000 C 125.240 388.000,125.600 388.180,125.600 388.400 C 125.600 388.620,125.962 388.800,126.405 388.800 C 126.848 388.800,127.523 388.959,127.905 389.153 C 130.249 390.345,134.219 391.600,135.648 391.600 C 136.255 391.600,136.864 391.780,137.000 392.000 C 137.136 392.220,138.587 392.400,140.224 392.400 C 141.941 392.400,143.200 392.231,143.200 392.000 C 143.200 391.780,143.659 391.600,144.220 391.600 C 146.165 391.600,149.600 389.186,149.600 387.818 C 149.600 387.478,149.780 387.200,150.000 387.200 C 150.220 387.200,150.400 386.851,150.400 386.424 C 150.400 385.997,150.580 385.536,150.800 385.400 C 151.057 385.241,151.200 378.529,151.200 366.576 L 151.200 348.000 148.624 348.000 C 147.207 348.000,145.936 348.180,145.800 348.400 C 145.664 348.620,144.494 348.800,143.200 348.800 C 141.906 348.800,140.736 348.980,140.600 349.200 C 140.264 349.743,120.536 349.743,120.200 349.200 C 120.064 348.980,119.063 348.800,117.976 348.800 C 116.889 348.800,116.000 348.620,116.000 348.400 C 116.000 348.180,115.381 348.000,114.624 348.000 C 113.867 348.000,113.136 347.820,113.000 347.600 C 112.864 347.380,112.223 347.200,111.576 347.200 C 110.929 347.200,110.400 347.020,110.400 346.800 C 110.400 346.580,110.102 346.400,109.737 346.400 C 108.883 346.400,100.043 342.031,99.025 341.105 C 98.598 340.717,98.095 340.400,97.907 340.400 C 97.244 340.400,88.800 331.566,88.800 330.872 C 88.800 330.696,88.485 330.202,88.100 329.775 C 87.715 329.349,87.145 328.505,86.832 327.900 C 86.520 327.295,86.115 326.800,85.932 326.800 C 85.750 326.800,85.600 326.530,85.600 326.200 C 85.600 325.870,85.420 325.600,85.200 325.600 C 84.980 325.600,84.800 325.251,84.800 324.824 C 84.800 324.397,84.620 323.936,84.400 323.800 C 84.180 323.664,84.000 323.113,84.000 322.576 C 84.000 322.039,83.820 321.600,83.600 321.600 C 83.380 321.600,83.200 321.240,83.200 320.800 C 83.200 320.360,83.020 320.000,82.800 320.000 C 82.580 320.000,82.400 319.561,82.400 319.024 C 82.400 318.487,82.220 317.936,82.000 317.800 C 81.780 317.664,81.600 317.203,81.600 316.776 C 81.600 316.349,81.420 316.000,81.200 316.000 C 80.980 316.000,80.800 315.655,80.800 315.233 C 80.800 314.812,80.665 314.407,80.500 314.333 C 80.124 314.166,78.825 312.036,78.529 311.100 C 78.407 310.715,78.148 310.400,77.953 310.400 C 77.759 310.400,77.600 310.212,77.600 309.983 C 77.600 309.754,77.240 309.180,76.800 308.708 C 76.360 308.236,76.000 307.613,76.000 307.325 C 76.000 307.036,75.842 306.800,75.649 306.800 C 75.455 306.800,75.089 306.298,74.835 305.685 C 74.581 305.072,73.660 303.790,72.787 302.835 C 71.914 301.880,71.197 300.987,71.194 300.849 C 71.182 300.387,69.010 298.174,67.600 297.188 C 66.830 296.649,65.678 295.712,65.041 295.104 C 64.403 294.497,63.638 294.000,63.341 294.000 C 63.043 294.000,62.800 293.847,62.800 293.661 C 62.800 293.474,62.080 292.997,61.200 292.600 C 60.320 292.203,59.600 291.726,59.600 291.539 C 59.600 291.353,59.240 291.200,58.800 291.200 C 58.360 291.200,58.000 291.025,58.000 290.811 C 58.000 290.596,57.190 289.611,56.200 288.621 C 55.210 287.631,54.400 286.561,54.400 286.244 C 54.400 285.926,54.180 285.593,53.911 285.504 C 53.185 285.262,55.396 283.200,56.382 283.200 C 56.832 283.200,57.200 283.020,57.200 282.800 C 57.200 282.558,58.933 282.400,61.600 282.400 C 64.267 282.400,66.000 282.558,66.000 282.800 C 66.000 283.020,66.542 283.200,67.205 283.200 C 67.868 283.200,68.768 283.380,69.205 283.600 C 69.642 283.820,70.358 284.180,70.795 284.400 C 71.232 284.620,71.952 284.800,72.395 284.800 C 72.838 284.800,73.200 284.980,73.200 285.200 C 73.200 285.420,73.560 285.600,74.000 285.600 C 74.440 285.600,74.800 285.780,74.800 286.000 C 74.800 286.220,74.990 286.400,75.222 286.400 C 76.961 286.400,89.600 297.385,89.600 298.896 C 89.600 299.186,89.960 299.683,90.400 300.000 C 90.840 300.317,91.200 300.897,91.200 301.288 C 91.200 301.680,91.347 302.000,91.526 302.000 C 91.705 302.000,92.154 302.585,92.523 303.300 C 93.488 305.167,94.056 306.003,95.298 307.381 C 95.902 308.052,96.397 308.738,96.398 308.906 C 96.401 309.436,103.163 316.000,103.706 316.000 C 103.991 316.000,104.483 316.360,104.800 316.800 C 105.117 317.240,105.657 317.600,106.000 317.600 C 106.343 317.600,106.883 317.960,107.200 318.400 C 107.517 318.840,108.082 319.200,108.455 319.200 C 108.828 319.200,109.193 319.335,109.267 319.500 C 109.460 319.934,112.773 321.600,113.443 321.600 C 113.755 321.600,114.323 321.758,114.705 321.951 C 116.148 322.680,118.314 323.200,119.905 323.200 C 120.811 323.200,121.664 323.380,121.800 323.600 C 121.947 323.839,124.530 324.000,128.200 324.000 C 131.870 324.000,134.453 323.839,134.600 323.600 C 134.736 323.380,135.816 323.200,137.000 323.200 C 138.184 323.200,139.264 323.020,139.400 322.800 C 139.536 322.580,140.267 322.400,141.024 322.400 C 141.781 322.400,142.400 322.220,142.400 322.000 C 142.400 321.780,142.763 321.600,143.206 321.600 C 144.333 321.600,147.200 320.669,147.200 320.303 C 147.200 320.136,147.740 320.000,148.400 320.000 C 149.060 320.000,149.600 319.820,149.600 319.600 C 149.600 319.380,149.883 319.200,150.229 319.200 C 151.354 319.200,152.000 318.116,152.000 316.229 C 152.000 315.223,152.180 314.400,152.400 314.400 C 152.620 314.400,152.800 313.680,152.800 312.800 C 152.800 311.920,152.980 311.200,153.200 311.200 C 153.420 311.200,153.600 310.660,153.600 310.000 C 153.600 309.340,153.780 308.800,154.000 308.800 C 154.220 308.800,154.400 308.438,154.400 307.995 C 154.400 307.552,154.580 306.832,154.800 306.395 C 155.020 305.958,155.380 305.242,155.600 304.805 C 155.820 304.368,156.000 303.753,156.000 303.439 C 156.000 303.124,156.141 302.807,156.313 302.733 C 156.485 302.660,157.144 301.565,157.778 300.300 C 158.412 299.035,159.081 298.000,159.265 298.000 C 159.449 298.000,159.600 297.720,159.600 297.378 C 159.600 297.036,160.680 295.696,162.000 294.400 C 164.829 291.623,164.935 291.200,162.800 291.200 C 161.920 291.200,161.200 291.020,161.200 290.800 C 161.200 290.571,160.000 290.400,158.400 290.400 C 156.800 290.400,155.600 290.229,155.600 290.000 C 155.600 289.780,154.621 289.600,153.424 289.600 C 152.227 289.600,151.136 289.420,151.000 289.200 C 150.864 288.980,149.773 288.800,148.576 288.800 C 147.379 288.800,146.400 288.620,146.400 288.400 C 146.400 288.180,145.601 288.000,144.624 288.000 C 143.647 288.000,142.736 287.820,142.600 287.600 C 142.464 287.380,141.733 287.200,140.976 287.200 C 140.219 287.200,139.600 287.020,139.600 286.800 C 139.600 286.580,138.981 286.400,138.224 286.400 C 137.467 286.400,136.736 286.220,136.600 286.000 C 136.464 285.780,135.823 285.600,135.176 285.600 C 134.529 285.600,134.000 285.420,134.000 285.200 C 134.000 284.980,133.460 284.800,132.800 284.800 C 132.140 284.800,131.600 284.620,131.600 284.400 C 131.600 284.180,131.060 284.000,130.400 284.000 C 129.740 284.000,129.200 283.820,129.200 283.600 C 129.200 283.380,128.660 283.200,128.000 283.200 C 127.340 283.200,126.800 283.020,126.800 282.800 C 126.800 282.580,126.260 282.400,125.600 282.400 C 124.940 282.400,124.400 282.264,124.400 282.098 C 124.400 281.931,123.815 281.560,123.100 281.271 C 122.385 280.983,121.487 280.579,121.105 280.374 C 120.723 280.168,120.138 280.000,119.805 280.000 C 119.472 280.000,119.200 279.820,119.200 279.600 C 119.200 279.380,118.840 279.200,118.400 279.200 C 117.960 279.200,117.600 279.020,117.600 278.800 C 117.600 278.580,117.240 278.400,116.800 278.400 C 116.360 278.400,116.000 278.220,116.000 278.000 C 116.000 277.780,115.640 277.600,115.200 277.600 C 114.760 277.600,114.400 277.453,114.400 277.274 C 114.400 277.094,113.320 276.431,112.000 275.800 C 110.680 275.169,109.600 274.506,109.600 274.326 C 109.600 274.147,109.280 274.000,108.888 274.000 C 108.497 274.000,107.917 273.640,107.600 273.200 C 107.283 272.760,106.833 272.400,106.600 272.400 C 106.367 272.400,105.917 272.040,105.600 271.600 C 105.283 271.160,104.793 270.800,104.512 270.800 C 104.230 270.800,104.000 270.620,104.000 270.400 C 104.000 270.180,103.823 270.000,103.606 270.000 C 102.673 270.000,90.800 258.195,90.800 257.267 C 90.800 257.079,90.350 256.401,89.800 255.762 C 89.251 255.123,88.801 254.415,88.800 254.188 C 88.800 253.962,88.440 253.517,88.000 253.200 C 87.560 252.883,87.200 252.303,87.200 251.912 C 87.200 251.520,87.020 251.200,86.800 251.200 C 86.580 251.200,86.400 250.964,86.400 250.675 C 86.400 250.387,86.040 249.764,85.600 249.292 C 85.160 248.820,84.800 248.156,84.800 247.817 C 84.800 247.478,84.620 247.200,84.400 247.200 C 84.180 247.200,84.000 246.840,84.000 246.400 C 84.000 245.960,83.820 245.600,83.600 245.600 C 83.380 245.600,83.200 245.240,83.200 244.800 C 83.200 244.360,83.020 244.000,82.800 244.000 C 82.580 244.000,82.400 243.651,82.400 243.224 C 82.400 242.797,82.220 242.336,82.000 242.200 C 81.780 242.064,81.600 241.603,81.600 241.176 C 81.600 240.749,81.420 240.400,81.200 240.400 C 80.980 240.400,80.800 240.040,80.800 239.600 C 80.800 239.160,80.620 238.800,80.400 238.800 C 80.180 238.800,80.000 238.260,80.000 237.600 C 80.000 236.940,79.820 236.400,79.600 236.400 C 79.380 236.400,79.200 235.860,79.200 235.200 C 79.200 234.540,79.020 234.000,78.800 234.000 C 78.580 234.000,78.400 233.460,78.400 232.800 C 78.400 232.140,78.220 231.600,78.000 231.600 C 77.780 231.600,77.600 230.970,77.600 230.200 C 77.600 229.430,77.420 228.800,77.200 228.800 C 76.980 228.800,76.800 228.170,76.800 227.400 C 76.800 226.630,76.620 226.000,76.400 226.000 C 76.180 226.000,76.000 225.190,76.000 224.200 C 76.000 223.210,75.820 222.400,75.600 222.400 C 75.380 222.400,75.196 221.545,75.192 220.500 C 75.188 219.455,74.993 217.430,74.760 216.000 C 73.542 208.528,73.086 191.578,73.926 185.000 C 74.980 176.741,75.365 174.400,75.670 174.400 C 75.852 174.400,76.000 173.860,76.000 173.200 C 76.000 172.540,76.180 172.000,76.400 172.000 C 76.620 172.000,76.800 171.471,76.800 170.824 C 76.800 170.177,76.980 169.536,77.200 169.400 C 77.420 169.264,77.600 168.803,77.600 168.376 C 77.600 167.949,77.780 167.600,78.000 167.600 C 78.220 167.600,78.400 167.060,78.400 166.400 C 78.400 165.740,78.580 165.200,78.800 165.200 C 79.020 165.200,79.200 164.840,79.200 164.400 C 79.200 163.960,79.380 163.600,79.600 163.600 C 79.820 163.600,80.000 163.240,80.000 162.800 C 80.000 162.360,80.180 162.000,80.400 162.000 C 80.620 162.000,80.800 161.640,80.800 161.200 C 80.800 160.760,80.980 160.400,81.200 160.400 C 81.420 160.400,81.600 160.040,81.600 159.600 C 81.600 159.160,81.746 158.800,81.925 158.800 C 82.104 158.800,82.498 158.170,82.800 157.400 C 83.102 156.630,83.496 156.000,83.675 156.000 C 83.854 156.000,84.000 155.730,84.000 155.400 C 84.000 155.070,84.180 154.800,84.400 154.800 C 84.620 154.800,84.800 154.530,84.800 154.200 C 84.800 153.870,84.980 153.600,85.200 153.600 C 85.420 153.600,85.600 153.375,85.601 153.100 C 85.601 152.825,86.141 151.970,86.800 151.200 C 87.459 150.430,87.999 149.663,87.999 149.496 C 88.000 149.329,88.558 148.609,89.240 147.896 C 89.923 147.183,90.759 146.060,91.100 145.400 C 91.440 144.740,92.052 143.909,92.459 143.553 C 93.256 142.857,93.537 139.600,92.800 139.600 C 92.580 139.600,92.400 139.060,92.400 138.400 C 92.400 137.740,92.256 137.200,92.079 137.200 C 91.771 137.200,91.253 134.430,90.357 128.000 C 89.733 123.522,89.485 114.373,89.961 113.416 C 90.184 112.967,90.447 111.520,90.546 110.200 C 90.861 105.985,91.729 100.400,92.070 100.400 C 92.252 100.400,92.400 99.860,92.400 99.200 C 92.400 98.540,92.580 98.000,92.800 98.000 C 93.020 98.000,93.200 97.471,93.200 96.824 C 93.200 96.177,93.380 95.536,93.600 95.400 C 93.820 95.264,94.000 94.713,94.000 94.176 C 94.000 93.639,94.180 93.200,94.400 93.200 C 94.620 93.200,94.800 92.663,94.800 92.008 C 94.800 91.090,95.016 90.761,95.738 90.580 C 97.956 90.023,111.200 91.288,111.200 92.057 C 111.200 92.246,111.729 92.400,112.376 92.400 C 113.023 92.400,113.664 92.580,113.800 92.800 C 113.936 93.020,114.476 93.200,115.000 93.200 C 115.524 93.200,116.064 93.380,116.200 93.600 C 116.336 93.820,116.887 94.000,117.424 94.000 C 117.961 94.000,118.400 94.180,118.400 94.400 C 118.400 94.620,118.940 94.800,119.600 94.800 C 120.260 94.800,120.800 94.980,120.800 95.200 C 120.800 95.420,121.160 95.600,121.600 95.600 C 122.040 95.600,122.400 95.780,122.400 96.000 C 122.400 96.220,122.724 96.400,123.120 96.400 C 124.014 96.400,125.993 97.294,125.997 97.700 C 125.999 97.865,126.360 98.000,126.800 98.000 C 127.240 98.000,127.600 98.180,127.600 98.400 C 127.600 98.620,127.960 98.800,128.400 98.800 C 128.840 98.800,129.200 98.980,129.200 99.200 C 129.200 99.420,129.560 99.600,130.000 99.600 C 130.440 99.600,130.800 99.780,130.800 100.000 C 130.800 100.220,131.160 100.400,131.600 100.400 C 132.040 100.400,132.400 100.580,132.400 100.800 C 132.400 101.020,132.760 101.200,133.200 101.200 C 133.640 101.200,134.000 101.380,134.000 101.600 C 134.000 101.820,134.278 102.000,134.617 102.000 C 134.956 102.000,135.620 102.360,136.092 102.800 C 136.564 103.240,137.187 103.600,137.475 103.600 C 137.764 103.600,138.000 103.780,138.000 104.000 C 138.000 104.220,138.345 104.400,138.767 104.400 C 139.188 104.400,139.593 104.535,139.667 104.700 C 139.858 105.130,144.635 108.000,145.160 108.000 C 145.402 108.000,145.600 108.180,145.600 108.400 C 145.600 108.620,145.870 108.800,146.200 108.800 C 146.530 108.800,146.800 108.980,146.800 109.200 C 146.800 109.420,147.070 109.600,147.400 109.600 C 147.730 109.600,148.000 109.780,148.000 110.000 C 148.000 110.222,149.067 110.400,150.400 110.400 C 151.733 110.400,152.800 110.222,152.800 110.000 C 152.800 109.780,153.520 109.600,154.400 109.600 C 155.280 109.600,156.000 109.420,156.000 109.200 C 156.000 108.980,156.774 108.800,157.720 108.800 C 158.666 108.800,159.611 108.635,159.820 108.433 C 160.029 108.231,161.820 107.866,163.800 107.621 C 165.780 107.376,168.480 106.994,169.800 106.772 C 174.408 105.997,178.228 105.551,182.000 105.350 C 184.090 105.238,185.971 104.979,186.180 104.773 C 186.709 104.253,212.678 104.279,213.000 104.800 C 213.137 105.022,214.977 105.200,217.144 105.200 C 219.287 105.200,221.211 105.366,221.420 105.569 C 221.629 105.772,223.060 106.032,224.600 106.146 C 227.611 106.371,230.409 106.766,236.400 107.813 C 238.490 108.179,240.965 108.568,241.900 108.679 C 242.835 108.790,243.600 109.042,243.600 109.240 C 243.600 109.438,244.230 109.600,245.000 109.600 C 245.770 109.600,246.400 109.780,246.400 110.000 C 246.400 110.222,247.467 110.400,248.800 110.400 C 250.133 110.400,251.200 110.222,251.200 110.000 C 251.200 109.780,251.560 109.600,252.000 109.600 C 252.440 109.600,252.800 109.450,252.800 109.268 C 252.800 109.085,253.295 108.686,253.900 108.383 C 254.505 108.079,256.221 107.058,257.712 106.115 C 259.204 105.172,260.599 104.400,260.812 104.400 C 261.026 104.400,261.200 104.220,261.200 104.000 C 261.200 103.780,261.560 103.600,262.000 103.600 C 262.440 103.600,262.803 103.465,262.806 103.300 C 262.810 103.135,263.710 102.560,264.806 102.021 C 265.903 101.483,266.800 100.898,266.800 100.721 C 266.800 100.545,267.160 100.400,267.600 100.400 C 268.040 100.400,268.400 100.220,268.400 100.000 C 268.400 99.780,268.760 99.600,269.200 99.600 C 269.640 99.600,270.000 99.420,270.000 99.200 C 270.000 98.980,270.360 98.800,270.800 98.800 C 271.240 98.800,271.600 98.620,271.600 98.400 C 271.600 98.180,271.949 98.000,272.376 98.000 C 272.803 98.000,273.264 97.820,273.400 97.600 C 273.536 97.380,273.997 97.200,274.424 97.200 C 274.851 97.200,275.200 97.020,275.200 96.800 C 275.200 96.580,275.560 96.400,276.000 96.400 C 276.440 96.400,276.800 96.220,276.800 96.000 C 276.800 95.780,277.160 95.600,277.600 95.600 C 278.040 95.600,278.400 95.420,278.400 95.200 C 278.400 94.980,278.940 94.800,279.600 94.800 C 280.260 94.800,280.800 94.620,280.800 94.400 C 280.800 94.180,281.340 94.000,282.000 94.000 C 282.660 94.000,283.200 93.820,283.200 93.600 C 283.200 93.380,283.639 93.200,284.176 93.200 C 284.713 93.200,285.264 93.020,285.400 92.800 C 285.536 92.580,286.177 92.400,286.824 92.400 C 287.471 92.400,288.000 92.246,288.000 92.057 C 288.000 91.288,301.244 90.023,303.462 90.580 C 304.184 90.761,304.400 91.090,304.400 92.008 C 304.400 92.663,304.580 93.200,304.800 93.200 C 305.020 93.200,305.200 93.639,305.200 94.176 C 305.200 94.713,305.380 95.264,305.600 95.400 C 305.820 95.536,306.000 96.177,306.000 96.824 C 306.000 97.471,306.180 98.000,306.400 98.000 C 306.620 98.000,306.800 98.540,306.800 99.200 C 306.800 99.860,306.980 100.400,307.200 100.400 C 307.420 100.400,307.600 101.210,307.600 102.200 C 307.600 103.190,307.754 104.000,307.943 104.000 C 308.483 104.000,309.311 113.232,309.325 119.400 C 309.339 125.374,308.487 134.800,307.934 134.800 C 307.750 134.800,307.600 135.340,307.600 136.000 C 307.600 136.660,307.420 137.200,307.200 137.200 C 306.980 137.200,306.800 137.740,306.800 138.400 C 306.800 139.060,306.620 139.600,306.400 139.600 C 305.371 139.600,306.004 142.831,307.300 144.192 C 309.032 146.010,309.399 146.475,310.009 147.625 C 310.293 148.161,310.814 148.870,311.166 149.200 C 311.517 149.530,312.060 150.295,312.370 150.900 C 312.681 151.505,313.085 152.000,313.268 152.000 C 313.450 152.000,313.600 152.236,313.600 152.525 C 313.600 152.813,313.915 153.398,314.300 153.825 C 314.685 154.251,315.254 155.092,315.564 155.693 C 315.874 156.295,316.459 157.142,316.864 157.577 C 317.269 158.011,317.600 158.644,317.600 158.983 C 317.600 159.322,317.780 159.600,318.000 159.600 C 318.220 159.600,318.400 159.960,318.400 160.400 C 318.400 160.840,318.580 161.200,318.800 161.200 C 319.020 161.200,319.200 161.560,319.200 162.000 C 319.200 162.440,319.380 162.800,319.600 162.800 C 319.820 162.800,320.000 163.340,320.000 164.000 C 320.000 164.660,320.180 165.200,320.400 165.200 C 320.620 165.200,320.800 165.560,320.800 166.000 C 320.800 166.440,320.980 166.800,321.200 166.800 C 321.420 166.800,321.600 167.340,321.600 168.000 C 321.600 168.660,321.780 169.200,322.000 169.200 C 322.220 169.200,322.400 169.740,322.400 170.400 C 322.400 171.060,322.580 171.600,322.800 171.600 C 323.020 171.600,323.200 172.140,323.200 172.800 C 323.200 173.460,323.380 174.000,323.600 174.000 C 323.820 174.000,324.000 174.630,324.000 175.400 C 324.000 176.170,324.147 176.800,324.326 176.800 C 325.031 176.800,325.772 186.879,325.767 196.400 C 325.762 206.139,324.933 219.200,324.320 219.200 C 324.144 219.200,324.000 220.100,324.000 221.200 C 324.000 222.300,323.820 223.200,323.600 223.200 C 323.380 223.200,323.200 223.920,323.200 224.800 C 323.200 225.680,323.020 226.400,322.800 226.400 C 322.580 226.400,322.400 227.019,322.400 227.776 C 322.400 228.533,322.220 229.264,322.000 229.400 C 321.780 229.536,321.600 230.267,321.600 231.024 C 321.600 231.781,321.420 232.400,321.200 232.400 C 320.980 232.400,320.800 232.940,320.800 233.600 C 320.800 234.260,320.620 234.800,320.400 234.800 C 320.180 234.800,320.000 235.340,320.000 236.000 C 320.000 236.660,319.820 237.200,319.600 237.200 C 319.380 237.200,319.200 237.560,319.200 238.000 C 319.200 238.440,319.020 238.800,318.800 238.800 C 318.580 238.800,318.400 239.340,318.400 240.000 C 318.400 240.660,318.220 241.200,318.000 241.200 C 317.780 241.200,317.600 241.560,317.600 242.000 C 317.600 242.440,317.465 242.801,317.300 242.801 C 317.135 242.802,316.550 243.792,316.000 245.000 C 315.450 246.208,314.865 247.198,314.700 247.199 C 314.535 247.199,314.400 247.560,314.400 248.000 C 314.400 248.440,314.220 248.800,314.000 248.800 C 313.780 248.800,313.600 249.078,313.600 249.417 C 313.600 249.756,313.240 250.420,312.800 250.892 C 312.360 251.364,312.000 251.987,312.000 252.275 C 312.000 252.564,311.842 252.800,311.649 252.800 C 311.455 252.800,311.073 253.340,310.800 254.000 C 310.527 254.660,310.167 255.200,310.000 255.200 C 309.833 255.200,309.461 255.769,309.173 256.465 C 308.885 257.161,307.873 258.506,306.925 259.454 C 305.976 260.403,305.200 261.277,305.200 261.397 C 305.200 261.783,300.246 266.576,298.800 267.589 C 298.030 268.128,296.923 269.071,296.340 269.685 C 295.756 270.298,295.081 270.800,294.840 270.800 C 294.598 270.800,294.400 270.980,294.400 271.200 C 294.400 271.420,294.170 271.600,293.888 271.600 C 293.607 271.600,293.117 271.960,292.800 272.400 C 292.483 272.840,291.993 273.200,291.712 273.200 C 291.430 273.200,291.200 273.348,291.200 273.529 C 291.200 273.710,289.805 274.553,288.100 275.402 C 286.395 276.251,284.940 277.093,284.867 277.273 C 284.793 277.453,284.388 277.600,283.967 277.600 C 283.545 277.600,283.200 277.780,283.200 278.000 C 283.200 278.220,282.840 278.400,282.400 278.400 C 281.960 278.400,281.600 278.580,281.600 278.800 C 281.600 279.020,281.240 279.200,280.800 279.200 C 280.360 279.200,280.000 279.380,280.000 279.600 C 280.000 279.820,279.651 280.000,279.224 280.000 C 278.797 280.000,278.336 280.180,278.200 280.400 C 278.064 280.620,277.603 280.800,277.176 280.800 C 276.749 280.800,276.400 280.980,276.400 281.200 C 276.400 281.420,276.051 281.600,275.624 281.600 C 275.197 281.600,274.736 281.780,274.600 282.000 C 274.464 282.220,273.913 282.400,273.376 282.400 C 272.839 282.400,272.400 282.580,272.400 282.800 C 272.400 283.020,271.860 283.200,271.200 283.200 C 270.540 283.200,270.000 283.380,270.000 283.600 C 270.000 283.820,269.460 284.000,268.800 284.000 C 268.140 284.000,267.600 284.180,267.600 284.400 C 267.600 284.620,267.060 284.800,266.400 284.800 C 265.740 284.800,265.200 284.980,265.200 285.200 C 265.200 285.420,264.581 285.600,263.824 285.600 C 263.067 285.600,262.336 285.780,262.200 286.000 C 262.064 286.220,261.333 286.400,260.576 286.400 C 259.819 286.400,259.200 286.580,259.200 286.800 C 259.200 287.020,258.480 287.200,257.600 287.200 C 256.720 287.200,256.000 287.380,256.000 287.600 C 256.000 287.820,255.100 288.000,254.000 288.000 C 252.900 288.000,252.000 288.180,252.000 288.400 C 252.000 288.620,251.021 288.800,249.824 288.800 C 248.627 288.800,247.536 288.980,247.400 289.200 C 247.264 289.420,246.173 289.600,244.976 289.600 C 243.779 289.600,242.800 289.780,242.800 290.000 C 242.800 290.233,241.467 290.400,239.600 290.400 C 237.733 290.400,236.400 290.567,236.400 290.800 C 236.400 291.020,236.040 291.200,235.600 291.200 C 234.274 291.200,234.667 291.907,237.600 294.800 C 239.140 296.319,240.400 297.758,240.400 297.997 C 240.400 298.237,240.760 298.820,241.200 299.292 C 241.640 299.764,242.001 300.342,242.001 300.575 C 242.002 300.809,242.632 302.250,243.401 303.777 C 244.171 305.304,244.800 306.879,244.800 307.277 C 244.800 307.675,244.980 308.000,245.200 308.000 C 245.420 308.000,245.600 308.540,245.600 309.200 C 245.600 309.860,245.780 310.400,246.000 310.400 C 246.220 310.400,246.400 311.120,246.400 312.000 C 246.400 312.880,246.580 313.600,246.800 313.600 C 247.020 313.600,247.200 314.500,247.200 315.600 C 247.200 316.700,247.369 317.600,247.576 317.600 C 247.957 317.600,248.423 324.880,248.396 330.400 C 248.388 332.050,248.291 344.816,248.179 358.768 C 248.043 375.890,248.111 384.271,248.388 384.548 C 248.615 384.775,248.800 385.286,248.800 385.685 C 248.800 387.009,251.269 390.400,252.233 390.400 C 252.508 390.400,252.805 390.614,252.892 390.876 C 252.986 391.157,254.150 391.423,255.725 391.523 C 257.196 391.617,258.400 391.852,258.400 392.047 C 258.400 392.241,258.850 392.400,259.400 392.400 C 259.950 392.400,260.400 392.220,260.400 392.000 C 260.400 391.780,261.189 391.600,262.154 391.600 C 263.836 391.600,267.436 390.726,268.895 389.963 C 269.277 389.763,269.856 389.600,270.182 389.600 C 270.509 389.600,271.417 389.240,272.200 388.800 C 272.983 388.360,273.979 388.000,274.412 388.000 C 274.845 388.000,275.200 387.820,275.200 387.600 C 275.200 387.380,275.639 387.200,276.176 387.200 C 276.713 387.200,277.264 387.020,277.400 386.800 C 277.536 386.580,277.997 386.400,278.424 386.400 C 278.851 386.400,279.200 386.220,279.200 386.000 C 279.200 385.780,279.560 385.600,280.000 385.600 C 280.440 385.600,280.800 385.420,280.800 385.200 C 280.800 384.980,281.239 384.800,281.776 384.800 C 282.313 384.800,282.864 384.620,283.000 384.400 C 283.136 384.180,283.597 384.000,284.024 384.000 C 284.451 384.000,284.800 383.820,284.800 383.600 C 284.800 383.380,285.160 383.200,285.600 383.200 C 286.040 383.200,286.400 383.020,286.400 382.800 C 286.400 382.580,286.760 382.400,287.200 382.400 C 287.640 382.400,288.000 382.220,288.000 382.000 C 288.000 381.780,288.360 381.600,288.800 381.600 C 289.240 381.600,289.600 381.420,289.600 381.200 C 289.600 380.980,289.960 380.800,290.400 380.800 C 290.840 380.800,291.200 380.620,291.200 380.400 C 291.200 380.180,291.470 380.000,291.800 380.000 C 292.130 380.000,292.400 379.820,292.400 379.600 C 292.400 379.380,292.760 379.200,293.200 379.200 C 293.640 379.200,294.000 379.020,294.000 378.800 C 294.000 378.580,294.360 378.400,294.800 378.400 C 295.240 378.400,295.600 378.220,295.600 378.000 C 295.600 377.780,295.960 377.600,296.400 377.600 C 296.840 377.600,297.200 377.420,297.200 377.200 C 297.200 376.980,297.560 376.800,298.000 376.800 C 298.440 376.800,298.800 376.620,298.800 376.400 C 298.800 376.180,299.145 376.000,299.567 376.000 C 299.988 376.000,300.393 375.842,300.467 375.650 C 300.540 375.457,301.680 374.743,303.000 374.061 C 306.401 372.306,307.703 371.502,308.446 370.700 C 308.802 370.315,309.388 370.000,309.747 370.000 C 310.106 370.000,310.400 369.842,310.400 369.649 C 310.400 369.455,310.940 369.073,311.600 368.800 C 312.260 368.527,312.800 368.145,312.800 367.951 C 312.800 367.758,313.025 367.600,313.300 367.599 C 313.575 367.599,314.430 367.059,315.200 366.400 C 315.970 365.741,316.785 365.201,317.012 365.201 C 317.238 365.200,317.683 364.840,318.000 364.400 C 318.317 363.960,318.825 363.600,319.128 363.600 C 319.431 363.600,320.183 363.060,320.800 362.400 C 321.417 361.740,322.103 361.200,322.327 361.200 C 322.550 361.200,323.242 360.660,323.865 360.000 C 324.488 359.340,325.141 358.800,325.316 358.800 C 325.647 358.800,325.995 358.533,328.051 356.700 C 328.729 356.095,329.442 355.600,329.634 355.600 C 329.826 355.600,330.932 354.653,332.091 353.495 C 333.251 352.338,334.830 350.951,335.600 350.414 C 336.370 349.876,337.990 348.376,339.200 347.081 C 340.410 345.785,342.171 343.977,343.114 343.062 C 348.499 337.838,352.000 334.241,352.000 333.931 C 352.000 333.737,352.807 332.772,353.793 331.786 C 354.780 330.799,355.903 329.499,356.290 328.896 C 357.177 327.514,357.578 326.998,358.700 325.799 C 359.195 325.270,359.600 324.737,359.600 324.615 C 359.600 324.493,360.140 323.828,360.800 323.137 C 361.460 322.446,362.000 321.726,362.000 321.537 C 362.000 321.348,362.540 320.628,363.200 319.937 C 363.860 319.246,364.400 318.478,364.400 318.229 C 364.400 317.980,364.760 317.517,365.200 317.200 C 365.640 316.883,366.000 316.343,366.000 316.000 C 366.000 315.657,366.360 315.117,366.800 314.800 C 367.240 314.483,367.600 313.943,367.600 313.600 C 367.600 313.257,367.960 312.717,368.400 312.400 C 368.840 312.083,369.200 311.543,369.200 311.200 C 369.200 310.857,369.560 310.317,370.000 310.000 C 370.440 309.683,370.800 309.186,370.800 308.895 C 370.800 308.604,371.131 308.011,371.536 307.577 C 371.941 307.142,372.526 306.295,372.836 305.693 C 373.146 305.092,373.805 303.990,374.300 303.244 C 374.795 302.498,375.200 301.553,375.200 301.144 C 375.200 300.735,375.380 300.400,375.600 300.400 C 375.820 300.400,376.000 300.080,376.000 299.688 C 376.000 299.297,376.360 298.717,376.800 298.400 C 377.240 298.083,377.600 297.503,377.600 297.112 C 377.600 296.720,377.780 296.400,378.000 296.400 C 378.220 296.400,378.400 296.040,378.400 295.600 C 378.400 295.160,378.580 294.800,378.800 294.800 C 379.020 294.800,379.200 294.440,379.200 294.000 C 379.200 293.560,379.380 293.200,379.600 293.200 C 379.820 293.200,380.000 292.855,380.000 292.433 C 380.000 292.012,380.135 291.607,380.300 291.533 C 380.795 291.313,383.200 286.346,383.200 285.544 C 383.200 285.135,383.380 284.800,383.600 284.800 C 383.820 284.800,384.000 284.440,384.000 284.000 C 384.000 283.560,384.180 283.200,384.400 283.200 C 384.620 283.200,384.800 282.840,384.800 282.400 C 384.800 281.960,384.980 281.600,385.200 281.600 C 385.420 281.600,385.600 281.251,385.600 280.824 C 385.600 280.397,385.780 279.936,386.000 279.800 C 386.220 279.664,386.400 279.113,386.400 278.576 C 386.400 278.039,386.580 277.600,386.800 277.600 C 387.020 277.600,387.200 277.328,387.200 276.995 C 387.200 276.662,387.380 276.032,387.600 275.595 C 387.820 275.158,388.180 274.442,388.400 274.005 C 388.620 273.568,388.800 272.936,388.800 272.600 C 388.800 272.264,388.959 271.677,389.153 271.295 C 390.345 268.951,391.600 264.981,391.600 263.552 C 391.600 262.945,391.780 262.336,392.000 262.200 C 392.220 262.064,392.400 261.423,392.400 260.776 C 392.400 260.129,392.580 259.600,392.800 259.600 C 393.020 259.600,393.200 259.060,393.200 258.400 C 393.200 257.740,393.380 257.200,393.600 257.200 C 393.820 257.200,394.000 256.570,394.000 255.800 C 394.000 255.030,394.180 254.400,394.400 254.400 C 394.620 254.400,394.800 253.680,394.800 252.800 C 394.800 251.920,394.980 251.200,395.200 251.200 C 395.420 251.200,395.600 250.491,395.600 249.624 C 395.600 248.757,395.780 247.936,396.000 247.800 C 396.220 247.664,396.400 246.753,396.400 245.776 C 396.400 244.799,396.580 244.000,396.800 244.000 C 397.020 244.000,397.200 243.100,397.200 242.000 C 397.200 240.900,397.380 240.000,397.600 240.000 C 397.820 240.000,398.000 239.021,398.000 237.824 C 398.000 236.627,398.180 235.536,398.400 235.400 C 398.620 235.264,398.800 234.008,398.800 232.610 C 398.800 230.931,398.970 230.010,399.300 229.900 C 400.032 229.656,400.032 180.344,399.300 180.100 C 398.965 179.988,398.800 179.029,398.800 177.190 C 398.800 175.682,398.620 174.336,398.400 174.200 C 398.180 174.064,398.000 173.074,398.000 172.000 C 398.000 170.926,397.820 169.936,397.600 169.800 C 397.380 169.664,397.200 168.674,397.200 167.600 C 397.200 166.526,397.020 165.536,396.800 165.400 C 396.580 165.264,396.400 164.443,396.400 163.576 C 396.400 162.709,396.220 162.000,396.000 162.000 C 395.780 162.000,395.600 161.190,395.600 160.200 C 395.600 159.210,395.420 158.400,395.200 158.400 C 394.980 158.400,394.800 157.680,394.800 156.800 C 394.800 155.920,394.620 155.200,394.400 155.200 C 394.180 155.200,394.000 154.660,394.000 154.000 C 394.000 153.340,393.820 152.800,393.600 152.800 C 393.380 152.800,393.200 152.080,393.200 151.200 C 393.200 150.320,393.020 149.600,392.800 149.600 C 392.580 149.600,392.400 149.060,392.400 148.400 C 392.400 147.740,392.259 147.200,392.086 147.200 C 391.913 147.200,391.549 146.165,391.276 144.900 C 391.003 143.635,390.674 142.105,390.545 141.500 C 390.415 140.895,390.150 140.400,389.955 140.400 C 389.760 140.400,389.600 139.860,389.600 139.200 C 389.600 138.540,389.420 138.000,389.200 138.000 C 388.980 138.000,388.800 137.561,388.800 137.024 C 388.800 136.487,388.620 135.936,388.400 135.800 C 388.180 135.664,388.000 135.203,388.000 134.776 C 388.000 134.349,387.820 134.000,387.600 134.000 C 387.380 134.000,387.200 133.561,387.200 133.024 C 387.200 132.487,387.020 131.936,386.800 131.800 C 386.580 131.664,386.400 131.203,386.400 130.776 C 386.400 130.349,386.220 130.000,386.000 130.000 C 385.780 130.000,385.600 129.550,385.600 129.000 C 385.600 128.450,385.420 128.000,385.200 128.000 C 384.980 128.000,384.800 127.766,384.800 127.480 C 384.800 126.744,383.859 124.807,383.500 124.803 C 383.335 124.801,383.200 124.440,383.200 124.000 C 383.200 123.560,383.020 123.200,382.800 123.200 C 382.580 123.200,382.400 122.928,382.400 122.595 C 382.400 122.007,382.233 121.582,381.262 119.705 C 381.008 119.213,380.800 118.553,380.800 118.239 C 380.800 117.924,380.665 117.607,380.500 117.533 C 380.230 117.413,379.022 115.311,377.840 112.903 C 377.598 112.410,377.265 112.005,377.100 112.003 C 376.935 112.001,376.800 111.640,376.800 111.200 C 376.800 110.760,376.620 110.400,376.400 110.400 C 376.180 110.400,376.000 110.130,376.000 109.800 C 376.000 109.470,375.820 109.200,375.600 109.200 C 375.380 109.200,375.200 108.851,375.200 108.424 C 375.200 107.997,375.032 107.543,374.826 107.416 C 374.620 107.289,373.969 106.198,373.379 104.992 C 372.789 103.787,372.147 102.800,371.953 102.800 C 371.759 102.800,371.600 102.440,371.600 102.000 C 371.600 101.560,371.442 101.200,371.249 101.200 C 371.055 101.200,370.673 100.660,370.400 100.000 C 370.127 99.340,369.745 98.800,369.551 98.800 C 369.358 98.800,369.200 98.564,369.200 98.275 C 369.200 97.987,368.840 97.364,368.400 96.892 C 367.960 96.420,367.600 95.891,367.600 95.717 C 367.599 95.402,366.513 94.020,364.597 91.893 C 364.049 91.284,363.600 90.608,363.600 90.389 C 363.600 90.171,363.060 89.428,362.400 88.737 C 361.740 88.046,361.200 87.310,361.200 87.101 C 361.200 86.892,360.660 86.217,360.000 85.600 C 359.340 84.983,358.800 84.268,358.800 84.011 C 358.800 83.753,358.575 83.318,358.300 83.042 C 358.025 82.767,357.260 81.846,356.600 80.996 C 354.726 78.582,352.703 76.312,351.500 75.277 C 350.895 74.755,350.400 74.161,350.400 73.957 C 350.400 73.421,335.335 58.400,334.798 58.400 C 334.550 58.400,333.471 57.500,332.400 56.400 C 331.329 55.300,330.256 54.400,330.015 54.400 C 329.775 54.400,328.769 53.590,327.779 52.600 C 326.789 51.610,325.822 50.800,325.629 50.800 C 325.437 50.800,324.650 50.170,323.880 49.400 C 323.110 48.630,322.364 48.000,322.222 48.000 C 322.080 48.000,321.514 47.550,320.964 47.000 C 320.414 46.450,319.820 46.000,319.644 46.000 C 319.468 46.000,318.801 45.550,318.162 45.000 C 317.523 44.451,316.775 44.001,316.500 44.000 C 316.225 44.000,316.000 43.841,316.000 43.646 C 316.000 43.451,315.336 42.976,314.525 42.591 C 313.714 42.206,312.690 41.556,312.249 41.146 C 311.809 40.736,311.213 40.400,310.925 40.400 C 310.636 40.400,310.400 40.220,310.400 40.000 C 310.400 39.780,310.080 39.600,309.688 39.600 C 309.297 39.600,308.717 39.240,308.400 38.800 C 308.083 38.360,307.593 38.000,307.312 38.000 C 307.030 38.000,306.800 37.820,306.800 37.600 C 306.800 37.380,306.530 37.200,306.200 37.200 C 305.870 37.200,305.600 37.020,305.600 36.800 C 305.600 36.580,305.330 36.400,305.000 36.400 C 304.670 36.400,304.400 36.220,304.400 36.000 C 304.400 35.780,304.040 35.600,303.600 35.600 C 303.160 35.600,302.800 35.420,302.800 35.200 C 302.800 34.980,302.522 34.800,302.183 34.800 C 301.844 34.800,301.180 34.440,300.708 34.000 C 300.236 33.560,299.613 33.200,299.325 33.200 C 299.036 33.200,298.800 33.020,298.800 32.800 C 298.800 32.580,298.440 32.400,298.000 32.400 C 297.560 32.400,297.200 32.220,297.200 32.000 C 297.200 31.780,296.840 31.600,296.400 31.600 C 295.960 31.600,295.600 31.420,295.600 31.200 C 295.600 30.980,295.240 30.800,294.800 30.800 C 294.360 30.800,294.000 30.620,294.000 30.400 C 294.000 30.180,293.655 30.000,293.233 30.000 C 292.812 30.000,292.407 29.856,292.333 29.679 C 292.144 29.222,282.986 24.800,282.229 24.800 C 281.883 24.800,281.600 24.620,281.600 24.400 C 281.600 24.180,281.060 24.000,280.400 24.000 C 279.740 24.000,279.200 23.820,279.200 23.600 C 279.200 23.380,278.840 23.200,278.400 23.200 C 277.960 23.200,277.600 23.020,277.600 22.800 C 277.600 22.580,277.060 22.400,276.400 22.400 C 275.740 22.400,275.199 22.265,275.197 22.100 C 275.193 21.694,273.214 20.800,272.320 20.800 C 271.924 20.800,271.600 20.620,271.600 20.400 C 271.600 20.180,271.238 20.000,270.795 20.000 C 270.017 20.000,269.631 19.858,267.705 18.862 C 267.213 18.608,266.448 18.400,266.005 18.400 C 265.562 18.400,265.200 18.220,265.200 18.000 C 265.200 17.780,264.660 17.600,264.000 17.600 C 263.340 17.600,262.800 17.440,262.800 17.244 C 262.800 17.048,262.170 16.778,261.400 16.644 C 260.630 16.510,259.370 16.290,258.600 16.156 C 257.830 16.022,257.200 15.752,257.200 15.556 C 257.200 15.360,256.660 15.200,256.000 15.200 C 255.340 15.200,254.800 15.020,254.800 14.800 C 254.800 14.580,254.181 14.400,253.424 14.400 C 252.667 14.400,251.936 14.220,251.800 14.000 C 251.664 13.780,250.944 13.600,250.200 13.600 C 249.456 13.600,248.748 13.439,248.626 13.242 C 248.414 12.900,247.593 12.724,243.600 12.169 C 242.610 12.031,241.629 11.756,241.420 11.559 C 241.211 11.362,240.302 11.200,239.400 11.200 C 238.498 11.200,237.589 11.037,237.380 10.837 C 237.171 10.637,236.100 10.372,235.000 10.248 C 233.900 10.124,231.740 9.848,230.200 9.634 C 224.088 8.788,219.984 8.456,215.300 8.428 C 212.319 8.411,210.400 8.243,210.400 8.000 C 210.400 7.744,206.667 7.600,200.000 7.600 C 193.333 7.600,189.600 7.744,189.600 8.000 " stroke="none" fill="#ffffff" fill-rule="evenodd"></path><path id="path1" d="" stroke="none" fill="#ffffff" fill-rule="evenodd"></path><path id="path2" d="" stroke="none" fill="#ffffff" fill-rule="evenodd"></path><path id="path3" d="" stroke="none" fill="#ffffff" fill-rule="evenodd"></path><path id="path4" d="" stroke="none" fill="#ffffff" fill-rule="evenodd"></path></g></svg>