<svg id="svg" xmlns="http://www.w3.org/2000/svg" xmlns:xlink="http://www.w3.org/1999/xlink" width="400" height="400" viewBox="0, 0, 400,400"><g id="svgg"><path id="path0" d="M189.972 14.103 C 179.391 15.999,170.367 20.056,162.109 26.629 C 150.286 36.040,3.432 184.616,1.595 189.025 C -4.892 204.596,6.226 221.348,23.047 221.348 C 33.464 221.348,28.035 226.190,114.844 139.480 C 185.233 69.172,193.703 60.964,196.680 60.184 C 204.331 58.180,198.785 53.213,285.156 139.432 C 328.340 182.540,364.734 218.341,366.031 218.989 C 381.544 226.735,398.901 216.726,399.841 199.494 C 400.451 188.295,400.889 188.877,364.409 152.322 L 332.813 120.660 332.813 83.797 C 332.813 48.866,332.731 46.715,331.252 42.764 C 325.580 27.604,305.042 23.377,293.400 34.974 C 287.546 40.805,287.140 42.311,286.853 59.276 L 286.597 74.411 262.244 50.247 C 233.838 22.062,230.670 19.682,216.046 15.546 C 209.653 13.739,196.172 12.993,189.972 14.103 M194.922 103.849 C 194.063 104.240,162.360 135.613,124.471 173.569 L 55.583 242.578 55.079 246.875 C 53.816 257.643,55.086 351.761,56.556 356.250 C 61.553 371.521,73.270 382.435,88.025 385.561 C 92.219 386.450,100.836 386.695,128.320 386.705 L 163.281 386.719 163.281 335.547 L 163.281 284.375 200.000 284.375 L 236.719 284.375 236.719 335.547 L 236.719 386.719 271.680 386.705 C 299.164 386.695,307.781 386.450,311.975 385.561 C 326.730 382.435,338.447 371.521,343.444 356.250 C 344.913 351.761,346.184 257.648,344.922 246.875 L 344.418 242.578 275.001 173.101 L 205.584 103.624 201.034 103.382 C 198.532 103.249,195.781 103.459,194.922 103.849 " stroke="none" fill="#000000" fill-rule="evenodd"></path></g></svg>