<svg id="svg" xmlns="http://www.w3.org/2000/svg" xmlns:xlink="http://www.w3.org/1999/xlink" width="400" height="400" viewBox="0, 0, 400,400" version="1.1"><g id="svgg"><path id="path0" d="M182.400 4.800 C 182.400 5.039,180.867 5.200,178.600 5.200 C 176.333 5.200,174.800 5.361,174.800 5.600 C 174.800 5.829,173.600 6.000,172.000 6.000 C 170.400 6.000,169.200 6.171,169.200 6.400 C 169.200 6.622,168.133 6.800,166.800 6.800 C 165.467 6.800,164.400 6.978,164.400 7.200 C 164.400 7.420,163.678 7.600,162.795 7.600 C 161.912 7.600,160.877 7.764,160.495 7.964 C 160.113 8.164,158.450 8.530,156.800 8.777 C 155.150 9.024,153.124 9.330,152.297 9.456 C 151.471 9.582,150.695 9.845,150.574 10.042 C 150.452 10.239,149.744 10.400,149.000 10.400 C 148.256 10.400,147.536 10.580,147.400 10.800 C 147.264 11.020,146.634 11.200,146.000 11.200 C 145.366 11.200,144.736 11.380,144.600 11.600 C 144.464 11.820,143.823 12.000,143.176 12.000 C 142.529 12.000,142.000 12.180,142.000 12.400 C 142.000 12.620,141.460 12.800,140.800 12.800 C 140.140 12.800,139.600 12.980,139.600 13.200 C 139.600 13.420,139.060 13.600,138.400 13.600 C 137.740 13.600,137.200 13.780,137.200 14.000 C 137.200 14.220,136.660 14.400,136.000 14.400 C 135.340 14.400,134.800 14.580,134.800 14.800 C 134.800 15.020,134.438 15.200,133.995 15.200 C 133.552 15.200,132.832 15.380,132.395 15.600 C 131.958 15.820,131.242 16.180,130.805 16.400 C 130.368 16.620,129.648 16.800,129.205 16.800 C 128.762 16.800,128.400 16.980,128.400 17.200 C 128.400 17.420,127.950 17.600,127.400 17.600 C 126.850 17.600,126.400 17.780,126.400 18.000 C 126.400 18.220,126.040 18.400,125.600 18.400 C 125.160 18.400,124.800 18.580,124.800 18.800 C 124.800 19.020,124.451 19.200,124.024 19.200 C 123.597 19.200,123.136 19.380,123.000 19.600 C 122.864 19.820,122.313 20.000,121.776 20.000 C 121.239 20.000,120.800 20.180,120.800 20.400 C 120.800 20.620,120.440 20.800,120.000 20.800 C 119.560 20.800,119.200 20.980,119.200 21.200 C 119.200 21.420,118.840 21.600,118.400 21.600 C 117.960 21.600,117.600 21.780,117.600 22.000 C 117.600 22.220,117.240 22.400,116.800 22.400 C 116.360 22.400,116.000 22.580,116.000 22.800 C 116.000 23.020,115.766 23.200,115.480 23.200 C 114.744 23.200,112.807 24.141,112.803 24.500 C 112.801 24.665,112.536 24.800,112.214 24.800 C 111.490 24.800,108.649 26.089,108.467 26.500 C 108.393 26.665,107.988 26.800,107.567 26.800 C 107.145 26.800,106.800 26.980,106.800 27.200 C 106.800 27.420,106.440 27.600,106.000 27.600 C 105.560 27.600,105.200 27.780,105.200 28.000 C 105.200 28.220,104.964 28.400,104.675 28.400 C 104.387 28.400,103.764 28.760,103.292 29.200 C 102.820 29.640,102.156 30.000,101.817 30.000 C 101.478 30.000,101.200 30.180,101.200 30.400 C 101.200 30.620,100.840 30.800,100.400 30.800 C 99.960 30.800,99.600 30.980,99.600 31.200 C 99.600 31.420,99.364 31.600,99.075 31.600 C 98.787 31.600,98.202 31.915,97.775 32.300 C 97.349 32.685,96.505 33.255,95.900 33.568 C 95.295 33.880,94.800 34.285,94.800 34.468 C 94.800 34.650,94.564 34.800,94.275 34.800 C 93.987 34.800,93.364 35.160,92.892 35.600 C 92.420 36.040,91.846 36.400,91.617 36.400 C 91.388 36.400,91.200 36.580,91.200 36.800 C 91.200 37.020,90.912 37.200,90.560 37.200 C 90.209 37.200,89.417 37.740,88.800 38.400 C 88.183 39.060,87.457 39.600,87.186 39.600 C 86.916 39.600,86.403 39.917,86.047 40.306 C 85.691 40.694,84.725 41.364,83.900 41.796 C 83.075 42.228,82.400 42.709,82.400 42.864 C 82.400 43.019,82.077 43.249,81.683 43.374 C 81.288 43.499,80.298 44.231,79.482 45.001 C 78.666 45.770,77.864 46.409,77.699 46.420 C 77.535 46.430,76.680 47.149,75.800 48.017 C 74.920 48.884,74.055 49.596,73.878 49.597 C 73.701 49.599,72.496 50.680,71.200 52.000 C 69.904 53.320,68.652 54.400,68.416 54.400 C 67.855 54.400,54.400 67.859,54.400 68.420 C 54.400 68.658,53.539 69.695,52.486 70.726 C 51.433 71.757,50.288 73.009,49.942 73.509 C 49.596 74.008,48.657 75.125,47.856 75.991 C 47.055 76.857,46.400 77.663,46.400 77.782 C 46.400 77.901,45.770 78.666,45.000 79.482 C 44.230 80.299,43.600 81.082,43.600 81.222 C 43.600 81.446,43.106 82.106,41.607 83.883 C 41.383 84.149,41.200 84.604,41.200 84.895 C 41.200 85.186,40.840 85.683,40.400 86.000 C 39.960 86.317,39.600 86.825,39.600 87.128 C 39.600 87.431,39.060 88.183,38.400 88.800 C 37.740 89.417,37.200 90.126,37.200 90.377 C 37.200 90.628,36.869 91.189,36.464 91.623 C 36.059 92.058,35.475 92.905,35.167 93.507 C 34.858 94.108,34.289 94.891,33.903 95.247 C 33.516 95.603,33.200 96.105,33.200 96.364 C 33.200 96.622,32.840 97.220,32.400 97.692 C 31.960 98.164,31.600 98.787,31.600 99.075 C 31.600 99.364,31.420 99.600,31.200 99.600 C 30.980 99.600,30.800 99.960,30.800 100.400 C 30.800 100.840,30.620 101.200,30.400 101.200 C 30.180 101.200,30.000 101.478,30.000 101.817 C 30.000 102.156,29.640 102.820,29.200 103.292 C 28.760 103.764,28.400 104.387,28.400 104.675 C 28.400 104.964,28.220 105.200,28.000 105.200 C 27.780 105.200,27.600 105.560,27.600 106.000 C 27.600 106.440,27.420 106.800,27.200 106.800 C 26.980 106.800,26.800 107.145,26.800 107.567 C 26.800 107.988,26.665 108.393,26.500 108.467 C 26.089 108.649,24.800 111.490,24.800 112.214 C 24.800 112.536,24.620 112.800,24.400 112.800 C 24.180 112.800,24.000 113.160,24.000 113.600 C 24.000 114.040,23.820 114.400,23.600 114.400 C 23.380 114.400,23.200 114.760,23.200 115.200 C 23.200 115.640,23.020 116.000,22.800 116.000 C 22.580 116.000,22.400 116.360,22.400 116.800 C 22.400 117.240,22.220 117.600,22.000 117.600 C 21.780 117.600,21.600 117.960,21.600 118.400 C 21.600 118.840,21.420 119.200,21.200 119.200 C 20.980 119.200,20.800 119.560,20.800 120.000 C 20.800 120.440,20.620 120.800,20.400 120.800 C 20.180 120.800,20.000 121.239,20.000 121.776 C 20.000 122.313,19.820 122.864,19.600 123.000 C 19.380 123.136,19.200 123.597,19.200 124.024 C 19.200 124.451,19.020 124.800,18.800 124.800 C 18.580 124.800,18.400 125.160,18.400 125.600 C 18.400 126.040,18.220 126.400,18.000 126.400 C 17.780 126.400,17.600 126.850,17.600 127.400 C 17.600 127.950,17.420 128.400,17.200 128.400 C 16.980 128.400,16.800 128.940,16.800 129.600 C 16.800 130.260,16.620 130.800,16.400 130.800 C 16.180 130.800,16.000 131.160,16.000 131.600 C 16.000 132.040,15.820 132.400,15.600 132.400 C 15.380 132.400,15.200 132.940,15.200 133.600 C 15.200 134.260,15.020 134.800,14.800 134.800 C 14.580 134.800,14.400 135.340,14.400 136.000 C 14.400 136.660,14.220 137.200,14.000 137.200 C 13.780 137.200,13.600 137.740,13.600 138.400 C 13.600 139.060,13.420 139.600,13.200 139.600 C 12.980 139.600,12.800 140.140,12.800 140.800 C 12.800 141.460,12.620 142.000,12.400 142.000 C 12.180 142.000,12.000 142.529,12.000 143.176 C 12.000 143.823,11.820 144.464,11.600 144.600 C 11.380 144.736,11.200 145.366,11.200 146.000 C 11.200 146.634,11.020 147.264,10.800 147.400 C 10.580 147.536,10.400 148.256,10.400 149.000 C 10.400 149.744,10.220 150.464,10.000 150.600 C 9.780 150.736,9.600 151.388,9.600 152.050 C 9.600 152.711,9.423 153.584,9.206 153.988 C 8.990 154.393,8.694 156.001,8.549 157.562 C 8.404 159.123,8.131 160.400,7.943 160.400 C 7.754 160.400,7.600 161.300,7.600 162.400 C 7.600 163.500,7.420 164.400,7.200 164.400 C 6.978 164.400,6.800 165.467,6.800 166.800 C 6.800 168.133,6.622 169.200,6.400 169.200 C 6.171 169.200,6.000 170.400,6.000 172.000 C 6.000 173.600,5.829 174.800,5.600 174.800 C 5.363 174.800,5.200 176.259,5.200 178.376 C 5.200 180.343,5.020 182.064,4.800 182.200 C 4.543 182.359,4.400 188.730,4.400 200.000 C 4.400 211.270,4.543 217.641,4.800 217.800 C 5.020 217.936,5.200 219.657,5.200 221.624 C 5.200 223.741,5.363 225.200,5.600 225.200 C 5.829 225.200,6.000 226.400,6.000 228.000 C 6.000 229.600,6.171 230.800,6.400 230.800 C 6.622 230.800,6.800 231.867,6.800 233.200 C 6.800 234.533,6.978 235.600,7.200 235.600 C 7.420 235.600,7.600 236.500,7.600 237.600 C 7.600 238.700,7.754 239.600,7.943 239.600 C 8.131 239.600,8.404 240.877,8.549 242.438 C 8.694 243.999,8.990 245.607,9.206 246.012 C 9.423 246.416,9.600 247.289,9.600 247.950 C 9.600 248.612,9.780 249.264,10.000 249.400 C 10.220 249.536,10.400 250.256,10.400 251.000 C 10.400 251.744,10.580 252.464,10.800 252.600 C 11.020 252.736,11.200 253.276,11.200 253.800 C 11.200 254.324,11.380 254.864,11.600 255.000 C 11.820 255.136,12.000 255.867,12.000 256.624 C 12.000 257.381,12.180 258.000,12.400 258.000 C 12.620 258.000,12.800 258.540,12.800 259.200 C 12.800 259.860,12.980 260.400,13.200 260.400 C 13.420 260.400,13.600 260.940,13.600 261.600 C 13.600 262.260,13.780 262.800,14.000 262.800 C 14.220 262.800,14.400 263.340,14.400 264.000 C 14.400 264.660,14.580 265.200,14.800 265.200 C 15.020 265.200,15.200 265.639,15.200 266.176 C 15.200 266.713,15.380 267.264,15.600 267.400 C 15.820 267.536,16.000 267.997,16.000 268.424 C 16.000 268.851,16.180 269.200,16.400 269.200 C 16.620 269.200,16.800 269.740,16.800 270.400 C 16.800 271.060,16.980 271.600,17.200 271.600 C 17.420 271.600,17.600 272.050,17.600 272.600 C 17.600 273.150,17.780 273.600,18.000 273.600 C 18.220 273.600,18.400 273.960,18.400 274.400 C 18.400 274.840,18.580 275.200,18.800 275.200 C 19.020 275.200,19.200 275.549,19.200 275.976 C 19.200 276.403,19.380 276.864,19.600 277.000 C 19.820 277.136,20.000 277.687,20.000 278.224 C 20.000 278.761,20.180 279.200,20.400 279.200 C 20.620 279.200,20.800 279.560,20.800 280.000 C 20.800 280.440,20.980 280.800,21.200 280.800 C 21.420 280.800,21.600 281.160,21.600 281.600 C 21.600 282.040,21.780 282.400,22.000 282.400 C 22.220 282.400,22.400 282.760,22.400 283.200 C 22.400 283.640,22.580 284.000,22.800 284.000 C 23.020 284.000,23.200 284.360,23.200 284.800 C 23.200 285.240,23.380 285.600,23.600 285.600 C 23.820 285.600,24.000 285.960,24.000 286.400 C 24.000 286.840,24.180 287.200,24.400 287.200 C 24.620 287.200,24.800 287.464,24.800 287.786 C 24.800 288.510,26.089 291.351,26.500 291.533 C 26.665 291.607,26.800 292.012,26.800 292.433 C 26.800 292.855,26.980 293.200,27.200 293.200 C 27.420 293.200,27.600 293.560,27.600 294.000 C 27.600 294.440,27.780 294.800,28.000 294.800 C 28.220 294.800,28.400 295.036,28.400 295.325 C 28.400 295.613,28.760 296.236,29.200 296.708 C 29.640 297.180,30.000 297.844,30.000 298.183 C 30.000 298.522,30.180 298.800,30.400 298.800 C 30.620 298.800,30.800 299.160,30.800 299.600 C 30.800 300.040,30.980 300.400,31.200 300.400 C 31.420 300.400,31.600 300.636,31.600 300.925 C 31.600 301.213,31.960 301.836,32.400 302.308 C 32.840 302.780,33.200 303.320,33.200 303.508 C 33.200 303.696,33.515 304.198,33.900 304.625 C 34.285 305.051,34.854 305.892,35.164 306.493 C 35.474 307.095,36.059 307.942,36.464 308.377 C 36.869 308.811,37.200 309.372,37.200 309.623 C 37.200 309.874,37.740 310.583,38.400 311.200 C 39.060 311.817,39.600 312.569,39.600 312.872 C 39.600 313.175,39.960 313.683,40.400 314.000 C 40.840 314.317,41.200 314.814,41.200 315.105 C 41.200 315.396,41.383 315.851,41.607 316.117 C 43.106 317.894,43.600 318.554,43.600 318.778 C 43.600 318.918,44.230 319.701,45.000 320.518 C 45.770 321.334,46.400 322.099,46.400 322.218 C 46.400 322.337,47.055 323.143,47.856 324.009 C 48.657 324.875,49.596 325.992,49.942 326.491 C 50.288 326.991,51.433 328.243,52.486 329.274 C 53.539 330.305,54.400 331.342,54.400 331.580 C 54.400 332.144,67.856 345.600,68.420 345.600 C 68.658 345.600,69.695 346.461,70.726 347.514 C 71.757 348.567,73.009 349.712,73.509 350.058 C 74.008 350.404,75.125 351.343,75.991 352.144 C 76.857 352.945,77.663 353.600,77.782 353.600 C 77.901 353.600,78.666 354.230,79.482 354.999 C 80.298 355.769,81.288 356.501,81.683 356.626 C 82.077 356.751,82.400 356.981,82.400 357.136 C 82.400 357.291,83.075 357.772,83.900 358.204 C 84.725 358.636,85.691 359.306,86.047 359.694 C 86.403 360.083,86.916 360.400,87.186 360.400 C 87.457 360.400,88.183 360.940,88.800 361.600 C 89.417 362.260,90.209 362.800,90.560 362.800 C 90.912 362.800,91.200 362.980,91.200 363.200 C 91.200 363.420,91.470 363.600,91.800 363.600 C 92.130 363.600,92.400 363.750,92.400 363.932 C 92.400 364.115,92.895 364.520,93.500 364.832 C 94.105 365.145,94.949 365.715,95.375 366.100 C 95.802 366.485,96.304 366.800,96.492 366.800 C 96.680 366.800,97.220 367.160,97.692 367.600 C 98.164 368.040,98.787 368.400,99.075 368.400 C 99.364 368.400,99.600 368.580,99.600 368.800 C 99.600 369.020,99.960 369.200,100.400 369.200 C 100.840 369.200,101.200 369.380,101.200 369.600 C 101.200 369.820,101.478 370.000,101.817 370.000 C 102.156 370.000,102.820 370.360,103.292 370.800 C 103.764 371.240,104.387 371.600,104.675 371.600 C 104.964 371.600,105.200 371.780,105.200 372.000 C 105.200 372.220,105.560 372.400,106.000 372.400 C 106.440 372.400,106.800 372.580,106.800 372.800 C 106.800 373.020,107.160 373.200,107.600 373.200 C 108.040 373.200,108.400 373.366,108.400 373.568 C 108.400 373.771,108.938 374.055,109.595 374.199 C 110.253 374.343,110.894 374.628,111.019 374.831 C 111.145 375.034,111.597 375.200,112.024 375.200 C 112.451 375.200,112.800 375.380,112.800 375.600 C 112.800 375.820,113.160 376.000,113.600 376.000 C 114.040 376.000,114.400 376.180,114.400 376.400 C 114.400 376.620,114.760 376.800,115.200 376.800 C 115.640 376.800,116.000 376.980,116.000 377.200 C 116.000 377.420,116.360 377.600,116.800 377.600 C 117.240 377.600,117.600 377.780,117.600 378.000 C 117.600 378.220,117.960 378.400,118.400 378.400 C 118.840 378.400,119.200 378.580,119.200 378.800 C 119.200 379.020,119.560 379.200,120.000 379.200 C 120.440 379.200,120.800 379.380,120.800 379.600 C 120.800 379.820,121.239 380.000,121.776 380.000 C 122.313 380.000,122.864 380.180,123.000 380.400 C 123.136 380.620,123.597 380.800,124.024 380.800 C 124.451 380.800,124.800 380.980,124.800 381.200 C 124.800 381.420,125.160 381.600,125.600 381.600 C 126.040 381.600,126.400 381.780,126.400 382.000 C 126.400 382.220,126.850 382.400,127.400 382.400 C 127.950 382.400,128.400 382.580,128.400 382.800 C 128.400 383.020,128.940 383.200,129.600 383.200 C 130.260 383.200,130.800 383.380,130.800 383.600 C 130.800 383.820,131.149 384.000,131.576 384.000 C 132.003 384.000,132.464 384.180,132.600 384.400 C 132.736 384.620,133.287 384.800,133.824 384.800 C 134.361 384.800,134.800 384.980,134.800 385.200 C 134.800 385.420,135.340 385.600,136.000 385.600 C 136.660 385.600,137.200 385.780,137.200 386.000 C 137.200 386.220,137.740 386.400,138.400 386.400 C 139.060 386.400,139.600 386.580,139.600 386.800 C 139.600 387.020,140.129 387.200,140.776 387.200 C 141.423 387.200,142.064 387.380,142.200 387.600 C 142.336 387.820,142.889 388.000,143.429 388.000 C 143.969 388.000,144.723 388.158,145.105 388.351 C 146.261 388.935,148.604 389.600,149.505 389.600 C 149.971 389.600,150.452 389.761,150.574 389.958 C 150.695 390.155,151.471 390.418,152.297 390.544 C 153.124 390.670,155.150 390.976,156.800 391.223 C 158.450 391.470,160.113 391.836,160.495 392.036 C 160.877 392.236,161.912 392.400,162.795 392.400 C 163.678 392.400,164.400 392.580,164.400 392.800 C 164.400 393.022,165.467 393.200,166.800 393.200 C 168.133 393.200,169.200 393.378,169.200 393.600 C 169.200 393.829,170.400 394.000,172.000 394.000 C 173.600 394.000,174.800 394.171,174.800 394.400 C 174.800 394.639,176.333 394.800,178.600 394.800 C 180.867 394.800,182.400 394.961,182.400 395.200 C 182.400 395.461,188.533 395.600,200.000 395.600 C 211.467 395.600,217.600 395.461,217.600 395.200 C 217.600 394.961,219.133 394.800,221.400 394.800 C 223.667 394.800,225.200 394.639,225.200 394.400 C 225.200 394.171,226.400 394.000,228.000 394.000 C 229.600 394.000,230.800 393.829,230.800 393.600 C 230.800 393.378,231.867 393.200,233.200 393.200 C 234.533 393.200,235.600 393.022,235.600 392.800 C 235.600 392.580,236.500 392.400,237.600 392.400 C 238.700 392.400,239.600 392.246,239.600 392.057 C 239.600 391.869,240.877 391.596,242.438 391.451 C 243.999 391.306,245.607 391.010,246.012 390.794 C 246.416 390.577,247.289 390.400,247.950 390.400 C 248.612 390.400,249.264 390.220,249.400 390.000 C 249.536 389.780,250.256 389.600,251.000 389.600 C 251.744 389.600,252.464 389.420,252.600 389.200 C 252.736 388.980,253.276 388.800,253.800 388.800 C 254.324 388.800,254.864 388.620,255.000 388.400 C 255.136 388.180,255.867 388.000,256.624 388.000 C 257.381 388.000,258.000 387.820,258.000 387.600 C 258.000 387.380,258.540 387.200,259.200 387.200 C 259.860 387.200,260.400 387.020,260.400 386.800 C 260.400 386.580,260.940 386.400,261.600 386.400 C 262.260 386.400,262.800 386.220,262.800 386.000 C 262.800 385.780,263.340 385.600,264.000 385.600 C 264.660 385.600,265.200 385.420,265.200 385.200 C 265.200 384.980,265.639 384.800,266.176 384.800 C 266.713 384.800,267.264 384.620,267.400 384.400 C 267.536 384.180,267.997 384.000,268.424 384.000 C 268.851 384.000,269.200 383.820,269.200 383.600 C 269.200 383.380,269.740 383.200,270.400 383.200 C 271.060 383.200,271.600 383.020,271.600 382.800 C 271.600 382.580,271.949 382.400,272.376 382.400 C 272.803 382.400,273.264 382.220,273.400 382.000 C 273.536 381.780,273.997 381.600,274.424 381.600 C 274.851 381.600,275.200 381.420,275.200 381.200 C 275.200 380.980,275.549 380.800,275.976 380.800 C 276.403 380.800,276.864 380.620,277.000 380.400 C 277.136 380.180,277.687 380.000,278.224 380.000 C 278.761 380.000,279.200 379.820,279.200 379.600 C 279.200 379.380,279.560 379.200,280.000 379.200 C 280.440 379.200,280.800 379.020,280.800 378.800 C 280.800 378.580,281.160 378.400,281.600 378.400 C 282.040 378.400,282.400 378.220,282.400 378.000 C 282.400 377.780,282.760 377.600,283.200 377.600 C 283.640 377.600,284.000 377.420,284.000 377.200 C 284.000 376.980,284.360 376.800,284.800 376.800 C 285.240 376.800,285.600 376.620,285.600 376.400 C 285.600 376.180,285.960 376.000,286.400 376.000 C 286.840 376.000,287.200 375.820,287.200 375.600 C 287.200 375.380,287.464 375.200,287.786 375.200 C 288.510 375.200,291.351 373.911,291.533 373.500 C 291.607 373.335,292.012 373.200,292.433 373.200 C 292.855 373.200,293.200 373.020,293.200 372.800 C 293.200 372.580,293.560 372.400,294.000 372.400 C 294.440 372.400,294.800 372.220,294.800 372.000 C 294.800 371.780,295.036 371.600,295.325 371.600 C 295.613 371.600,296.236 371.240,296.708 370.800 C 297.180 370.360,297.844 370.000,298.183 370.000 C 298.522 370.000,298.800 369.820,298.800 369.600 C 298.800 369.380,299.160 369.200,299.600 369.200 C 300.040 369.200,300.400 369.020,300.400 368.800 C 300.400 368.580,300.636 368.400,300.925 368.400 C 301.213 368.400,301.836 368.040,302.308 367.600 C 302.780 367.160,303.378 366.800,303.636 366.800 C 303.895 366.800,304.397 366.484,304.753 366.097 C 305.109 365.711,305.892 365.142,306.493 364.833 C 307.095 364.525,307.942 363.941,308.377 363.536 C 308.811 363.131,309.327 362.800,309.524 362.800 C 309.721 362.800,310.446 362.260,311.137 361.600 C 311.828 360.940,312.625 360.400,312.908 360.400 C 313.191 360.400,313.683 360.040,314.000 359.600 C 314.317 359.160,314.814 358.800,315.105 358.800 C 315.396 358.800,315.851 358.617,316.117 358.393 C 317.894 356.894,318.554 356.400,318.778 356.400 C 318.918 356.400,319.701 355.770,320.518 355.000 C 321.334 354.230,322.120 353.600,322.263 353.600 C 322.407 353.600,323.231 352.880,324.093 352.000 C 324.956 351.120,325.812 350.400,325.996 350.400 C 326.180 350.400,327.427 349.320,328.768 348.000 C 330.108 346.680,331.292 345.600,331.398 345.600 C 332.216 345.600,345.600 332.193,345.600 331.373 C 345.600 331.254,346.680 330.096,348.000 328.800 C 349.320 327.504,350.400 326.268,350.400 326.053 C 350.400 325.838,351.120 324.956,352.000 324.093 C 352.880 323.231,353.600 322.407,353.600 322.263 C 353.600 322.120,354.230 321.334,354.999 320.518 C 355.769 319.702,356.501 318.712,356.626 318.317 C 356.751 317.923,356.981 317.600,357.136 317.600 C 357.291 317.600,357.772 316.925,358.204 316.100 C 358.636 315.275,359.306 314.309,359.694 313.953 C 360.083 313.597,360.400 313.101,360.400 312.849 C 360.400 312.598,360.940 311.828,361.600 311.137 C 362.260 310.446,362.800 309.638,362.800 309.341 C 362.800 309.043,362.980 308.800,363.200 308.800 C 363.420 308.800,363.600 308.530,363.600 308.200 C 363.600 307.870,363.750 307.600,363.932 307.600 C 364.115 307.600,364.520 307.105,364.832 306.500 C 365.145 305.895,365.715 305.051,366.100 304.625 C 366.485 304.198,366.800 303.696,366.800 303.508 C 366.800 303.320,367.160 302.780,367.600 302.308 C 368.040 301.836,368.400 301.213,368.400 300.925 C 368.400 300.636,368.580 300.400,368.800 300.400 C 369.020 300.400,369.200 300.040,369.200 299.600 C 369.200 299.160,369.380 298.800,369.600 298.800 C 369.820 298.800,370.000 298.522,370.000 298.183 C 370.000 297.844,370.360 297.180,370.800 296.708 C 371.240 296.236,371.600 295.613,371.600 295.325 C 371.600 295.036,371.780 294.800,372.000 294.800 C 372.220 294.800,372.400 294.440,372.400 294.000 C 372.400 293.560,372.580 293.200,372.800 293.200 C 373.020 293.200,373.200 292.855,373.200 292.433 C 373.200 292.012,373.335 291.607,373.500 291.533 C 373.911 291.351,375.200 288.510,375.200 287.786 C 375.200 287.464,375.380 287.200,375.600 287.200 C 375.820 287.200,376.000 286.840,376.000 286.400 C 376.000 285.960,376.180 285.600,376.400 285.600 C 376.620 285.600,376.800 285.240,376.800 284.800 C 376.800 284.360,376.980 284.000,377.200 284.000 C 377.420 284.000,377.600 283.640,377.600 283.200 C 377.600 282.760,377.780 282.400,378.000 282.400 C 378.220 282.400,378.400 282.040,378.400 281.600 C 378.400 281.160,378.580 280.800,378.800 280.800 C 379.020 280.800,379.200 280.440,379.200 280.000 C 379.200 279.560,379.380 279.200,379.600 279.200 C 379.820 279.200,380.000 278.761,380.000 278.224 C 380.000 277.687,380.180 277.136,380.400 277.000 C 380.620 276.864,380.800 276.403,380.800 275.976 C 380.800 275.549,380.980 275.200,381.200 275.200 C 381.420 275.200,381.600 274.840,381.600 274.400 C 381.600 273.960,381.780 273.600,382.000 273.600 C 382.220 273.600,382.400 273.150,382.400 272.600 C 382.400 272.050,382.580 271.600,382.800 271.600 C 383.020 271.600,383.200 271.060,383.200 270.400 C 383.200 269.740,383.380 269.200,383.600 269.200 C 383.820 269.200,384.000 268.851,384.000 268.424 C 384.000 267.997,384.180 267.536,384.400 267.400 C 384.620 267.264,384.800 266.713,384.800 266.176 C 384.800 265.639,384.980 265.200,385.200 265.200 C 385.420 265.200,385.600 264.660,385.600 264.000 C 385.600 263.340,385.780 262.800,386.000 262.800 C 386.220 262.800,386.400 262.260,386.400 261.600 C 386.400 260.940,386.580 260.400,386.800 260.400 C 387.020 260.400,387.200 259.860,387.200 259.200 C 387.200 258.540,387.380 258.000,387.600 258.000 C 387.820 258.000,388.000 257.381,388.000 256.624 C 388.000 255.867,388.180 255.136,388.400 255.000 C 388.620 254.864,388.800 254.324,388.800 253.800 C 388.800 253.276,388.980 252.736,389.200 252.600 C 389.420 252.464,389.600 251.744,389.600 251.000 C 389.600 250.256,389.780 249.536,390.000 249.400 C 390.220 249.264,390.400 248.612,390.400 247.950 C 390.400 247.289,390.577 246.416,390.794 246.012 C 391.010 245.607,391.306 243.999,391.451 242.438 C 391.596 240.877,391.869 239.600,392.057 239.600 C 392.246 239.600,392.400 238.700,392.400 237.600 C 392.400 236.500,392.580 235.600,392.800 235.600 C 393.022 235.600,393.200 234.533,393.200 233.200 C 393.200 231.867,393.378 230.800,393.600 230.800 C 393.829 230.800,394.000 229.600,394.000 228.000 C 394.000 226.400,394.171 225.200,394.400 225.200 C 394.637 225.200,394.800 223.741,394.800 221.624 C 394.800 219.657,394.980 217.936,395.200 217.800 C 395.457 217.641,395.600 211.270,395.600 200.000 C 395.600 188.730,395.457 182.359,395.200 182.200 C 394.980 182.064,394.800 180.343,394.800 178.376 C 394.800 176.259,394.637 174.800,394.400 174.800 C 394.171 174.800,394.000 173.600,394.000 172.000 C 394.000 170.400,393.829 169.200,393.600 169.200 C 393.378 169.200,393.200 168.133,393.200 166.800 C 393.200 165.467,393.022 164.400,392.800 164.400 C 392.580 164.400,392.400 163.500,392.400 162.400 C 392.400 161.300,392.246 160.400,392.057 160.400 C 391.869 160.400,391.596 159.123,391.451 157.562 C 391.306 156.001,391.010 154.393,390.794 153.988 C 390.577 153.584,390.400 152.711,390.400 152.050 C 390.400 151.388,390.220 150.736,390.000 150.600 C 389.780 150.464,389.600 149.744,389.600 149.000 C 389.600 148.256,389.420 147.536,389.200 147.400 C 388.980 147.264,388.800 146.724,388.800 146.200 C 388.800 145.676,388.620 145.136,388.400 145.000 C 388.180 144.864,388.000 144.133,388.000 143.376 C 388.000 142.619,387.820 142.000,387.600 142.000 C 387.380 142.000,387.200 141.460,387.200 140.800 C 387.200 140.140,387.020 139.600,386.800 139.600 C 386.580 139.600,386.400 139.060,386.400 138.400 C 386.400 137.740,386.220 137.200,386.000 137.200 C 385.780 137.200,385.600 136.660,385.600 136.000 C 385.600 135.340,385.420 134.800,385.200 134.800 C 384.980 134.800,384.800 134.361,384.800 133.824 C 384.800 133.287,384.620 132.736,384.400 132.600 C 384.180 132.464,384.000 132.003,384.000 131.576 C 384.000 131.149,383.820 130.800,383.600 130.800 C 383.380 130.800,383.200 130.260,383.200 129.600 C 383.200 128.940,383.020 128.400,382.800 128.400 C 382.580 128.400,382.400 127.950,382.400 127.400 C 382.400 126.850,382.220 126.400,382.000 126.400 C 381.780 126.400,381.600 126.040,381.600 125.600 C 381.600 125.160,381.420 124.800,381.200 124.800 C 380.980 124.800,380.800 124.451,380.800 124.024 C 380.800 123.597,380.620 123.136,380.400 123.000 C 380.180 122.864,380.000 122.313,380.000 121.776 C 380.000 121.239,379.820 120.800,379.600 120.800 C 379.380 120.800,379.200 120.440,379.200 120.000 C 379.200 119.560,379.020 119.200,378.800 119.200 C 378.580 119.200,378.400 118.840,378.400 118.400 C 378.400 117.960,378.220 117.600,378.000 117.600 C 377.780 117.600,377.600 117.240,377.600 116.800 C 377.600 116.360,377.420 116.000,377.200 116.000 C 376.980 116.000,376.800 115.640,376.800 115.200 C 376.800 114.760,376.620 114.400,376.400 114.400 C 376.180 114.400,376.000 114.040,376.000 113.600 C 376.000 113.160,375.820 112.800,375.600 112.800 C 375.380 112.800,375.200 112.536,375.200 112.214 C 375.200 111.490,373.911 108.649,373.500 108.467 C 373.335 108.393,373.200 107.988,373.200 107.567 C 373.200 107.145,373.020 106.800,372.800 106.800 C 372.580 106.800,372.400 106.440,372.400 106.000 C 372.400 105.560,372.220 105.200,372.000 105.200 C 371.780 105.200,371.600 104.964,371.600 104.675 C 371.600 104.387,371.240 103.764,370.800 103.292 C 370.360 102.820,370.000 102.156,370.000 101.817 C 370.000 101.478,369.820 101.200,369.600 101.200 C 369.380 101.200,369.200 100.840,369.200 100.400 C 369.200 99.960,369.020 99.600,368.800 99.600 C 368.580 99.600,368.400 99.364,368.400 99.075 C 368.400 98.787,368.085 98.202,367.700 97.775 C 367.315 97.349,366.745 96.505,366.432 95.900 C 366.120 95.295,365.715 94.800,365.532 94.800 C 365.350 94.800,365.200 94.564,365.200 94.275 C 365.200 93.987,364.840 93.364,364.400 92.892 C 363.960 92.420,363.600 91.846,363.600 91.617 C 363.600 91.388,363.420 91.200,363.200 91.200 C 362.980 91.200,362.800 90.912,362.800 90.560 C 362.800 90.209,362.260 89.417,361.600 88.800 C 360.940 88.183,360.400 87.431,360.400 87.128 C 360.400 86.825,360.040 86.317,359.600 86.000 C 359.160 85.683,358.800 85.186,358.800 84.895 C 358.800 84.604,358.617 84.149,358.393 83.883 C 356.894 82.106,356.400 81.446,356.400 81.222 C 356.400 81.082,355.770 80.299,355.000 79.482 C 354.230 78.666,353.600 77.855,353.600 77.680 C 353.600 77.505,352.880 76.659,352.000 75.800 C 351.120 74.941,350.400 74.084,350.400 73.897 C 350.400 73.709,349.320 72.496,348.000 71.200 C 346.680 69.904,345.600 68.746,345.600 68.627 C 345.600 67.920,332.259 54.400,331.561 54.400 C 331.338 54.400,330.096 53.320,328.800 52.000 C 327.504 50.680,326.318 49.600,326.164 49.600 C 326.009 49.600,325.047 48.835,324.025 47.900 C 322.007 46.053,319.471 44.020,318.446 43.426 C 318.091 43.220,317.581 42.860,317.314 42.626 C 315.954 41.434,315.591 41.200,315.105 41.200 C 314.814 41.200,314.317 40.840,314.000 40.400 C 313.683 39.960,313.175 39.600,312.872 39.600 C 312.569 39.600,311.817 39.060,311.200 38.400 C 310.583 37.740,309.874 37.200,309.623 37.200 C 309.372 37.200,308.811 36.869,308.377 36.464 C 307.942 36.059,307.095 35.475,306.493 35.167 C 305.892 34.858,305.109 34.289,304.753 33.903 C 304.397 33.516,303.895 33.200,303.636 33.200 C 303.378 33.200,302.780 32.840,302.308 32.400 C 301.836 31.960,301.213 31.600,300.925 31.600 C 300.636 31.600,300.400 31.420,300.400 31.200 C 300.400 30.980,300.040 30.800,299.600 30.800 C 299.160 30.800,298.800 30.620,298.800 30.400 C 298.800 30.180,298.522 30.000,298.183 30.000 C 297.844 30.000,297.180 29.640,296.708 29.200 C 296.236 28.760,295.613 28.400,295.325 28.400 C 295.036 28.400,294.800 28.220,294.800 28.000 C 294.800 27.780,294.440 27.600,294.000 27.600 C 293.560 27.600,293.200 27.420,293.200 27.200 C 293.200 26.980,292.855 26.800,292.433 26.800 C 292.012 26.800,291.607 26.665,291.533 26.500 C 291.351 26.089,288.510 24.800,287.786 24.800 C 287.464 24.800,287.200 24.620,287.200 24.400 C 287.200 24.180,286.840 24.000,286.400 24.000 C 285.960 24.000,285.600 23.820,285.600 23.600 C 285.600 23.380,285.240 23.200,284.800 23.200 C 284.360 23.200,284.000 23.020,284.000 22.800 C 284.000 22.580,283.640 22.400,283.200 22.400 C 282.760 22.400,282.400 22.220,282.400 22.000 C 282.400 21.780,282.040 21.600,281.600 21.600 C 281.160 21.600,280.800 21.420,280.800 21.200 C 280.800 20.980,280.440 20.800,280.000 20.800 C 279.560 20.800,279.200 20.620,279.200 20.400 C 279.200 20.180,278.761 20.000,278.224 20.000 C 277.687 20.000,277.136 19.820,277.000 19.600 C 276.864 19.380,276.403 19.200,275.976 19.200 C 275.549 19.200,275.200 19.020,275.200 18.800 C 275.200 18.580,274.840 18.400,274.400 18.400 C 273.960 18.400,273.600 18.220,273.600 18.000 C 273.600 17.780,273.150 17.600,272.600 17.600 C 272.050 17.600,271.600 17.420,271.600 17.200 C 271.600 16.980,271.060 16.800,270.400 16.800 C 269.740 16.800,269.200 16.620,269.200 16.400 C 269.200 16.180,268.840 16.000,268.400 16.000 C 267.960 16.000,267.600 15.820,267.600 15.600 C 267.600 15.380,267.060 15.200,266.400 15.200 C 265.740 15.200,265.200 15.020,265.200 14.800 C 265.200 14.580,264.660 14.400,264.000 14.400 C 263.340 14.400,262.800 14.220,262.800 14.000 C 262.800 13.780,262.260 13.600,261.600 13.600 C 260.940 13.600,260.400 13.420,260.400 13.200 C 260.400 12.980,259.860 12.800,259.200 12.800 C 258.540 12.800,258.000 12.620,258.000 12.400 C 258.000 12.180,257.471 12.000,256.824 12.000 C 256.177 12.000,255.536 11.820,255.400 11.600 C 255.264 11.380,254.634 11.200,254.000 11.200 C 253.366 11.200,252.736 11.020,252.600 10.800 C 252.464 10.580,251.744 10.400,251.000 10.400 C 250.256 10.400,249.536 10.220,249.400 10.000 C 249.264 9.780,248.612 9.600,247.950 9.600 C 247.289 9.600,246.416 9.423,246.012 9.206 C 245.607 8.990,243.999 8.694,242.438 8.549 C 240.877 8.404,239.600 8.131,239.600 7.943 C 239.600 7.754,238.700 7.600,237.600 7.600 C 236.500 7.600,235.600 7.420,235.600 7.200 C 235.600 6.978,234.533 6.800,233.200 6.800 C 231.867 6.800,230.800 6.622,230.800 6.400 C 230.800 6.171,229.600 6.000,228.000 6.000 C 226.400 6.000,225.200 5.829,225.200 5.600 C 225.200 5.361,223.667 5.200,221.400 5.200 C 219.133 5.200,217.600 5.039,217.600 4.800 C 217.600 4.539,211.467 4.400,200.000 4.400 C 188.533 4.400,182.400 4.539,182.400 4.800 M257.600 82.000 C 257.600 82.225,258.725 82.400,260.176 82.400 C 261.593 82.400,262.864 82.580,263.000 82.800 C 263.136 83.020,264.047 83.200,265.024 83.200 C 266.001 83.200,266.800 83.362,266.800 83.560 C 266.800 83.758,267.565 84.019,268.500 84.141 C 271.863 84.580,273.200 84.894,273.200 85.244 C 273.200 85.440,273.740 85.600,274.400 85.600 C 275.060 85.600,275.600 85.780,275.600 86.000 C 275.600 86.220,276.039 86.400,276.576 86.400 C 277.113 86.400,277.664 86.580,277.800 86.800 C 277.936 87.020,278.487 87.200,279.024 87.200 C 279.561 87.200,280.000 87.380,280.000 87.600 C 280.000 87.820,280.360 88.000,280.800 88.000 C 281.240 88.000,281.600 88.180,281.600 88.400 C 281.600 88.620,281.826 88.800,282.101 88.800 C 282.377 88.800,283.901 89.430,285.489 90.200 C 287.076 90.970,288.611 91.600,288.899 91.600 C 289.187 91.600,289.683 91.960,290.000 92.400 C 290.317 92.840,290.857 93.200,291.200 93.200 C 291.543 93.200,292.083 93.560,292.400 94.000 C 292.717 94.440,293.117 94.800,293.288 94.800 C 293.459 94.800,294.341 95.520,295.248 96.400 C 296.155 97.280,297.058 98.000,297.256 98.000 C 297.743 98.000,302.369 102.664,303.599 104.396 C 304.582 105.780,305.767 107.182,307.500 109.013 C 307.995 109.536,308.400 110.169,308.400 110.420 C 308.400 110.986,309.692 113.352,310.100 113.533 C 310.265 113.607,310.400 114.012,310.400 114.433 C 310.400 114.855,310.580 115.200,310.800 115.200 C 311.020 115.200,311.200 115.560,311.200 116.000 C 311.200 116.440,311.380 116.800,311.600 116.800 C 311.820 116.800,312.000 117.160,312.000 117.600 C 312.000 118.040,312.180 118.400,312.400 118.400 C 312.620 118.400,312.800 118.760,312.800 119.200 C 312.800 119.640,312.980 120.000,313.200 120.000 C 313.420 120.000,313.600 120.355,313.600 120.788 C 313.600 121.221,313.960 122.217,314.400 123.000 C 314.840 123.783,315.200 124.779,315.200 125.212 C 315.200 125.645,315.380 126.000,315.600 126.000 C 315.820 126.000,316.000 126.619,316.000 127.376 C 316.000 128.133,316.180 128.864,316.400 129.000 C 316.620 129.136,316.800 129.766,316.800 130.400 C 316.800 131.034,316.980 131.664,317.200 131.800 C 317.420 131.936,317.600 132.746,317.600 133.600 C 317.600 134.454,317.780 135.264,318.000 135.400 C 318.220 135.536,318.400 136.537,318.400 137.624 C 318.400 138.711,318.580 139.600,318.800 139.600 C 319.035 139.600,319.200 141.000,319.200 143.000 C 319.200 145.000,319.365 146.400,319.600 146.400 C 319.865 146.400,320.000 164.533,320.000 200.000 C 320.000 235.467,319.865 253.600,319.600 253.600 C 319.365 253.600,319.200 255.000,319.200 257.000 C 319.200 259.000,319.035 260.400,318.800 260.400 C 318.580 260.400,318.400 261.289,318.400 262.376 C 318.400 263.463,318.220 264.464,318.000 264.600 C 317.780 264.736,317.600 265.546,317.600 266.400 C 317.600 267.254,317.420 268.064,317.200 268.200 C 316.980 268.336,316.800 268.966,316.800 269.600 C 316.800 270.234,316.620 270.864,316.400 271.000 C 316.180 271.136,316.000 271.867,316.000 272.624 C 316.000 273.381,315.820 274.000,315.600 274.000 C 315.380 274.000,315.200 274.355,315.200 274.788 C 315.200 275.221,314.840 276.217,314.400 277.000 C 313.960 277.783,313.600 278.779,313.600 279.212 C 313.600 279.645,313.420 280.000,313.200 280.000 C 312.980 280.000,312.800 280.360,312.800 280.800 C 312.800 281.240,312.620 281.600,312.400 281.600 C 312.180 281.600,312.000 281.960,312.000 282.400 C 312.000 282.840,311.820 283.200,311.600 283.200 C 311.380 283.200,311.200 283.560,311.200 284.000 C 311.200 284.440,311.020 284.800,310.800 284.800 C 310.580 284.800,310.400 285.160,310.400 285.600 C 310.400 286.040,310.253 286.400,310.074 286.400 C 309.725 286.400,308.400 288.958,308.400 289.632 C 308.400 289.854,307.995 290.464,307.500 290.987 C 305.767 292.818,304.582 294.220,303.599 295.604 C 302.369 297.336,297.743 302.000,297.256 302.000 C 297.058 302.000,296.155 302.720,295.248 303.600 C 294.341 304.480,293.459 305.200,293.288 305.200 C 293.117 305.200,292.717 305.560,292.400 306.000 C 292.083 306.440,291.543 306.800,291.200 306.800 C 290.857 306.800,290.317 307.160,290.000 307.600 C 289.683 308.040,289.187 308.400,288.899 308.400 C 288.611 308.400,287.076 309.030,285.489 309.800 C 283.901 310.570,282.377 311.200,282.101 311.200 C 281.826 311.200,281.600 311.380,281.600 311.600 C 281.600 311.820,281.328 312.000,280.995 312.000 C 280.662 312.000,279.987 312.208,279.495 312.462 C 277.569 313.458,277.183 313.600,276.405 313.600 C 275.962 313.600,275.600 313.780,275.600 314.000 C 275.600 314.220,275.060 314.400,274.400 314.400 C 273.740 314.400,273.200 314.580,273.200 314.800 C 273.200 315.020,272.581 315.200,271.824 315.200 C 271.067 315.200,270.336 315.380,270.200 315.600 C 270.064 315.820,269.243 316.000,268.376 316.000 C 267.509 316.000,266.800 316.180,266.800 316.400 C 266.800 316.620,265.900 316.800,264.800 316.800 C 263.700 316.800,262.800 316.980,262.800 317.200 C 262.800 317.426,261.667 317.600,260.200 317.600 C 258.733 317.600,257.600 317.774,257.600 318.000 C 257.600 318.265,238.133 318.400,200.000 318.400 C 161.867 318.400,142.400 318.265,142.400 318.000 C 142.400 317.774,141.267 317.600,139.800 317.600 C 138.333 317.600,137.200 317.426,137.200 317.200 C 137.200 316.980,136.300 316.800,135.200 316.800 C 134.100 316.800,133.200 316.620,133.200 316.400 C 133.200 316.180,132.491 316.000,131.624 316.000 C 130.757 316.000,129.936 315.820,129.800 315.600 C 129.664 315.380,128.933 315.200,128.176 315.200 C 127.419 315.200,126.800 315.020,126.800 314.800 C 126.800 314.580,126.260 314.400,125.600 314.400 C 124.940 314.400,124.400 314.220,124.400 314.000 C 124.400 313.780,123.961 313.600,123.424 313.600 C 122.887 313.600,122.336 313.420,122.200 313.200 C 122.064 312.980,121.513 312.800,120.976 312.800 C 120.439 312.800,120.000 312.620,120.000 312.400 C 120.000 312.180,119.640 312.000,119.200 312.000 C 118.760 312.000,118.400 311.820,118.400 311.600 C 118.400 311.380,118.174 311.200,117.899 311.200 C 117.623 311.200,116.099 310.570,114.511 309.800 C 112.924 309.030,111.389 308.400,111.101 308.400 C 110.813 308.400,110.317 308.040,110.000 307.600 C 109.683 307.160,109.201 306.800,108.930 306.800 C 108.658 306.800,108.001 306.395,107.468 305.900 C 105.633 304.195,104.187 302.988,102.796 302.000 C 101.358 300.980,97.200 296.977,97.200 296.613 C 97.200 296.366,96.124 295.035,94.900 293.768 C 94.405 293.256,94.000 292.720,94.000 292.579 C 94.000 292.437,93.460 291.817,92.800 291.200 C 92.140 290.583,91.600 289.887,91.600 289.653 C 91.600 288.963,90.281 286.400,89.926 286.400 C 89.747 286.400,89.600 286.040,89.600 285.600 C 89.600 285.160,89.420 284.800,89.200 284.800 C 88.980 284.800,88.800 284.440,88.800 284.000 C 88.800 283.560,88.620 283.200,88.400 283.200 C 88.180 283.200,88.000 282.840,88.000 282.400 C 88.000 281.960,87.820 281.600,87.600 281.600 C 87.380 281.600,87.200 281.240,87.200 280.800 C 87.200 280.360,87.020 280.000,86.800 280.000 C 86.580 280.000,86.400 279.645,86.400 279.212 C 86.400 278.779,86.040 277.783,85.600 277.000 C 85.160 276.217,84.800 275.221,84.800 274.788 C 84.800 274.355,84.620 274.000,84.400 274.000 C 84.180 274.000,84.000 273.381,84.000 272.624 C 84.000 271.867,83.820 271.136,83.600 271.000 C 83.380 270.864,83.200 270.223,83.200 269.576 C 83.200 268.929,83.020 268.400,82.800 268.400 C 82.580 268.400,82.400 267.601,82.400 266.624 C 82.400 265.647,82.220 264.736,82.000 264.600 C 81.780 264.464,81.600 263.564,81.600 262.600 C 81.600 261.636,81.420 260.736,81.200 260.600 C 80.980 260.464,80.800 258.833,80.800 256.976 C 80.800 254.992,80.635 253.600,80.400 253.600 C 80.135 253.600,80.000 235.467,80.000 200.000 C 80.000 164.533,80.135 146.400,80.400 146.400 C 80.635 146.400,80.800 145.008,80.800 143.024 C 80.800 141.167,80.980 139.536,81.200 139.400 C 81.420 139.264,81.600 138.364,81.600 137.400 C 81.600 136.436,81.780 135.536,82.000 135.400 C 82.220 135.264,82.400 134.353,82.400 133.376 C 82.400 132.399,82.580 131.600,82.800 131.600 C 83.020 131.600,83.200 131.071,83.200 130.424 C 83.200 129.777,83.380 129.136,83.600 129.000 C 83.820 128.864,84.000 128.133,84.000 127.376 C 84.000 126.619,84.180 126.000,84.400 126.000 C 84.620 126.000,84.800 125.645,84.800 125.212 C 84.800 124.779,85.160 123.783,85.600 123.000 C 86.040 122.217,86.400 121.221,86.400 120.788 C 86.400 120.355,86.580 120.000,86.800 120.000 C 87.020 120.000,87.200 119.640,87.200 119.200 C 87.200 118.760,87.380 118.400,87.600 118.400 C 87.820 118.400,88.000 118.040,88.000 117.600 C 88.000 117.160,88.180 116.800,88.400 116.800 C 88.620 116.800,88.800 116.440,88.800 116.000 C 88.800 115.560,88.980 115.200,89.200 115.200 C 89.420 115.200,89.600 114.840,89.600 114.400 C 89.600 113.960,89.747 113.600,89.926 113.600 C 90.281 113.600,91.600 111.037,91.600 110.347 C 91.600 110.113,92.140 109.417,92.800 108.800 C 93.460 108.183,94.000 107.547,94.000 107.386 C 94.000 107.226,94.324 106.803,94.719 106.447 C 95.114 106.091,95.878 105.170,96.415 104.400 C 97.547 102.778,102.236 98.000,102.697 98.000 C 102.998 98.000,105.509 95.952,107.479 94.100 C 108.006 93.605,108.658 93.200,108.930 93.200 C 109.201 93.200,109.683 92.840,110.000 92.400 C 110.317 91.960,110.813 91.600,111.101 91.600 C 111.389 91.600,112.924 90.970,114.511 90.200 C 116.099 89.430,117.623 88.800,117.899 88.800 C 118.174 88.800,118.400 88.620,118.400 88.400 C 118.400 88.180,118.760 88.000,119.200 88.000 C 119.640 88.000,120.000 87.820,120.000 87.600 C 120.000 87.380,120.439 87.200,120.976 87.200 C 121.513 87.200,122.064 87.020,122.200 86.800 C 122.336 86.580,122.887 86.400,123.424 86.400 C 123.961 86.400,124.400 86.220,124.400 86.000 C 124.400 85.780,124.940 85.600,125.600 85.600 C 126.260 85.600,126.800 85.420,126.800 85.200 C 126.800 84.980,127.419 84.800,128.176 84.800 C 128.933 84.800,129.664 84.620,129.800 84.400 C 129.936 84.180,130.757 84.000,131.624 84.000 C 132.491 84.000,133.200 83.820,133.200 83.600 C 133.200 83.380,133.999 83.200,134.976 83.200 C 135.953 83.200,136.864 83.020,137.000 82.800 C 137.136 82.580,138.407 82.400,139.824 82.400 C 141.275 82.400,142.400 82.225,142.400 82.000 C 142.400 81.735,161.867 81.600,200.000 81.600 C 238.133 81.600,257.600 81.735,257.600 82.000 M158.400 102.400 C 158.400 102.653,155.533 102.800,150.600 102.800 C 145.667 102.800,142.800 102.947,142.800 103.200 C 142.800 103.422,141.741 103.600,140.424 103.600 C 139.117 103.600,137.936 103.780,137.800 104.000 C 137.664 104.220,136.753 104.400,135.776 104.400 C 134.799 104.400,134.000 104.580,134.000 104.800 C 134.000 105.020,133.460 105.200,132.800 105.200 C 132.140 105.200,131.600 105.380,131.600 105.600 C 131.600 105.820,131.060 106.000,130.400 106.000 C 129.740 106.000,129.200 106.180,129.200 106.400 C 129.200 106.620,128.876 106.800,128.480 106.800 C 127.586 106.800,125.607 107.694,125.603 108.100 C 125.601 108.265,125.284 108.400,124.897 108.400 C 124.100 108.400,120.518 110.225,119.689 111.053 C 119.389 111.354,118.983 111.600,118.789 111.600 C 118.284 111.600,112.373 117.529,111.211 119.200 C 110.676 119.970,110.126 120.690,109.988 120.800 C 109.850 120.910,109.213 121.990,108.572 123.200 C 107.931 124.410,107.314 125.490,107.202 125.600 C 107.090 125.710,106.753 126.340,106.453 127.000 C 106.152 127.660,105.748 128.513,105.553 128.895 C 105.359 129.277,105.200 129.862,105.200 130.195 C 105.200 130.528,105.020 130.800,104.800 130.800 C 104.580 130.800,104.400 131.239,104.400 131.776 C 104.400 132.313,104.220 132.864,104.000 133.000 C 103.780 133.136,103.600 133.777,103.600 134.424 C 103.600 135.071,103.420 135.600,103.200 135.600 C 102.980 135.600,102.800 136.320,102.800 137.200 C 102.800 138.080,102.620 138.800,102.400 138.800 C 102.180 138.800,102.000 139.700,102.000 140.800 C 102.000 141.900,101.820 142.800,101.600 142.800 C 101.357 142.800,101.200 144.573,101.200 147.320 C 101.200 149.824,101.020 152.020,100.797 152.243 C 99.901 153.139,100.714 256.061,101.624 256.980 C 101.831 257.189,102.000 258.224,102.000 259.280 C 102.000 260.336,102.180 261.200,102.400 261.200 C 102.620 261.200,102.800 261.920,102.800 262.800 C 102.800 263.680,102.980 264.400,103.200 264.400 C 103.420 264.400,103.600 264.940,103.600 265.600 C 103.600 266.260,103.780 266.800,104.000 266.800 C 104.220 266.800,104.400 267.340,104.400 268.000 C 104.400 268.660,104.580 269.200,104.800 269.200 C 105.020 269.200,105.200 269.650,105.200 270.200 C 105.200 270.750,105.380 271.200,105.600 271.200 C 105.820 271.200,106.000 271.560,106.000 272.000 C 106.000 272.440,106.180 272.800,106.400 272.800 C 106.620 272.800,106.800 273.160,106.800 273.600 C 106.800 274.040,106.959 274.400,107.153 274.400 C 107.347 274.400,107.996 275.435,108.594 276.700 C 109.193 277.965,109.807 279.090,109.960 279.200 C 110.113 279.310,110.676 280.030,111.211 280.800 C 112.373 282.471,118.284 288.400,118.789 288.400 C 118.983 288.400,119.389 288.646,119.689 288.947 C 120.518 289.775,124.100 291.600,124.897 291.600 C 125.284 291.600,125.601 291.735,125.603 291.900 C 125.607 292.306,127.586 293.200,128.480 293.200 C 128.876 293.200,129.200 293.380,129.200 293.600 C 129.200 293.820,129.740 294.000,130.400 294.000 C 131.060 294.000,131.600 294.180,131.600 294.400 C 131.600 294.620,132.140 294.800,132.800 294.800 C 133.460 294.800,134.000 294.980,134.000 295.200 C 134.000 295.420,134.900 295.600,136.000 295.600 C 137.100 295.600,138.000 295.780,138.000 296.000 C 138.000 296.222,139.067 296.400,140.400 296.400 C 141.733 296.400,142.800 296.578,142.800 296.800 C 142.800 297.053,145.667 297.200,150.600 297.200 C 155.533 297.200,158.400 297.347,158.400 297.600 C 158.400 297.864,172.533 298.000,200.000 298.000 C 227.467 298.000,241.600 297.864,241.600 297.600 C 241.600 297.347,244.467 297.200,249.400 297.200 C 254.333 297.200,257.200 297.053,257.200 296.800 C 257.200 296.578,258.267 296.400,259.600 296.400 C 260.933 296.400,262.000 296.222,262.000 296.000 C 262.000 295.780,262.900 295.600,264.000 295.600 C 265.100 295.600,266.000 295.420,266.000 295.200 C 266.000 294.980,266.529 294.800,267.176 294.800 C 267.823 294.800,268.464 294.620,268.600 294.400 C 268.736 294.180,269.287 294.000,269.824 294.000 C 270.361 294.000,270.800 293.820,270.800 293.600 C 270.800 293.380,271.124 293.200,271.520 293.200 C 272.414 293.200,274.393 292.306,274.397 291.900 C 274.399 291.735,274.716 291.600,275.103 291.600 C 275.900 291.600,279.482 289.775,280.311 288.947 C 280.611 288.646,281.028 288.400,281.238 288.400 C 281.701 288.400,289.200 280.854,289.200 280.388 C 289.200 280.206,289.436 279.819,289.724 279.529 C 290.012 279.238,290.775 278.010,291.421 276.800 C 292.066 275.590,292.685 274.510,292.797 274.400 C 293.273 273.931,294.000 272.364,294.000 271.805 C 294.000 271.472,294.180 271.200,294.400 271.200 C 294.620 271.200,294.800 270.750,294.800 270.200 C 294.800 269.650,294.980 269.200,295.200 269.200 C 295.420 269.200,295.600 268.761,295.600 268.224 C 295.600 267.687,295.780 267.136,296.000 267.000 C 296.220 266.864,296.400 266.223,296.400 265.576 C 296.400 264.929,296.580 264.400,296.800 264.400 C 297.020 264.400,297.200 263.680,297.200 262.800 C 297.200 261.920,297.380 261.200,297.600 261.200 C 297.820 261.200,298.000 260.315,298.000 259.233 C 298.000 258.016,298.190 257.203,298.500 257.100 C 298.897 256.968,299.000 245.191,299.000 200.000 C 299.000 154.809,298.897 143.032,298.500 142.900 C 298.190 142.797,298.000 141.984,298.000 140.767 C 298.000 139.685,297.820 138.800,297.600 138.800 C 297.380 138.800,297.200 138.080,297.200 137.200 C 297.200 136.320,297.020 135.600,296.800 135.600 C 296.580 135.600,296.400 135.071,296.400 134.424 C 296.400 133.777,296.220 133.136,296.000 133.000 C 295.780 132.864,295.600 132.313,295.600 131.776 C 295.600 131.239,295.420 130.800,295.200 130.800 C 294.980 130.800,294.800 130.350,294.800 129.800 C 294.800 129.250,294.620 128.800,294.400 128.800 C 294.180 128.800,294.000 128.528,294.000 128.195 C 294.000 127.636,293.273 126.069,292.797 125.600 C 292.685 125.490,292.066 124.410,291.421 123.200 C 290.775 121.990,290.012 120.762,289.724 120.471 C 289.436 120.181,289.200 119.794,289.200 119.612 C 289.200 119.146,281.701 111.600,281.238 111.600 C 281.028 111.600,280.611 111.354,280.311 111.053 C 279.482 110.225,275.900 108.400,275.103 108.400 C 274.716 108.400,274.399 108.265,274.397 108.100 C 274.393 107.694,272.414 106.800,271.520 106.800 C 271.124 106.800,270.800 106.620,270.800 106.400 C 270.800 106.180,270.361 106.000,269.824 106.000 C 269.287 106.000,268.736 105.820,268.600 105.600 C 268.464 105.380,267.823 105.200,267.176 105.200 C 266.529 105.200,266.000 105.020,266.000 104.800 C 266.000 104.580,265.100 104.400,264.000 104.400 C 262.900 104.400,262.000 104.220,262.000 104.000 C 262.000 103.778,260.933 103.600,259.600 103.600 C 258.267 103.600,257.200 103.422,257.200 103.200 C 257.200 102.947,254.333 102.800,249.400 102.800 C 244.467 102.800,241.600 102.653,241.600 102.400 C 241.600 102.136,227.467 102.000,200.000 102.000 C 172.533 102.000,158.400 102.136,158.400 102.400 M267.533 125.653 C 267.607 125.844,268.012 126.000,268.433 126.000 C 268.855 126.000,269.200 126.180,269.200 126.400 C 269.200 126.620,269.475 126.800,269.811 126.800 C 270.604 126.800,274.000 130.196,274.000 130.989 C 274.000 131.325,274.160 131.600,274.355 131.600 C 275.865 131.600,275.606 140.996,274.043 142.912 C 272.259 145.100,269.787 147.200,268.997 147.200 C 268.669 147.200,268.400 147.380,268.400 147.600 C 268.400 147.820,267.860 148.000,267.200 148.000 C 266.540 148.000,266.000 148.180,266.000 148.400 C 266.000 148.620,265.021 148.800,263.824 148.800 C 262.627 148.800,261.536 148.620,261.400 148.400 C 261.264 148.180,260.758 147.996,260.276 147.990 C 259.117 147.977,255.966 145.634,254.539 143.724 C 253.913 142.886,253.265 142.140,253.100 142.067 C 252.935 141.993,252.800 141.408,252.800 140.767 C 252.800 140.125,252.620 139.600,252.400 139.600 C 252.171 139.600,252.000 138.400,252.000 136.800 C 252.000 135.200,252.171 134.000,252.400 134.000 C 252.620 134.000,252.800 133.766,252.800 133.480 C 252.800 132.744,253.741 130.807,254.100 130.803 C 254.265 130.801,254.400 130.524,254.400 130.187 C 254.400 129.501,256.942 126.800,257.587 126.800 C 257.814 126.800,258.000 126.620,258.000 126.400 C 258.000 126.180,258.360 126.000,258.800 126.000 C 259.240 126.000,259.600 125.830,259.600 125.623 C 259.600 124.826,267.226 124.855,267.533 125.653 M206.000 137.600 C 206.000 137.825,207.125 138.000,208.576 138.000 C 209.993 138.000,211.252 138.161,211.374 138.358 C 211.495 138.555,212.271 138.810,213.097 138.926 C 215.137 139.211,216.839 139.595,217.800 139.987 C 219.164 140.543,222.863 141.600,223.446 141.600 C 223.751 141.600,224.000 141.780,224.000 142.000 C 224.000 142.220,224.360 142.400,224.800 142.400 C 225.240 142.400,225.600 142.580,225.600 142.800 C 225.600 143.020,226.050 143.200,226.600 143.200 C 227.150 143.200,227.600 143.359,227.600 143.553 C 227.600 143.748,227.915 144.007,228.300 144.129 C 229.236 144.425,231.366 145.724,231.533 146.100 C 231.607 146.265,231.972 146.400,232.345 146.400 C 232.718 146.400,233.283 146.760,233.600 147.200 C 233.917 147.640,234.457 148.000,234.800 148.000 C 235.143 148.000,235.683 148.360,236.000 148.800 C 236.317 149.240,236.772 149.600,237.010 149.600 C 238.219 149.600,250.400 161.781,250.400 162.990 C 250.400 163.228,250.760 163.683,251.200 164.000 C 251.640 164.317,252.000 164.857,252.000 165.200 C 252.000 165.543,252.360 166.083,252.800 166.400 C 253.240 166.717,253.600 167.297,253.600 167.688 C 253.600 168.080,253.759 168.400,253.953 168.400 C 254.148 168.400,254.407 168.715,254.529 169.100 C 254.825 170.036,256.124 172.166,256.500 172.333 C 256.665 172.407,256.800 172.902,256.800 173.433 C 256.800 173.965,256.980 174.400,257.200 174.400 C 257.420 174.400,257.600 174.760,257.600 175.200 C 257.600 175.640,257.780 176.000,258.000 176.000 C 258.220 176.000,258.400 176.249,258.400 176.554 C 258.400 177.259,259.558 181.178,260.037 182.095 C 260.237 182.477,260.400 183.321,260.400 183.971 C 260.400 184.621,260.580 185.264,260.800 185.400 C 261.020 185.536,261.200 186.321,261.200 187.144 C 261.200 187.967,261.365 188.811,261.566 189.020 C 262.362 189.846,263.139 205.021,262.422 205.738 C 262.190 205.970,262.000 207.283,262.000 208.656 C 262.000 210.029,261.839 211.252,261.642 211.374 C 261.445 211.495,261.190 212.271,261.074 213.097 C 260.789 215.137,260.405 216.839,260.013 217.800 C 259.457 219.164,258.400 222.863,258.400 223.446 C 258.400 223.751,258.220 224.000,258.000 224.000 C 257.780 224.000,257.600 224.450,257.600 225.000 C 257.600 225.550,257.420 226.000,257.200 226.000 C 256.980 226.000,256.800 226.360,256.800 226.800 C 256.800 227.240,256.620 227.600,256.400 227.600 C 256.180 227.600,256.000 227.878,256.000 228.217 C 256.000 228.556,255.640 229.220,255.200 229.692 C 254.760 230.164,254.400 230.787,254.400 231.075 C 254.400 231.364,254.220 231.600,254.000 231.600 C 253.780 231.600,253.600 231.920,253.600 232.312 C 253.600 232.703,253.240 233.283,252.800 233.600 C 252.360 233.917,252.000 234.457,252.000 234.800 C 252.000 235.143,251.640 235.683,251.200 236.000 C 250.760 236.317,250.400 236.811,250.400 237.098 C 250.400 238.226,238.211 250.400,237.082 250.400 C 236.804 250.400,236.317 250.760,236.000 251.200 C 235.683 251.640,235.143 252.000,234.800 252.000 C 234.457 252.000,233.917 252.360,233.600 252.800 C 233.283 253.240,232.703 253.600,232.312 253.600 C 231.920 253.600,231.600 253.759,231.600 253.953 C 231.600 254.148,231.285 254.407,230.900 254.529 C 229.964 254.825,227.834 256.124,227.667 256.500 C 227.593 256.665,227.199 256.800,226.790 256.800 C 226.382 256.800,225.936 256.980,225.800 257.200 C 225.664 257.420,225.203 257.600,224.776 257.600 C 224.349 257.600,224.000 257.780,224.000 258.000 C 224.000 258.220,223.751 258.400,223.446 258.400 C 222.863 258.400,219.164 259.457,217.800 260.013 C 216.839 260.405,215.137 260.789,213.097 261.074 C 212.271 261.190,211.495 261.445,211.374 261.642 C 211.252 261.839,209.993 262.000,208.576 262.000 C 207.042 262.000,206.000 262.170,206.000 262.421 C 206.000 263.172,189.843 262.360,189.020 261.566 C 188.811 261.365,187.967 261.200,187.144 261.200 C 186.321 261.200,185.536 261.020,185.400 260.800 C 185.264 260.580,184.621 260.400,183.971 260.400 C 183.321 260.400,182.477 260.237,182.095 260.037 C 181.178 259.558,177.259 258.400,176.554 258.400 C 176.249 258.400,176.000 258.220,176.000 258.000 C 176.000 257.780,175.640 257.600,175.200 257.600 C 174.760 257.600,174.400 257.420,174.400 257.200 C 174.400 256.980,173.950 256.800,173.400 256.800 C 172.850 256.800,172.400 256.641,172.400 256.447 C 172.400 256.252,172.085 255.993,171.700 255.871 C 170.764 255.575,168.634 254.276,168.467 253.900 C 168.393 253.735,168.028 253.600,167.655 253.600 C 167.282 253.600,166.717 253.240,166.400 252.800 C 166.083 252.360,165.543 252.000,165.200 252.000 C 164.857 252.000,164.317 251.640,164.000 251.200 C 163.683 250.760,163.228 250.400,162.990 250.400 C 161.855 250.400,151.210 239.875,149.961 237.518 C 149.693 237.013,149.143 236.309,148.737 235.953 C 148.332 235.597,148.000 235.052,148.000 234.741 C 148.000 234.431,147.640 233.917,147.200 233.600 C 146.760 233.283,146.400 232.703,146.400 232.312 C 146.400 231.920,146.220 231.600,146.000 231.600 C 145.780 231.600,145.600 231.322,145.600 230.983 C 145.600 230.644,145.240 229.980,144.800 229.508 C 144.360 229.036,144.000 228.413,144.000 228.125 C 144.000 227.836,143.820 227.600,143.600 227.600 C 143.380 227.600,143.200 227.150,143.200 226.600 C 143.200 226.050,143.020 225.600,142.800 225.600 C 142.580 225.600,142.400 225.240,142.400 224.800 C 142.400 224.360,142.220 224.000,142.000 224.000 C 141.780 224.000,141.600 223.751,141.600 223.446 C 141.600 222.863,140.543 219.164,139.987 217.800 C 139.807 217.360,139.547 216.460,139.409 215.800 C 139.270 215.140,138.969 213.790,138.740 212.800 C 138.511 211.810,138.235 209.875,138.127 208.500 C 138.020 207.125,137.758 206.000,137.545 206.000 C 136.839 206.000,137.687 189.391,138.432 188.620 C 138.635 188.411,138.800 187.657,138.800 186.944 C 138.800 186.231,138.980 185.536,139.200 185.400 C 139.420 185.264,139.600 184.621,139.600 183.971 C 139.600 183.321,139.763 182.477,139.963 182.095 C 140.442 181.178,141.600 177.259,141.600 176.554 C 141.600 176.249,141.780 176.000,142.000 176.000 C 142.220 176.000,142.400 175.640,142.400 175.200 C 142.400 174.760,142.580 174.400,142.800 174.400 C 143.020 174.400,143.200 174.135,143.200 173.811 C 143.200 173.487,143.658 172.452,144.218 171.511 C 144.777 170.570,145.338 169.485,145.464 169.100 C 145.590 168.715,145.852 168.400,146.047 168.400 C 146.241 168.400,146.400 168.080,146.400 167.688 C 146.400 167.297,146.760 166.717,147.200 166.400 C 147.640 166.083,148.000 165.543,148.000 165.200 C 148.000 164.857,148.360 164.317,148.800 164.000 C 149.240 163.683,149.600 163.228,149.600 162.990 C 149.600 161.794,161.796 149.600,162.993 149.600 C 163.230 149.600,163.683 149.240,164.000 148.800 C 164.317 148.360,164.857 148.000,165.200 148.000 C 165.543 148.000,166.083 147.640,166.400 147.200 C 166.717 146.760,167.297 146.400,167.688 146.400 C 168.080 146.400,168.400 146.220,168.400 146.000 C 168.400 145.780,168.636 145.600,168.925 145.600 C 169.213 145.600,169.836 145.240,170.308 144.800 C 170.780 144.360,171.444 144.000,171.783 144.000 C 172.122 144.000,172.400 143.820,172.400 143.600 C 172.400 143.380,172.749 143.200,173.176 143.200 C 173.603 143.200,174.064 143.020,174.200 142.800 C 174.336 142.580,174.797 142.400,175.224 142.400 C 175.651 142.400,176.000 142.220,176.000 142.000 C 176.000 141.780,176.249 141.600,176.554 141.600 C 177.259 141.600,181.178 140.442,182.095 139.963 C 182.477 139.763,183.321 139.600,183.971 139.600 C 184.621 139.600,185.264 139.420,185.400 139.200 C 185.536 138.980,186.256 138.800,187.000 138.800 C 187.744 138.800,188.464 138.620,188.600 138.400 C 188.736 138.180,189.962 137.997,191.324 137.994 C 192.686 137.991,194.070 137.813,194.400 137.600 C 195.210 137.076,206.000 137.076,206.000 137.600 M192.200 158.868 C 191.100 159.066,189.525 159.331,188.700 159.456 C 187.875 159.582,187.200 159.845,187.200 160.042 C 187.200 160.239,186.838 160.400,186.395 160.400 C 185.952 160.400,185.277 160.565,184.895 160.766 C 184.513 160.968,183.525 161.418,182.700 161.766 C 179.525 163.108,178.400 163.704,178.400 164.046 C 178.400 164.241,178.164 164.400,177.875 164.400 C 177.587 164.400,176.964 164.760,176.492 165.200 C 176.020 165.640,175.522 166.000,175.385 166.000 C 175.249 166.000,174.476 166.675,173.669 167.500 C 172.861 168.325,171.725 169.245,171.144 169.544 C 170.563 169.843,169.843 170.563,169.544 171.144 C 169.245 171.725,168.325 172.861,167.500 173.669 C 166.675 174.476,166.000 175.331,166.000 175.569 C 166.000 175.806,165.850 176.000,165.668 176.000 C 165.485 176.000,165.080 176.495,164.768 177.100 C 164.456 177.705,164.100 178.290,163.976 178.400 C 163.852 178.510,163.156 179.860,162.429 181.400 C 161.702 182.940,160.948 184.513,160.754 184.895 C 160.559 185.277,160.400 185.952,160.400 186.395 C 160.400 186.838,160.239 187.200,160.042 187.200 C 159.845 187.200,159.584 187.875,159.462 188.700 C 159.340 189.525,159.065 191.190,158.850 192.400 C 158.345 195.240,158.345 204.760,158.850 207.600 C 159.065 208.810,159.340 210.475,159.462 211.300 C 159.584 212.125,159.845 212.800,160.042 212.800 C 160.239 212.800,160.400 213.162,160.400 213.605 C 160.400 214.048,160.559 214.723,160.754 215.105 C 160.948 215.487,161.702 217.060,162.429 218.600 C 163.156 220.140,163.852 221.490,163.976 221.600 C 164.100 221.710,164.456 222.295,164.768 222.900 C 165.080 223.505,165.485 224.000,165.668 224.000 C 165.850 224.000,166.000 224.194,166.000 224.431 C 166.000 224.669,166.675 225.524,167.500 226.331 C 168.325 227.139,169.245 228.275,169.544 228.856 C 169.843 229.437,170.563 230.157,171.144 230.456 C 171.725 230.755,172.861 231.675,173.669 232.500 C 174.476 233.325,175.331 234.000,175.569 234.000 C 175.806 234.000,176.000 234.150,176.000 234.332 C 176.000 234.515,176.495 234.920,177.100 235.232 C 177.705 235.544,178.290 235.900,178.400 236.024 C 178.510 236.148,179.860 236.844,181.400 237.571 C 182.940 238.298,184.513 239.052,184.895 239.246 C 185.277 239.441,185.952 239.600,186.395 239.600 C 186.838 239.600,187.200 239.761,187.200 239.958 C 187.200 240.155,187.875 240.418,188.700 240.542 C 189.525 240.667,191.280 240.941,192.600 241.151 C 193.920 241.361,197.250 241.532,200.000 241.532 C 202.750 241.532,206.080 241.361,207.400 241.151 C 208.720 240.941,210.475 240.667,211.300 240.542 C 212.125 240.418,212.800 240.155,212.800 239.958 C 212.800 239.761,213.162 239.600,213.605 239.600 C 214.048 239.600,214.723 239.441,215.105 239.246 C 215.487 239.052,217.060 238.298,218.600 237.571 C 220.140 236.844,221.490 236.148,221.600 236.024 C 221.710 235.900,222.295 235.544,222.900 235.232 C 223.505 234.920,224.000 234.515,224.000 234.332 C 224.000 234.150,224.194 234.000,224.431 234.000 C 224.669 234.000,225.524 233.325,226.331 232.500 C 227.139 231.675,228.275 230.755,228.856 230.456 C 229.437 230.157,230.157 229.437,230.456 228.856 C 230.755 228.275,231.675 227.139,232.500 226.331 C 233.325 225.524,234.000 224.751,234.000 224.615 C 234.000 224.478,234.360 223.980,234.800 223.508 C 235.240 223.036,235.600 222.413,235.600 222.125 C 235.600 221.836,235.759 221.600,235.954 221.600 C 236.296 221.600,236.892 220.475,238.234 217.300 C 238.582 216.475,239.032 215.487,239.234 215.105 C 239.435 214.723,239.600 214.048,239.600 213.605 C 239.600 213.162,239.761 212.800,239.958 212.800 C 240.155 212.800,240.418 212.125,240.542 211.300 C 240.667 210.475,240.941 208.720,241.151 207.400 C 241.361 206.080,241.532 202.750,241.532 200.000 C 241.532 197.250,241.361 193.920,241.151 192.600 C 240.941 191.280,240.667 189.525,240.542 188.700 C 240.418 187.875,240.155 187.200,239.958 187.200 C 239.761 187.200,239.600 186.838,239.600 186.395 C 239.600 185.952,239.435 185.277,239.234 184.895 C 239.032 184.513,238.582 183.525,238.234 182.700 C 236.892 179.525,236.296 178.400,235.954 178.400 C 235.759 178.400,235.600 178.164,235.600 177.875 C 235.600 177.587,235.240 176.964,234.800 176.492 C 234.360 176.020,234.000 175.522,234.000 175.385 C 234.000 175.249,233.325 174.476,232.500 173.669 C 231.675 172.861,230.755 171.725,230.456 171.144 C 230.157 170.563,229.437 169.843,228.856 169.544 C 228.275 169.245,227.139 168.325,226.331 167.500 C 225.524 166.675,224.751 166.000,224.615 166.000 C 224.478 166.000,223.980 165.640,223.508 165.200 C 223.036 164.760,222.413 164.400,222.125 164.400 C 221.836 164.400,221.600 164.248,221.600 164.063 C 221.600 163.748,219.089 162.409,216.800 161.503 C 216.250 161.285,215.487 160.948,215.105 160.753 C 214.723 160.559,214.048 160.400,213.605 160.400 C 213.162 160.400,212.800 160.239,212.800 160.042 C 212.800 159.845,212.125 159.584,211.300 159.462 C 210.475 159.340,208.810 159.065,207.600 158.850 C 204.884 158.367,194.912 158.378,192.200 158.868 " stroke="none" fill="#ffffff" fill-rule="evenodd"></path><path id="path1" d="" stroke="none" fill="#ffffff" fill-rule="evenodd"></path><path id="path2" d="" stroke="none" fill="#ffffff" fill-rule="evenodd"></path><path id="path3" d="" stroke="none" fill="#ffffff" fill-rule="evenodd"></path><path id="path4" d="" stroke="none" fill="#ffffff" fill-rule="evenodd"></path></g></svg>