<svg id="svg" version="1.1" xmlns="http://www.w3.org/2000/svg" xmlns:xlink="http://www.w3.org/1999/xlink" width="400" height="400" viewBox="0, 0, 400,400"><g id="svgg"><path id="path0" d="M42.966 60.550 L 32.438 71.100 55.311 93.983 L 78.185 116.866 73.272 120.861 C 51.684 138.414,30.408 166.626,19.510 192.147 L 16.157 200.000 19.510 207.853 C 58.744 299.737,166.019 347.114,262.471 315.154 L 272.989 311.669 300.944 339.616 L 328.899 367.563 339.450 357.035 C 345.252 351.244,350.000 346.149,350.000 345.713 C 350.000 344.677,55.321 50.000,54.285 50.000 C 53.850 50.000,48.756 54.747,42.966 60.550 M174.219 76.229 C 163.522 77.738,150.531 80.675,140.672 83.813 L 132.769 86.328 151.100 104.631 L 169.430 122.934 176.317 120.851 C 239.115 101.861,298.138 160.887,279.148 223.687 L 277.064 230.577 301.727 255.240 L 326.390 279.903 336.727 269.834 C 355.976 251.084,368.633 233.184,379.896 208.785 C 384.480 198.853,384.769 201.190,377.019 185.541 C 348.246 127.444,296.584 88.697,232.712 77.308 C 219.970 75.036,186.987 74.427,174.219 76.229 M223.021 176.537 C 251.679 205.204,251.162 204.841,250.326 195.703 C 248.013 170.422,226.414 150.000,201.989 150.000 L 196.493 150.000 223.021 176.537 M138.267 176.939 L 150.343 189.034 150.105 198.249 C 149.314 228.898,171.102 250.686,201.751 249.895 L 210.966 249.657 223.061 261.733 C 237.147 275.796,236.450 274.316,230.170 276.830 C 189.686 293.037,143.557 274.554,124.848 234.629 C 115.468 214.614,114.847 190.620,123.170 169.830 C 125.684 163.550,124.204 162.853,138.267 176.939 " stroke="none" fill="#ffffff" fill-rule="evenodd"></path></g></svg>