<svg id="svg" xmlns="http://www.w3.org/2000/svg" xmlns:xlink="http://www.w3.org/1999/xlink" width="400" height="400" viewBox="0, 0, 400,400"><g id="svgg"><path id="path0" d="M251.172 1.176 C 174.575 13.400,124.254 92.547,147.116 164.844 L 148.228 168.359 74.309 242.384 L 0.391 316.408 0.174 354.366 C -0.121 405.793,-5.769 400.177,45.920 399.849 L 83.637 399.609 94.944 388.228 L 106.250 376.847 106.250 371.292 C 106.250 368.238,105.873 363.025,105.411 359.708 C 104.384 352.320,103.537 352.889,117.375 351.674 C 138.594 349.812,138.821 349.578,140.978 327.467 C 142.291 314.012,140.869 315.420,152.029 316.527 C 163.448 317.660,166.089 317.223,169.581 313.622 L 172.266 310.855 172.511 297.224 L 172.757 283.594 185.245 283.594 C 200.763 283.594,198.478 284.843,217.058 266.190 L 232.164 251.025 239.324 252.884 C 321.798 274.307,399.972 213.977,399.972 128.906 C 399.972 49.444,329.231 -11.280,251.172 1.176 M310.242 61.735 C 337.645 66.932,348.167 100.372,328.567 119.973 C 308.659 139.880,275.138 128.874,270.194 100.806 C 266.252 78.424,287.733 57.466,310.242 61.735 " stroke="none" fill="#ffffff" fill-rule="evenodd"></path></g></svg>