<svg id="svg" xmlns="http://www.w3.org/2000/svg" xmlns:xlink="http://www.w3.org/1999/xlink" width="400" height="400" viewBox="0, 0, 400,400" version="1.1"><g id="svgg"><path id="path0" d="M178.300 0.275 C 176.375 0.361,174.800 0.604,174.800 0.816 C 174.800 1.027,173.551 1.200,172.024 1.200 C 170.497 1.200,169.136 1.380,169.000 1.600 C 168.864 1.820,167.773 2.000,166.576 2.000 C 165.379 2.000,164.400 2.180,164.400 2.400 C 164.400 2.620,163.410 2.800,162.200 2.800 C 160.990 2.800,160.000 2.980,160.000 3.200 C 160.000 3.420,159.201 3.600,158.224 3.600 C 157.247 3.600,156.336 3.780,156.200 4.000 C 156.064 4.220,155.243 4.400,154.376 4.400 C 153.509 4.400,152.800 4.580,152.800 4.800 C 152.800 5.020,152.080 5.200,151.200 5.200 C 150.320 5.200,149.600 5.380,149.600 5.600 C 149.600 5.820,148.981 6.000,148.224 6.000 C 147.467 6.000,146.736 6.180,146.600 6.400 C 146.464 6.620,145.823 6.800,145.176 6.800 C 144.529 6.800,144.000 6.980,144.000 7.200 C 144.000 7.420,143.370 7.600,142.600 7.600 C 141.830 7.600,141.200 7.780,141.200 8.000 C 141.200 8.220,140.771 8.400,140.246 8.400 C 139.355 8.400,136.018 9.285,134.200 10.003 C 133.760 10.177,132.770 10.536,132.000 10.800 C 130.307 11.382,128.840 11.971,127.905 12.447 C 127.523 12.641,126.848 12.800,126.405 12.800 C 125.962 12.800,125.600 12.980,125.600 13.200 C 125.600 13.420,125.240 13.600,124.800 13.600 C 124.360 13.600,124.000 13.780,124.000 14.000 C 124.000 14.220,123.561 14.400,123.024 14.400 C 122.487 14.400,121.936 14.580,121.800 14.800 C 121.664 15.020,121.203 15.200,120.776 15.200 C 120.349 15.200,120.000 15.380,120.000 15.600 C 120.000 15.820,119.640 16.000,119.200 16.000 C 118.760 16.000,118.400 16.180,118.400 16.400 C 118.400 16.620,118.128 16.800,117.795 16.800 C 117.462 16.800,116.877 16.962,116.495 17.159 C 116.113 17.357,114.180 18.300,112.200 19.255 C 110.220 20.211,108.540 21.129,108.467 21.296 C 108.393 21.463,107.988 21.600,107.567 21.600 C 107.145 21.600,106.800 21.780,106.800 22.000 C 106.800 22.220,106.440 22.400,106.000 22.400 C 105.560 22.400,105.200 22.580,105.200 22.800 C 105.200 23.020,104.964 23.200,104.675 23.200 C 104.387 23.200,103.764 23.560,103.292 24.000 C 102.820 24.440,102.225 24.800,101.971 24.800 C 101.389 24.800,97.447 26.895,97.267 27.300 C 97.193 27.465,96.956 27.600,96.739 27.600 C 96.522 27.600,95.559 28.140,94.600 28.800 C 93.641 29.460,92.703 30.000,92.516 30.000 C 92.329 30.000,91.917 30.360,91.600 30.800 C 91.283 31.240,90.743 31.600,90.400 31.600 C 90.057 31.600,89.517 31.960,89.200 32.400 C 88.883 32.840,88.343 33.200,88.000 33.200 C 87.657 33.200,87.117 33.560,86.800 34.000 C 86.483 34.440,85.991 34.800,85.708 34.800 C 85.425 34.800,84.628 35.340,83.937 36.000 C 83.246 36.660,82.478 37.200,82.229 37.200 C 81.980 37.200,81.517 37.560,81.200 38.000 C 80.883 38.440,80.375 38.800,80.072 38.800 C 79.769 38.800,79.017 39.340,78.400 40.000 C 77.783 40.660,77.164 41.200,77.023 41.200 C 76.752 41.200,76.352 41.514,74.349 43.300 C 73.671 43.905,72.959 44.400,72.768 44.400 C 72.577 44.400,71.651 45.167,70.711 46.105 C 69.770 47.043,68.370 48.255,67.600 48.799 C 66.830 49.342,64.439 51.590,62.287 53.793 C 57.582 58.611,58.611 57.582,53.793 62.287 C 51.590 64.439,49.342 66.830,48.799 67.600 C 48.255 68.370,47.043 69.770,46.105 70.711 C 45.167 71.651,44.400 72.577,44.400 72.768 C 44.400 72.959,43.860 73.693,43.200 74.400 C 42.540 75.107,42.000 75.824,42.000 75.994 C 42.000 76.164,41.280 77.045,40.400 77.952 C 39.520 78.859,38.800 79.831,38.800 80.112 C 38.800 80.393,38.440 80.883,38.000 81.200 C 37.560 81.517,37.200 81.980,37.200 82.229 C 37.200 82.478,36.660 83.246,36.000 83.937 C 35.340 84.628,34.800 85.425,34.800 85.708 C 34.800 85.991,34.440 86.483,34.000 86.800 C 33.560 87.117,33.200 87.657,33.200 88.000 C 33.200 88.343,32.840 88.883,32.400 89.200 C 31.960 89.517,31.600 90.057,31.600 90.400 C 31.600 90.743,31.240 91.283,30.800 91.600 C 30.360 91.917,30.000 92.329,30.000 92.516 C 30.000 92.703,29.460 93.641,28.800 94.600 C 28.140 95.559,27.600 96.522,27.600 96.739 C 27.600 96.956,27.443 97.193,27.251 97.267 C 26.843 97.422,24.800 101.371,24.800 102.003 C 24.800 102.240,24.440 102.820,24.000 103.292 C 23.560 103.764,23.200 104.387,23.200 104.675 C 23.200 104.964,23.020 105.200,22.800 105.200 C 22.580 105.200,22.400 105.560,22.400 106.000 C 22.400 106.440,22.220 106.800,22.000 106.800 C 21.780 106.800,21.600 107.160,21.600 107.600 C 21.600 108.040,21.465 108.401,21.300 108.401 C 21.135 108.402,20.550 109.392,20.000 110.600 C 19.450 111.808,18.865 112.798,18.700 112.799 C 18.535 112.799,18.400 113.072,18.400 113.405 C 18.400 113.738,18.192 114.413,17.938 114.905 C 16.967 116.782,16.800 117.207,16.800 117.795 C 16.800 118.128,16.620 118.400,16.400 118.400 C 16.180 118.400,16.000 118.760,16.000 119.200 C 16.000 119.640,15.820 120.000,15.600 120.000 C 15.380 120.000,15.200 120.349,15.200 120.776 C 15.200 121.203,15.020 121.664,14.800 121.800 C 14.580 121.936,14.400 122.487,14.400 123.024 C 14.400 123.561,14.220 124.000,14.000 124.000 C 13.780 124.000,13.600 124.360,13.600 124.800 C 13.600 125.240,13.420 125.600,13.200 125.600 C 12.980 125.600,12.800 125.962,12.800 126.405 C 12.800 126.848,12.641 127.523,12.447 127.905 C 12.252 128.287,11.871 129.140,11.600 129.800 C 11.329 130.460,10.948 131.313,10.753 131.695 C 10.559 132.077,10.400 132.664,10.400 133.000 C 10.400 133.336,10.237 133.923,10.037 134.305 C 9.440 135.447,8.400 139.222,8.400 140.246 C 8.400 140.771,8.220 141.200,8.000 141.200 C 7.780 141.200,7.600 141.830,7.600 142.600 C 7.600 143.370,7.420 144.000,7.200 144.000 C 6.980 144.000,6.800 144.529,6.800 145.176 C 6.800 145.823,6.620 146.464,6.400 146.600 C 6.180 146.736,6.000 147.467,6.000 148.224 C 6.000 148.981,5.820 149.600,5.600 149.600 C 5.380 149.600,5.200 150.320,5.200 151.200 C 5.200 152.080,5.020 152.800,4.800 152.800 C 4.580 152.800,4.400 153.509,4.400 154.376 C 4.400 155.243,4.220 156.064,4.000 156.200 C 3.780 156.336,3.600 157.247,3.600 158.224 C 3.600 159.201,3.420 160.000,3.200 160.000 C 2.980 160.000,2.800 160.900,2.800 162.000 C 2.800 163.100,2.620 164.000,2.400 164.000 C 2.178 164.000,2.000 165.059,2.000 166.376 C 2.000 167.683,1.820 168.864,1.600 169.000 C 1.380 169.136,1.200 170.371,1.200 171.744 C 1.200 173.207,0.993 174.447,0.700 174.740 C 0.311 175.129,0.200 180.743,0.200 200.087 C 0.200 219.608,0.307 224.969,0.700 225.100 C 1.035 225.212,1.200 226.171,1.200 228.010 C 1.200 229.518,1.380 230.864,1.600 231.000 C 1.820 231.136,2.000 232.317,2.000 233.624 C 2.000 234.941,2.178 236.000,2.400 236.000 C 2.620 236.000,2.800 236.900,2.800 238.000 C 2.800 239.100,2.980 240.000,3.200 240.000 C 3.420 240.000,3.600 240.709,3.600 241.576 C 3.600 242.443,3.780 243.264,4.000 243.400 C 4.220 243.536,4.400 244.447,4.400 245.424 C 4.400 246.401,4.580 247.200,4.800 247.200 C 5.020 247.200,5.200 247.920,5.200 248.800 C 5.200 249.680,5.380 250.400,5.600 250.400 C 5.820 250.400,6.000 251.019,6.000 251.776 C 6.000 252.533,6.180 253.264,6.400 253.400 C 6.620 253.536,6.800 254.177,6.800 254.824 C 6.800 255.471,6.980 256.000,7.200 256.000 C 7.420 256.000,7.600 256.630,7.600 257.400 C 7.600 258.170,7.780 258.800,8.000 258.800 C 8.220 258.800,8.400 259.229,8.400 259.754 C 8.400 260.645,9.285 263.982,10.003 265.800 C 10.177 266.240,10.536 267.230,10.800 268.000 C 11.382 269.693,11.971 271.160,12.447 272.095 C 12.641 272.477,12.800 273.152,12.800 273.595 C 12.800 274.038,12.980 274.400,13.200 274.400 C 13.420 274.400,13.600 274.760,13.600 275.200 C 13.600 275.640,13.780 276.000,14.000 276.000 C 14.220 276.000,14.400 276.439,14.400 276.976 C 14.400 277.513,14.580 278.064,14.800 278.200 C 15.020 278.336,15.200 278.797,15.200 279.224 C 15.200 279.651,15.380 280.000,15.600 280.000 C 15.820 280.000,16.000 280.360,16.000 280.800 C 16.000 281.240,16.180 281.600,16.400 281.600 C 16.620 281.600,16.800 281.872,16.800 282.205 C 16.800 282.538,16.962 283.123,17.159 283.505 C 17.357 283.887,18.300 285.820,19.255 287.800 C 20.211 289.780,21.129 291.460,21.296 291.533 C 21.463 291.607,21.600 292.012,21.600 292.433 C 21.600 292.855,21.780 293.200,22.000 293.200 C 22.220 293.200,22.400 293.560,22.400 294.000 C 22.400 294.440,22.580 294.800,22.800 294.800 C 23.020 294.800,23.200 295.036,23.200 295.325 C 23.200 295.613,23.560 296.236,24.000 296.708 C 24.440 297.180,24.800 297.748,24.800 297.970 C 24.800 298.642,26.126 301.200,26.474 301.200 C 26.653 301.200,26.800 301.560,26.800 302.000 C 26.800 302.440,26.980 302.800,27.200 302.800 C 27.420 302.800,27.600 302.993,27.600 303.228 C 27.600 303.463,28.140 304.441,28.800 305.400 C 29.460 306.359,30.000 307.297,30.000 307.484 C 30.000 307.671,30.360 308.083,30.800 308.400 C 31.240 308.717,31.600 309.257,31.600 309.600 C 31.600 309.943,31.960 310.483,32.400 310.800 C 32.840 311.117,33.200 311.657,33.200 312.000 C 33.200 312.343,33.560 312.883,34.000 313.200 C 34.440 313.517,34.800 314.009,34.800 314.292 C 34.800 314.575,35.340 315.372,36.000 316.063 C 36.660 316.754,37.200 317.522,37.200 317.771 C 37.200 318.020,37.560 318.483,38.000 318.800 C 38.440 319.117,38.800 319.625,38.800 319.928 C 38.800 320.231,39.296 320.956,39.901 321.540 C 40.507 322.123,41.535 323.320,42.187 324.200 C 42.838 325.080,43.603 326.038,43.886 326.329 C 44.168 326.619,44.400 327.020,44.400 327.218 C 44.400 327.417,45.167 328.349,46.105 329.289 C 47.043 330.230,48.255 331.630,48.799 332.400 C 49.342 333.170,51.590 335.561,53.793 337.713 C 55.997 339.865,57.980 341.810,58.200 342.034 C 64.421 348.386,67.316 351.200,67.629 351.200 C 67.843 351.200,69.007 352.190,70.217 353.400 C 71.427 354.610,72.581 355.600,72.780 355.600 C 72.980 355.600,73.381 355.832,73.671 356.114 C 73.962 356.397,74.920 357.162,75.800 357.813 C 76.680 358.465,77.877 359.493,78.460 360.099 C 79.044 360.704,79.769 361.200,80.072 361.200 C 80.375 361.200,80.883 361.560,81.200 362.000 C 81.517 362.440,81.980 362.800,82.229 362.800 C 82.478 362.800,83.246 363.340,83.937 364.000 C 84.628 364.660,85.425 365.200,85.708 365.200 C 85.991 365.200,86.483 365.560,86.800 366.000 C 87.117 366.440,87.657 366.800,88.000 366.800 C 88.343 366.800,88.883 367.160,89.200 367.600 C 89.517 368.040,90.057 368.400,90.400 368.400 C 90.743 368.400,91.283 368.760,91.600 369.200 C 91.917 369.640,92.329 370.000,92.516 370.000 C 92.703 370.000,93.641 370.540,94.600 371.200 C 95.559 371.860,96.522 372.400,96.739 372.400 C 96.956 372.400,97.193 372.535,97.267 372.700 C 97.447 373.105,101.389 375.200,101.971 375.200 C 102.225 375.200,102.820 375.560,103.292 376.000 C 103.764 376.440,104.387 376.800,104.675 376.800 C 104.964 376.800,105.200 376.980,105.200 377.200 C 105.200 377.420,105.560 377.600,106.000 377.600 C 106.440 377.600,106.800 377.780,106.800 378.000 C 106.800 378.220,107.160 378.400,107.600 378.400 C 108.040 378.400,108.400 378.580,108.400 378.800 C 108.400 379.020,108.745 379.200,109.167 379.200 C 109.588 379.200,109.993 379.336,110.067 379.502 C 110.140 379.668,111.460 380.407,113.000 381.144 C 114.540 381.881,116.113 382.645,116.495 382.842 C 116.877 383.039,117.462 383.200,117.795 383.200 C 118.128 383.200,118.400 383.380,118.400 383.600 C 118.400 383.820,118.760 384.000,119.200 384.000 C 119.640 384.000,120.000 384.180,120.000 384.400 C 120.000 384.620,120.349 384.800,120.776 384.800 C 121.203 384.800,121.664 384.980,121.800 385.200 C 121.936 385.420,122.487 385.600,123.024 385.600 C 123.561 385.600,124.000 385.780,124.000 386.000 C 124.000 386.220,124.360 386.400,124.800 386.400 C 125.240 386.400,125.600 386.580,125.600 386.800 C 125.600 387.020,125.962 387.200,126.405 387.200 C 126.848 387.200,127.523 387.359,127.905 387.553 C 128.840 388.029,130.307 388.618,132.000 389.200 C 132.770 389.464,133.760 389.823,134.200 389.997 C 136.018 390.715,139.355 391.600,140.246 391.600 C 140.771 391.600,141.200 391.780,141.200 392.000 C 141.200 392.220,141.830 392.400,142.600 392.400 C 143.370 392.400,144.000 392.580,144.000 392.800 C 144.000 393.020,144.529 393.200,145.176 393.200 C 145.823 393.200,146.464 393.380,146.600 393.600 C 146.736 393.820,147.467 394.000,148.224 394.000 C 148.981 394.000,149.600 394.180,149.600 394.400 C 149.600 394.620,150.320 394.800,151.200 394.800 C 152.080 394.800,152.800 394.980,152.800 395.200 C 152.800 395.420,153.599 395.600,154.576 395.600 C 155.553 395.600,156.464 395.780,156.600 396.000 C 156.736 396.220,157.557 396.400,158.424 396.400 C 159.291 396.400,160.000 396.580,160.000 396.800 C 160.000 397.020,160.990 397.200,162.200 397.200 C 163.410 397.200,164.400 397.380,164.400 397.600 C 164.400 397.820,165.379 398.000,166.576 398.000 C 167.773 398.000,168.864 398.180,169.000 398.400 C 169.136 398.620,170.482 398.800,171.990 398.800 C 173.829 398.800,174.788 398.965,174.900 399.300 C 175.144 400.032,224.856 400.032,225.100 399.300 C 225.212 398.965,226.171 398.800,228.010 398.800 C 229.518 398.800,230.864 398.620,231.000 398.400 C 231.136 398.180,232.216 398.000,233.400 398.000 C 234.584 398.000,235.664 397.820,235.800 397.600 C 235.936 397.380,236.937 397.200,238.024 397.200 C 239.111 397.200,240.000 397.020,240.000 396.800 C 240.000 396.580,240.709 396.400,241.576 396.400 C 242.443 396.400,243.264 396.220,243.400 396.000 C 243.536 395.780,244.447 395.600,245.424 395.600 C 246.401 395.600,247.200 395.420,247.200 395.200 C 247.200 394.980,247.920 394.800,248.800 394.800 C 249.680 394.800,250.400 394.620,250.400 394.400 C 250.400 394.180,251.019 394.000,251.776 394.000 C 252.533 394.000,253.264 393.820,253.400 393.600 C 253.536 393.380,254.177 393.200,254.824 393.200 C 255.471 393.200,256.000 393.020,256.000 392.800 C 256.000 392.580,256.630 392.400,257.400 392.400 C 258.170 392.400,258.800 392.220,258.800 392.000 C 258.800 391.780,259.229 391.600,259.754 391.600 C 260.645 391.600,263.982 390.715,265.800 389.997 C 266.240 389.823,267.230 389.464,268.000 389.200 C 269.693 388.618,271.160 388.029,272.095 387.553 C 272.477 387.359,273.152 387.200,273.595 387.200 C 274.038 387.200,274.400 387.020,274.400 386.800 C 274.400 386.580,274.760 386.400,275.200 386.400 C 275.640 386.400,276.000 386.220,276.000 386.000 C 276.000 385.780,276.439 385.600,276.976 385.600 C 277.513 385.600,278.064 385.420,278.200 385.200 C 278.336 384.980,278.797 384.800,279.224 384.800 C 279.651 384.800,280.000 384.620,280.000 384.400 C 280.000 384.180,280.360 384.000,280.800 384.000 C 281.240 384.000,281.600 383.820,281.600 383.600 C 281.600 383.380,281.872 383.200,282.205 383.200 C 282.538 383.200,283.123 383.038,283.505 382.841 C 283.887 382.643,285.820 381.700,287.800 380.745 C 289.780 379.789,291.460 378.871,291.533 378.704 C 291.607 378.537,292.012 378.400,292.433 378.400 C 292.855 378.400,293.200 378.220,293.200 378.000 C 293.200 377.780,293.560 377.600,294.000 377.600 C 294.440 377.600,294.800 377.420,294.800 377.200 C 294.800 376.980,295.036 376.800,295.325 376.800 C 295.613 376.800,296.236 376.440,296.708 376.000 C 297.180 375.560,297.748 375.200,297.970 375.200 C 298.642 375.200,301.200 373.874,301.200 373.526 C 301.200 373.347,301.560 373.200,302.000 373.200 C 302.440 373.200,302.800 373.020,302.800 372.800 C 302.800 372.580,302.993 372.400,303.228 372.400 C 303.463 372.400,304.441 371.860,305.400 371.200 C 306.359 370.540,307.297 370.000,307.484 370.000 C 307.671 370.000,308.083 369.640,308.400 369.200 C 308.717 368.760,309.257 368.400,309.600 368.400 C 309.943 368.400,310.483 368.040,310.800 367.600 C 311.117 367.160,311.657 366.800,312.000 366.800 C 312.343 366.800,312.883 366.440,313.200 366.000 C 313.517 365.560,314.009 365.200,314.292 365.200 C 314.575 365.200,315.372 364.660,316.063 364.000 C 316.754 363.340,317.522 362.800,317.771 362.800 C 318.020 362.800,318.483 362.440,318.800 362.000 C 319.117 361.560,319.569 361.200,319.804 361.200 C 320.040 361.200,321.028 360.480,322.000 359.600 C 322.972 358.720,323.891 358.000,324.042 358.000 C 324.192 358.000,324.893 357.460,325.600 356.800 C 326.307 356.140,327.042 355.600,327.234 355.600 C 327.426 355.600,328.573 354.610,329.783 353.400 C 330.993 352.190,332.157 351.200,332.371 351.200 C 332.584 351.200,334.703 349.230,337.079 346.821 C 342.316 341.514,341.514 342.316,346.821 337.079 C 349.230 334.703,351.200 332.584,351.200 332.371 C 351.200 332.157,352.190 330.993,353.400 329.783 C 354.610 328.573,355.600 327.426,355.600 327.234 C 355.600 327.042,356.140 326.307,356.800 325.600 C 357.460 324.893,358.000 324.192,358.000 324.042 C 358.000 323.891,358.720 322.972,359.600 322.000 C 360.480 321.028,361.200 320.040,361.200 319.804 C 361.200 319.569,361.560 319.117,362.000 318.800 C 362.440 318.483,362.800 318.020,362.800 317.771 C 362.800 317.522,363.340 316.754,364.000 316.063 C 364.660 315.372,365.200 314.575,365.200 314.292 C 365.200 314.009,365.560 313.517,366.000 313.200 C 366.440 312.883,366.800 312.343,366.800 312.000 C 366.800 311.657,367.160 311.117,367.600 310.800 C 368.040 310.483,368.400 309.943,368.400 309.600 C 368.400 309.257,368.760 308.717,369.200 308.400 C 369.640 308.083,370.000 307.671,370.000 307.484 C 370.000 307.297,370.540 306.359,371.200 305.400 C 371.860 304.441,372.400 303.463,372.400 303.228 C 372.400 302.993,372.580 302.800,372.800 302.800 C 373.020 302.800,373.200 302.440,373.200 302.000 C 373.200 301.560,373.347 301.200,373.526 301.200 C 373.874 301.200,375.200 298.642,375.200 297.970 C 375.200 297.748,375.560 297.180,376.000 296.708 C 376.440 296.236,376.800 295.613,376.800 295.325 C 376.800 295.036,376.980 294.800,377.200 294.800 C 377.420 294.800,377.600 294.440,377.600 294.000 C 377.600 293.560,377.780 293.200,378.000 293.200 C 378.220 293.200,378.400 292.855,378.400 292.433 C 378.400 292.012,378.537 291.607,378.704 291.533 C 378.871 291.460,379.789 289.780,380.745 287.800 C 381.700 285.820,382.643 283.887,382.841 283.505 C 383.038 283.123,383.200 282.538,383.200 282.205 C 383.200 281.872,383.380 281.600,383.600 281.600 C 383.820 281.600,384.000 281.240,384.000 280.800 C 384.000 280.360,384.180 280.000,384.400 280.000 C 384.620 280.000,384.800 279.651,384.800 279.224 C 384.800 278.797,384.980 278.336,385.200 278.200 C 385.420 278.064,385.600 277.513,385.600 276.976 C 385.600 276.439,385.780 276.000,386.000 276.000 C 386.220 276.000,386.400 275.640,386.400 275.200 C 386.400 274.760,386.580 274.400,386.800 274.400 C 387.020 274.400,387.200 274.038,387.200 273.595 C 387.200 273.152,387.359 272.477,387.553 272.095 C 388.029 271.160,388.618 269.693,389.200 268.000 C 389.464 267.230,389.823 266.240,389.997 265.800 C 390.715 263.982,391.600 260.645,391.600 259.754 C 391.600 259.229,391.780 258.800,392.000 258.800 C 392.220 258.800,392.400 258.170,392.400 257.400 C 392.400 256.630,392.580 256.000,392.800 256.000 C 393.020 256.000,393.200 255.471,393.200 254.824 C 393.200 254.177,393.380 253.536,393.600 253.400 C 393.820 253.264,394.000 252.533,394.000 251.776 C 394.000 251.019,394.180 250.400,394.400 250.400 C 394.620 250.400,394.800 249.680,394.800 248.800 C 394.800 247.920,394.980 247.200,395.200 247.200 C 395.420 247.200,395.600 246.401,395.600 245.424 C 395.600 244.447,395.780 243.536,396.000 243.400 C 396.220 243.264,396.400 242.443,396.400 241.576 C 396.400 240.709,396.580 240.000,396.800 240.000 C 397.020 240.000,397.200 239.111,397.200 238.024 C 397.200 236.937,397.380 235.936,397.600 235.800 C 397.820 235.664,398.000 234.584,398.000 233.400 C 398.000 232.216,398.180 231.136,398.400 231.000 C 398.620 230.864,398.800 229.518,398.800 228.010 C 398.800 226.171,398.965 225.212,399.300 225.100 C 399.693 224.969,399.800 219.591,399.800 200.000 C 399.800 180.409,399.693 175.031,399.300 174.900 C 398.965 174.788,398.800 173.829,398.800 171.990 C 398.800 170.482,398.620 169.136,398.400 169.000 C 398.180 168.864,398.000 167.784,398.000 166.600 C 398.000 165.416,397.820 164.336,397.600 164.200 C 397.380 164.064,397.200 163.063,397.200 161.976 C 397.200 160.889,397.020 160.000,396.800 160.000 C 396.580 160.000,396.400 159.291,396.400 158.424 C 396.400 157.557,396.220 156.736,396.000 156.600 C 395.780 156.464,395.600 155.553,395.600 154.576 C 395.600 153.599,395.420 152.800,395.200 152.800 C 394.980 152.800,394.800 152.080,394.800 151.200 C 394.800 150.320,394.620 149.600,394.400 149.600 C 394.180 149.600,394.000 148.981,394.000 148.224 C 394.000 147.467,393.820 146.736,393.600 146.600 C 393.380 146.464,393.200 145.823,393.200 145.176 C 393.200 144.529,393.020 144.000,392.800 144.000 C 392.580 144.000,392.400 143.370,392.400 142.600 C 392.400 141.830,392.220 141.200,392.000 141.200 C 391.780 141.200,391.600 140.771,391.600 140.246 C 391.600 139.355,390.715 136.018,389.997 134.200 C 389.823 133.760,389.464 132.770,389.200 132.000 C 388.618 130.307,388.029 128.840,387.553 127.905 C 387.359 127.523,387.200 126.848,387.200 126.405 C 387.200 125.962,387.020 125.600,386.800 125.600 C 386.580 125.600,386.400 125.240,386.400 124.800 C 386.400 124.360,386.220 124.000,386.000 124.000 C 385.780 124.000,385.600 123.561,385.600 123.024 C 385.600 122.487,385.420 121.936,385.200 121.800 C 384.980 121.664,384.800 121.203,384.800 120.776 C 384.800 120.349,384.620 120.000,384.400 120.000 C 384.180 120.000,384.000 119.640,384.000 119.200 C 384.000 118.760,383.820 118.400,383.600 118.400 C 383.380 118.400,383.200 118.128,383.200 117.795 C 383.200 117.462,383.038 116.877,382.841 116.495 C 382.643 116.113,381.700 114.180,380.745 112.200 C 379.789 110.220,378.871 108.540,378.704 108.467 C 378.537 108.393,378.400 107.988,378.400 107.567 C 378.400 107.145,378.220 106.800,378.000 106.800 C 377.780 106.800,377.600 106.440,377.600 106.000 C 377.600 105.560,377.420 105.200,377.200 105.200 C 376.980 105.200,376.800 104.964,376.800 104.675 C 376.800 104.387,376.440 103.764,376.000 103.292 C 375.560 102.820,375.200 102.225,375.200 101.971 C 375.200 101.389,373.105 97.447,372.700 97.267 C 372.535 97.193,372.400 96.956,372.400 96.739 C 372.400 96.522,371.860 95.559,371.200 94.600 C 370.540 93.641,370.000 92.703,370.000 92.516 C 370.000 92.329,369.640 91.917,369.200 91.600 C 368.760 91.283,368.400 90.743,368.400 90.400 C 368.400 90.057,368.040 89.517,367.600 89.200 C 367.160 88.883,366.800 88.343,366.800 88.000 C 366.800 87.657,366.440 87.117,366.000 86.800 C 365.560 86.483,365.200 85.991,365.200 85.708 C 365.200 85.425,364.660 84.628,364.000 83.937 C 363.340 83.246,362.800 82.478,362.800 82.229 C 362.800 81.980,362.440 81.517,362.000 81.200 C 361.560 80.883,361.200 80.375,361.200 80.072 C 361.200 79.769,360.660 79.017,360.000 78.400 C 359.340 77.783,358.800 77.164,358.800 77.023 C 358.800 76.752,358.486 76.352,356.700 74.349 C 356.095 73.671,355.600 72.958,355.600 72.766 C 355.600 72.574,354.610 71.427,353.400 70.217 C 352.190 69.007,351.200 67.843,351.200 67.629 C 351.200 67.316,348.386 64.421,342.034 58.200 C 341.810 57.980,339.865 55.997,337.713 53.793 C 335.561 51.590,333.170 49.342,332.400 48.799 C 331.630 48.255,330.230 47.043,329.289 46.105 C 328.349 45.167,327.423 44.400,327.232 44.400 C 327.041 44.400,326.281 43.859,325.542 43.199 C 323.610 41.469,323.264 41.200,322.977 41.200 C 322.836 41.200,322.217 40.660,321.600 40.000 C 320.983 39.340,320.231 38.800,319.928 38.800 C 319.625 38.800,319.117 38.440,318.800 38.000 C 318.483 37.560,318.020 37.200,317.771 37.200 C 317.522 37.200,316.754 36.660,316.063 36.000 C 315.372 35.340,314.575 34.800,314.292 34.800 C 314.009 34.800,313.517 34.440,313.200 34.000 C 312.883 33.560,312.343 33.200,312.000 33.200 C 311.657 33.200,311.117 32.840,310.800 32.400 C 310.483 31.960,309.943 31.600,309.600 31.600 C 309.257 31.600,308.717 31.240,308.400 30.800 C 308.083 30.360,307.671 30.000,307.484 30.000 C 307.297 30.000,306.359 29.460,305.400 28.800 C 304.441 28.140,303.478 27.600,303.261 27.600 C 303.044 27.600,302.807 27.465,302.733 27.300 C 302.553 26.895,298.611 24.800,298.029 24.800 C 297.775 24.800,297.180 24.440,296.708 24.000 C 296.236 23.560,295.613 23.200,295.325 23.200 C 295.036 23.200,294.800 23.020,294.800 22.800 C 294.800 22.580,294.440 22.400,294.000 22.400 C 293.560 22.400,293.200 22.220,293.200 22.000 C 293.200 21.780,292.840 21.600,292.400 21.600 C 291.960 21.600,291.599 21.465,291.599 21.300 C 291.598 21.135,290.608 20.550,289.400 20.000 C 288.192 19.450,287.202 18.865,287.201 18.700 C 287.201 18.535,286.928 18.400,286.595 18.400 C 286.007 18.400,285.582 18.233,283.705 17.262 C 283.213 17.008,282.538 16.800,282.205 16.800 C 281.872 16.800,281.600 16.620,281.600 16.400 C 281.600 16.180,281.240 16.000,280.800 16.000 C 280.360 16.000,280.000 15.820,280.000 15.600 C 280.000 15.380,279.640 15.200,279.200 15.200 C 278.760 15.200,278.400 15.020,278.400 14.800 C 278.400 14.580,277.860 14.400,277.200 14.400 C 276.540 14.400,276.000 14.220,276.000 14.000 C 276.000 13.780,275.640 13.600,275.200 13.600 C 274.760 13.600,274.400 13.420,274.400 13.200 C 274.400 12.980,274.038 12.800,273.595 12.800 C 273.152 12.800,272.477 12.641,272.095 12.447 C 271.713 12.252,270.860 11.871,270.200 11.600 C 269.540 11.329,268.687 10.948,268.305 10.753 C 267.923 10.559,267.336 10.400,267.000 10.400 C 266.664 10.400,266.077 10.237,265.695 10.037 C 264.553 9.440,260.778 8.400,259.754 8.400 C 259.229 8.400,258.800 8.220,258.800 8.000 C 258.800 7.780,258.170 7.600,257.400 7.600 C 256.630 7.600,256.000 7.420,256.000 7.200 C 256.000 6.980,255.471 6.800,254.824 6.800 C 254.177 6.800,253.536 6.620,253.400 6.400 C 253.264 6.180,252.533 6.000,251.776 6.000 C 251.019 6.000,250.400 5.820,250.400 5.600 C 250.400 5.380,249.680 5.200,248.800 5.200 C 247.920 5.200,247.200 5.020,247.200 4.800 C 247.200 4.580,246.491 4.400,245.624 4.400 C 244.757 4.400,243.936 4.220,243.800 4.000 C 243.664 3.780,242.753 3.600,241.776 3.600 C 240.799 3.600,240.000 3.420,240.000 3.200 C 240.000 2.980,239.100 2.800,238.000 2.800 C 236.900 2.800,236.000 2.620,236.000 2.400 C 236.000 2.178,234.941 2.000,233.624 2.000 C 232.317 2.000,231.136 1.820,231.000 1.600 C 230.864 1.380,229.518 1.200,228.010 1.200 C 226.193 1.200,225.211 1.034,225.103 0.708 C 224.941 0.222,187.291 -0.126,178.300 0.275 M124.800 86.828 C 124.800 87.033,125.252 87.200,125.805 87.200 C 126.358 87.200,127.123 87.361,127.505 87.558 C 127.887 87.755,129.578 88.566,131.262 89.361 C 134.475 90.878,140.400 96.072,140.400 97.373 C 140.400 97.718,140.580 98.000,140.800 98.000 C 141.020 98.000,141.200 98.360,141.200 98.800 C 141.200 99.240,141.380 99.600,141.600 99.600 C 141.820 99.600,142.001 99.915,142.002 100.300 C 142.004 100.685,142.274 101.516,142.602 102.146 C 142.931 102.776,143.200 103.775,143.200 104.366 C 143.200 104.957,143.391 105.631,143.625 105.865 C 144.541 106.781,143.771 116.361,142.564 119.060 C 142.254 119.754,142.000 120.609,142.000 120.960 C 142.000 121.312,141.820 121.600,141.600 121.600 C 141.380 121.600,141.200 121.960,141.200 122.400 C 141.200 122.840,141.020 123.200,140.800 123.200 C 140.580 123.200,140.400 123.560,140.400 124.000 C 140.400 124.440,140.260 124.800,140.090 124.800 C 139.919 124.800,138.606 125.925,137.170 127.300 C 135.735 128.675,134.075 130.055,133.480 130.368 C 132.886 130.680,132.400 131.085,132.400 131.268 C 132.400 131.450,132.040 131.600,131.600 131.600 C 131.160 131.600,130.800 131.780,130.800 132.000 C 130.800 132.220,130.451 132.400,130.024 132.400 C 129.597 132.400,129.136 132.580,129.000 132.800 C 128.864 133.020,128.313 133.200,127.776 133.200 C 127.239 133.200,126.800 133.380,126.800 133.600 C 126.800 133.820,126.170 134.000,125.400 134.000 C 124.630 134.000,124.000 134.180,124.000 134.400 C 124.000 134.650,121.600 134.800,117.600 134.800 C 113.600 134.800,111.200 134.650,111.200 134.400 C 111.200 134.180,110.480 134.000,109.600 134.000 C 108.720 134.000,108.000 133.820,108.000 133.600 C 108.000 133.380,107.651 133.200,107.224 133.200 C 106.797 133.200,106.336 133.020,106.200 132.800 C 106.064 132.580,105.603 132.400,105.176 132.400 C 104.749 132.400,104.400 132.220,104.400 132.000 C 104.400 131.780,104.164 131.600,103.875 131.600 C 103.587 131.600,102.964 131.240,102.492 130.800 C 102.020 130.360,101.450 130.000,101.227 130.000 C 100.716 130.000,95.600 125.037,95.600 124.542 C 95.600 124.341,95.240 123.917,94.800 123.600 C 94.360 123.283,94.000 122.703,94.000 122.312 C 94.000 121.920,93.820 121.600,93.600 121.600 C 93.380 121.600,93.200 121.240,93.200 120.800 C 93.200 120.360,93.020 120.000,92.800 120.000 C 92.580 120.000,92.400 119.475,92.400 118.833 C 92.400 118.192,92.176 117.592,91.903 117.501 C 91.187 117.262,91.184 103.939,91.900 103.700 C 92.175 103.608,92.400 103.008,92.400 102.367 C 92.400 101.725,92.580 101.200,92.800 101.200 C 93.020 101.200,93.200 100.840,93.200 100.400 C 93.200 99.960,93.380 99.600,93.600 99.600 C 93.820 99.600,94.000 99.280,94.000 98.888 C 94.000 98.497,94.360 97.917,94.800 97.600 C 95.240 97.283,95.600 96.789,95.600 96.503 C 95.600 95.763,99.665 91.792,101.261 90.975 C 101.997 90.597,102.690 90.178,102.800 90.044 C 103.235 89.513,106.520 88.000,107.238 88.000 C 107.657 88.000,108.000 87.820,108.000 87.600 C 108.000 87.380,108.594 87.200,109.320 87.200 C 110.046 87.200,110.812 87.028,111.021 86.819 C 111.764 86.076,124.800 86.085,124.800 86.828 M271.400 154.000 C 271.536 154.220,272.537 154.400,273.624 154.400 C 274.711 154.400,275.600 154.580,275.600 154.800 C 275.600 155.020,276.219 155.200,276.976 155.200 C 277.733 155.200,278.464 155.380,278.600 155.600 C 278.736 155.820,279.276 156.000,279.800 156.000 C 280.324 156.000,280.864 156.180,281.000 156.400 C 281.136 156.620,281.576 156.800,281.978 156.800 C 282.380 156.800,283.224 157.069,283.854 157.398 C 284.484 157.726,285.315 157.996,285.700 157.998 C 286.085 157.999,286.400 158.180,286.400 158.400 C 286.400 158.620,286.760 158.800,287.200 158.800 C 287.640 158.800,288.000 158.980,288.000 159.200 C 288.000 159.420,288.360 159.600,288.800 159.600 C 289.240 159.600,289.600 159.780,289.600 160.000 C 289.600 160.220,289.920 160.400,290.312 160.400 C 290.703 160.400,291.283 160.760,291.600 161.200 C 291.917 161.640,292.319 162.000,292.492 162.000 C 292.665 162.000,293.372 162.540,294.063 163.200 C 294.754 163.860,295.475 164.400,295.665 164.400 C 296.154 164.400,302.800 171.102,302.800 171.594 C 302.800 171.817,302.980 172.000,303.200 172.000 C 303.420 172.000,303.600 172.230,303.600 172.512 C 303.600 172.793,303.960 173.283,304.400 173.600 C 304.840 173.917,305.200 174.367,305.200 174.600 C 305.200 174.833,305.560 175.283,306.000 175.600 C 306.440 175.917,306.800 176.497,306.800 176.888 C 306.800 177.280,306.980 177.600,307.200 177.600 C 307.420 177.600,307.600 177.960,307.600 178.400 C 307.600 178.840,307.766 179.200,307.968 179.200 C 308.171 179.200,308.455 179.740,308.600 180.400 C 308.745 181.060,309.029 181.600,309.232 181.600 C 309.434 181.600,309.600 181.872,309.600 182.205 C 309.600 182.538,309.759 183.123,309.953 183.505 C 310.148 183.887,310.508 184.695,310.753 185.300 C 310.999 185.905,311.401 186.895,311.647 187.500 C 311.892 188.105,312.252 188.913,312.447 189.295 C 312.641 189.677,312.800 190.431,312.800 190.971 C 312.800 191.511,312.980 192.064,313.200 192.200 C 313.420 192.336,313.600 192.977,313.600 193.624 C 313.600 194.271,313.780 194.800,314.000 194.800 C 314.220 194.800,314.400 195.599,314.400 196.576 C 314.400 197.553,314.580 198.464,314.800 198.600 C 315.020 198.736,315.200 199.737,315.200 200.824 C 315.200 201.911,315.380 202.800,315.600 202.800 C 315.835 202.800,316.000 204.192,316.000 206.176 C 316.000 208.033,316.180 209.664,316.400 209.800 C 316.663 209.962,316.800 225.804,316.800 256.024 L 316.800 302.000 293.404 302.000 L 270.008 302.000 269.829 261.900 C 269.648 221.481,269.462 212.800,268.775 212.800 C 268.569 212.800,268.400 211.990,268.400 211.000 C 268.400 210.010,268.220 209.200,268.000 209.200 C 267.780 209.200,267.600 208.671,267.600 208.024 C 267.600 207.377,267.420 206.736,267.200 206.600 C 266.980 206.464,266.800 205.913,266.800 205.376 C 266.800 204.839,266.620 204.400,266.400 204.400 C 266.180 204.400,266.000 204.040,266.000 203.600 C 266.000 203.160,265.820 202.800,265.600 202.800 C 265.380 202.800,265.200 202.440,265.200 202.000 C 265.200 201.560,265.020 201.200,264.800 201.200 C 264.580 201.200,264.400 200.880,264.400 200.488 C 264.400 200.097,264.040 199.517,263.600 199.200 C 263.160 198.883,262.800 198.428,262.800 198.190 C 262.800 197.642,260.219 194.800,259.721 194.800 C 259.518 194.800,259.002 194.485,258.575 194.100 C 258.149 193.715,257.080 193.059,256.200 192.641 C 255.320 192.224,254.287 191.729,253.905 191.541 C 253.523 191.354,252.578 191.200,251.805 191.200 C 251.032 191.200,250.400 191.020,250.400 190.800 C 250.400 190.551,248.067 190.400,244.200 190.400 C 240.333 190.400,238.000 190.551,238.000 190.800 C 238.000 191.020,237.368 191.200,236.595 191.200 C 235.822 191.200,234.877 191.371,234.495 191.580 C 234.113 191.788,232.630 192.497,231.200 193.154 C 229.754 193.818,227.852 195.114,226.914 196.074 C 222.468 200.624,221.600 201.623,221.600 202.189 C 221.600 202.525,221.420 202.800,221.200 202.800 C 220.980 202.800,220.800 203.160,220.800 203.600 C 220.800 204.040,220.665 204.401,220.500 204.403 C 220.141 204.407,219.200 206.344,219.200 207.080 C 219.200 207.366,219.020 207.600,218.800 207.600 C 218.580 207.600,218.400 207.960,218.400 208.400 C 218.400 208.840,218.220 209.200,218.000 209.200 C 217.780 209.200,217.600 209.999,217.600 210.976 C 217.600 211.953,217.420 212.864,217.200 213.000 C 216.937 213.162,216.800 228.471,216.800 257.624 L 216.800 302.000 193.400 302.000 L 170.000 302.000 170.000 229.400 L 170.000 156.800 193.400 156.800 L 216.800 156.800 216.800 166.800 L 216.800 176.800 217.800 176.800 C 218.350 176.800,218.800 176.628,218.800 176.418 C 218.800 176.208,219.250 175.586,219.800 175.036 C 220.350 174.486,220.800 173.940,220.800 173.823 C 220.800 172.910,229.097 163.600,229.910 163.600 C 230.114 163.600,230.846 163.060,231.537 162.400 C 232.228 161.740,233.025 161.200,233.308 161.200 C 233.591 161.200,234.083 160.840,234.400 160.400 C 234.717 159.960,235.297 159.600,235.688 159.600 C 236.080 159.600,236.400 159.420,236.400 159.200 C 236.400 158.980,236.760 158.800,237.200 158.800 C 237.640 158.800,238.000 158.620,238.000 158.400 C 238.000 158.180,238.198 158.000,238.440 158.000 C 238.681 158.000,239.446 157.745,240.140 157.433 C 242.353 156.437,246.224 155.200,247.127 155.200 C 247.607 155.200,248.000 155.020,248.000 154.800 C 248.000 154.580,248.900 154.400,250.000 154.400 C 251.100 154.400,252.000 154.220,252.000 154.000 C 252.000 153.744,255.459 153.600,261.576 153.600 C 267.529 153.600,271.246 153.751,271.400 154.000 M141.200 229.400 L 141.200 302.000 117.600 302.000 L 94.000 302.000 94.000 229.400 L 94.000 156.800 117.600 156.800 L 141.200 156.800 141.200 229.400 " stroke="none" fill="#ffffff" fill-rule="evenodd"></path><path id="path1" d="" stroke="none" fill="#ffffff" fill-rule="evenodd"></path><path id="path2" d="" stroke="none" fill="#ffffff" fill-rule="evenodd"></path><path id="path3" d="" stroke="none" fill="#ffffff" fill-rule="evenodd"></path><path id="path4" d="" stroke="none" fill="#ffffff" fill-rule="evenodd"></path></g></svg>