<svg id="svg" xmlns="http://www.w3.org/2000/svg" xmlns:xlink="http://www.w3.org/1999/xlink" width="400" height="400" viewBox="0, 0, 400,400"><g id="svgg"><path id="path0" d="M52.322 1.466 C 37.476 6.218,26.097 18.025,22.321 32.597 C 20.775 38.565,20.422 307.614,21.951 315.001 C 25.641 332.829,28.243 334.979,87.139 368.879 C 140.582 399.640,141.363 400.006,153.403 399.991 C 180.893 399.955,196.713 382.368,197.493 350.977 L 197.847 336.719 230.811 336.719 C 267.710 336.719,270.048 336.488,279.588 331.909 C 291.140 326.363,299.390 316.231,302.700 303.520 C 304.694 295.868,304.468 241.664,302.427 237.664 C 297.979 228.948,286.306 227.033,279.040 233.826 C 275.431 237.201,275.408 237.397,275.000 267.578 C 274.562 300.026,274.712 299.178,268.483 304.214 L 265.482 306.641 231.589 306.860 L 197.696 307.079 197.481 207.250 L 197.266 107.422 195.519 102.287 C 193.318 95.814,188.862 88.925,183.894 84.314 C 179.648 80.372,176.734 78.615,126.953 49.981 C 108.047 39.107,92.238 29.910,91.823 29.544 C 91.407 29.178,130.065 28.973,177.817 29.088 L 264.568 29.297 267.815 31.446 C 274.563 35.912,274.556 35.873,275.000 72.266 C 275.272 94.560,275.667 104.772,276.300 105.859 C 281.673 115.092,294.798 115.846,301.322 107.295 L 303.516 104.420 303.735 71.382 C 303.919 43.736,303.757 37.491,302.743 33.119 C 299.343 18.459,287.050 5.749,271.929 1.260 C 265.115 -0.763,58.680 -0.569,52.322 1.466 M317.319 114.958 C 305.814 120.652,306.676 130.994,319.765 144.310 L 328.379 153.074 274.150 153.295 C 214.220 153.539,217.501 153.257,213.051 158.546 C 206.934 165.815,209.106 177.149,217.383 181.155 C 220.769 182.795,221.379 182.813,274.592 182.813 L 328.378 182.813 319.732 191.660 C 313.285 198.258,310.870 201.287,310.235 203.574 C 306.974 215.320,315.932 224.962,327.823 222.505 C 331.456 221.754,332.710 220.653,353.769 199.725 C 387.255 166.449,387.218 169.562,354.515 136.952 C 329.280 111.789,326.746 110.291,317.319 114.958 " stroke="none" fill="#000000" fill-rule="evenodd"></path></g></svg>