<svg id="svg" version="1.1" xmlns="http://www.w3.org/2000/svg" xmlns:xlink="http://www.w3.org/1999/xlink" width="400" height="400" viewBox="0, 0, 400,400"><g id="svgg"><path id="path0" d="M183.594 0.532 C 153.000 5.528,129.203 21.443,113.448 47.444 C 109.092 54.632,105.142 64.590,102.982 73.828 C 88.688 134.961,134.683 192.989,197.415 192.966 C 263.850 192.941,310.032 127.601,288.522 64.063 C 274.278 21.986,227.108 -6.574,183.594 0.532 M110.156 193.467 C 66.268 199.875,41.332 234.870,33.969 300.391 C 28.693 347.338,38.042 375.673,63.672 390.416 C 81.160 400.475,75.231 400.074,202.776 399.812 L 312.109 399.586 318.750 397.543 C 359.941 384.868,373.483 352.673,364.052 289.844 C 354.871 228.679,327.455 195.609,283.951 193.225 C 273.339 192.644,273.232 192.685,255.007 204.355 C 215.213 229.836,183.289 229.787,144.051 204.184 C 126.809 192.934,122.701 191.635,110.156 193.467 " stroke="none" fill="#ffffff" fill-rule="evenodd"></path></g></svg>