<svg id="svg" xmlns="http://www.w3.org/2000/svg" xmlns:xlink="http://www.w3.org/1999/xlink" width="400" height="400" viewBox="0, 0, 400,400"><g id="svgg"><path id="path0" d="M185.547 0.538 C 140.173 6.419,101.242 38.419,86.794 81.709 C 81.594 97.288,81.091 101.516,80.683 133.008 L 80.310 161.719 76.459 161.719 C 65.152 161.719,54.275 169.107,48.908 180.432 L 46.484 185.547 46.270 278.516 C 46.131 338.938,46.332 372.778,46.844 375.179 C 48.829 384.476,55.354 392.838,63.912 397.051 L 69.108 399.609 200.000 399.609 L 330.892 399.609 336.036 397.077 C 342.447 393.921,347.711 388.425,351.027 381.424 L 353.516 376.172 353.516 280.859 L 353.516 185.547 351.346 180.914 C 346.051 169.607,334.913 161.719,324.243 161.719 L 321.094 161.719 321.091 134.961 C 321.087 106.075,320.556 100.177,316.775 87.086 C 300.259 29.888,244.225 -7.068,185.547 0.538 M221.094 56.126 C 240.146 62.366,256.381 77.542,263.358 95.632 C 267.457 106.264,267.969 110.914,267.969 137.569 L 267.969 161.719 200.781 161.719 L 133.594 161.719 133.594 139.510 C 133.594 127.295,133.973 114.572,134.437 111.238 C 140.128 70.324,182.388 43.447,221.094 56.126 " stroke="none" fill="#ffffff" fill-rule="evenodd"></path></g></svg>