<svg id="svg" version="1.1" xmlns="http://www.w3.org/2000/svg" xmlns:xlink="http://www.w3.org/1999/xlink" width="400" height="400" viewBox="0, 0, 400,400"><g id="svgg"><path id="path0" d="M181.716 1.255 C 146.474 7.619,116.308 33.930,104.775 68.363 C 100.457 81.253,100.000 86.163,100.000 119.634 L 100.000 150.000 90.304 150.000 C 70.080 150.000,56.234 159.396,51.239 176.509 C 49.155 183.648,49.379 367.398,51.480 374.148 C 55.063 385.661,64.956 395.389,76.509 398.761 C 82.973 400.648,317.027 400.648,323.491 398.761 C 335.044 395.389,344.937 385.661,348.520 374.148 C 350.621 367.398,350.845 183.648,348.761 176.509 C 343.766 159.396,329.920 150.000,309.696 150.000 L 300.000 150.000 300.000 119.634 C 300.000 86.163,299.543 81.253,295.225 68.363 C 279.393 21.096,230.831 -7.614,181.716 1.255 M217.471 36.319 C 240.455 42.979,256.619 59.116,263.811 82.581 C 265.916 89.447,265.918 89.479,266.225 119.727 L 266.533 150.000 200.000 150.000 L 133.467 150.000 133.775 119.727 C 134.117 86.047,134.515 83.253,140.724 70.862 C 155.046 42.285,187.559 27.651,217.471 36.319 M209.525 218.732 C 234.731 226.518,240.916 260.150,220.008 275.731 L 216.406 278.415 216.406 298.297 C 216.406 326.197,213.275 332.778,200.000 332.778 C 186.720 332.778,183.594 326.201,183.594 298.258 L 183.594 278.338 180.329 276.083 C 150.997 255.826,175.267 208.151,209.525 218.732 " stroke="none" fill="#303030" fill-rule="evenodd"></path></g></svg>