<svg id="svg" xmlns="http://www.w3.org/2000/svg" xmlns:xlink="http://www.w3.org/1999/xlink" width="400" height="400" viewBox="0, 0, 400,400"><g id="svgg"><path id="path0" d="M318.572 2.613 C 310.608 5.327,306.633 8.548,287.114 28.101 L 269.150 46.097 310.161 87.124 L 351.172 128.150 373.922 105.286 C 400.465 78.610,400.394 78.719,399.843 66.016 C 399.357 54.783,398.308 53.300,373.196 28.334 C 350.990 6.257,348.428 4.246,339.453 1.845 C 333.347 0.211,324.683 0.530,318.572 2.613 M144.922 170.313 L 41.799 273.438 82.815 314.453 L 123.830 355.469 227.343 251.954 L 330.855 148.439 290.235 107.813 C 267.894 85.469,249.262 67.188,248.830 67.188 C 248.398 67.188,201.639 113.594,144.922 170.313 M19.921 297.070 C 14.725 318.756,0.000 387.671,0.000 390.303 C 0.000 395.252,3.748 399.219,8.424 399.219 C 11.281 399.219,101.383 377.784,102.275 376.892 C 102.719 376.448,21.803 295.313,20.916 295.313 C 20.601 295.313,20.153 296.104,19.921 297.070 " stroke="none" fill="#ffffff" fill-rule="evenodd"></path></g></svg>