<svg id="svg" version="1.1" xmlns="http://www.w3.org/2000/svg" xmlns:xlink="http://www.w3.org/1999/xlink" width="400" height="400" viewBox="0, 0, 400,400"><g id="svgg"><path id="path0" d="M180.078 81.266 C 114.813 88.498,56.371 122.947,9.134 182.031 C -4.405 198.966,-4.058 202.344,13.352 223.047 C 123.001 353.434,283.129 351.608,390.188 218.750 C 404.506 200.982,404.243 197.877,386.648 176.953 C 329.008 108.412,252.968 73.189,180.078 81.266 M219.531 118.642 C 283.546 135.701,305.124 212.618,258.871 258.871 C 211.484 306.258,130.673 281.354,117.893 215.425 C 106.526 156.786,162.533 103.454,219.531 118.642 M194.531 154.770 C 157.035 158.752,141.107 205.076,167.942 232.099 C 196.602 260.958,245.695 240.397,245.508 199.614 C 245.381 172.030,222.396 151.811,194.531 154.770 " stroke="none" fill="#ffffff" fill-rule="evenodd"></path></g></svg>