<svg id="svg" xmlns="http://www.w3.org/2000/svg" xmlns:xlink="http://www.w3.org/1999/xlink" width="400" height="400" viewBox="0, 0, 400,400"><g id="svgg"><path id="path0" d="M176.953 0.867 C 109.404 9.131,51.771 49.445,21.050 109.918 C -10.176 171.388,-6.717 247.507,29.960 305.966 C 118.391 446.916,330.853 424.902,388.207 268.847 C 439.256 129.948,323.377 -17.048,176.953 0.867 M225.000 30.860 C 363.861 52.752,419.653 221.733,320.693 320.693 C 237.733 403.653,97.712 380.124,46.449 274.609 C -6.297 166.041,64.704 42.259,187.109 29.386 C 193.604 28.703,217.120 29.618,225.000 30.860 M121.882 115.512 C 117.797 117.703,114.731 121.952,114.268 126.065 C 113.342 134.281,112.035 132.622,147.113 167.773 L 179.272 200.000 147.113 232.227 C 112.035 267.378,113.342 265.719,114.268 273.935 C 115.245 282.603,125.446 288.348,134.129 285.120 C 135.338 284.670,150.654 269.994,168.164 252.506 L 200.000 220.710 231.836 252.506 C 249.346 269.994,264.662 284.670,265.871 285.120 C 277.797 289.553,289.553 277.797,285.120 265.871 C 284.670 264.662,269.994 249.346,252.506 231.836 L 220.710 200.000 252.506 168.164 C 269.994 150.654,284.670 135.338,285.120 134.129 C 288.348 125.446,282.603 115.245,273.935 114.268 C 265.719 113.342,267.378 112.034,232.222 147.117 L 199.991 179.281 168.160 147.489 C 150.652 130.004,135.338 115.330,134.129 114.880 C 130.698 113.605,124.879 113.905,121.882 115.512 " stroke="none" fill="#000000" fill-rule="evenodd"></path></g></svg>